<?xml version="1.0" encoding="us-ascii" standalone="no"?><svg xmlns="http://www.w3.org/2000/svg" xmlns:xlink="http://www.w3.org/1999/xlink" contentStyleType="text/css" height="781px" preserveAspectRatio="none" style="width:530px;height:781px;background:#FFFFFF;" version="1.1" viewBox="0 0 530 781" width="530px" zoomAndPan="magnify"><defs/><g><!--cluster Manual UI.lvlib--><g id="cluster_Manual UI.lvlib"><path d="M92.5,129 L204.5,129 A3.75,3.75 0 0 1 207,131.5 L214,151.2969 L391.5,151.2969 A2.5,2.5 0 0 1 394,153.7969 L394,649.22 A2.5,2.5 0 0 1 391.5,651.72 L92.5,651.72 A2.5,2.5 0 0 1 90,649.22 L90,131.5 A2.5,2.5 0 0 1 92.5,129 " fill="none" style="stroke:#000000;stroke-width:1.5;"/><line style="stroke:#000000;stroke-width:1.5;" x1="90" x2="214" y1="151.2969" y2="151.2969"/><text fill="#000000" font-family="sans-serif" font-size="14" font-weight="bold" lengthAdjust="spacing" textLength="111" x="94" y="143.9951">Manual UI.lvlib</text></g><!--cluster Prime Panel.lvlibp--><g id="cluster_Prime Panel.lvlibp"><path d="M167.5,6 L307.5,6 A3.75,3.75 0 0 1 310,8.5 L317,28.2969 L317.5,28.2969 A2.5,2.5 0 0 1 320,30.7969 L320,102.5 A2.5,2.5 0 0 1 317.5,105 L167.5,105 A2.5,2.5 0 0 1 165,102.5 L165,8.5 A2.5,2.5 0 0 1 167.5,6 " fill="none" style="stroke:#000000;stroke-width:1.5;"/><line style="stroke:#000000;stroke-width:1.5;" x1="165" x2="317" y1="28.2969" y2="28.2969"/><text fill="#000000" font-family="sans-serif" font-size="14" font-weight="bold" lengthAdjust="spacing" textLength="139" x="169" y="20.9951">Prime Panel.lvlibp</text></g><!--cluster Config.lvlibp--><g id="cluster_Config.lvlibp"><path d="M8.5,675.72 L106.5,675.72 A3.75,3.75 0 0 1 109,678.22 L116,698.0169 L116.5,698.0169 A2.5,2.5 0 0 1 119,700.5169 L119,772.22 A2.5,2.5 0 0 1 116.5,774.72 L8.5,774.72 A2.5,2.5 0 0 1 6,772.22 L6,678.22 A2.5,2.5 0 0 1 8.5,675.72 " fill="none" style="stroke:#000000;stroke-width:1.5;"/><line style="stroke:#000000;stroke-width:1.5;" x1="6" x2="116" y1="698.0169" y2="698.0169"/><text fill="#000000" font-family="sans-serif" font-size="14" font-weight="bold" lengthAdjust="spacing" textLength="97" x="10" y="690.7151">Config.lvlibp</text></g><!--cluster Actor Framework.lvlibp--><g id="cluster_Actor Framework.lvlibp"><path d="M145.5,675.72 L329.5,675.72 A3.75,3.75 0 0 1 332,678.22 L339,698.0169 L339.5,698.0169 A2.5,2.5 0 0 1 342,700.5169 L342,772.22 A2.5,2.5 0 0 1 339.5,774.72 L145.5,774.72 A2.5,2.5 0 0 1 143,772.22 L143,678.22 A2.5,2.5 0 0 1 145.5,675.72 " fill="none" style="stroke:#000000;stroke-width:1.5;"/><line style="stroke:#000000;stroke-width:1.5;" x1="143" x2="339" y1="698.0169" y2="698.0169"/><text fill="#000000" font-family="sans-serif" font-size="14" font-weight="bold" lengthAdjust="spacing" textLength="183" x="147" y="690.7151">Actor Framework.lvlibp</text></g><!--cluster Instruments.lvlibp--><g id="cluster_Instruments.lvlibp"><path d="M368.5,675.72 L510.5,675.72 A3.75,3.75 0 0 1 513,678.22 L520,698.0169 L520.5,698.0169 A2.5,2.5 0 0 1 523,700.5169 L523,772.22 A2.5,2.5 0 0 1 520.5,774.72 L368.5,774.72 A2.5,2.5 0 0 1 366,772.22 L366,678.22 A2.5,2.5 0 0 1 368.5,675.72 " fill="none" style="stroke:#000000;stroke-width:1.5;"/><line style="stroke:#000000;stroke-width:1.5;" x1="366" x2="520" y1="698.0169" y2="698.0169"/><text fill="#000000" font-family="sans-serif" font-size="14" font-weight="bold" lengthAdjust="spacing" textLength="141" x="370" y="690.7151">Instruments.lvlibp</text></g><!--class Manual UI--><g id="elem_Manual UI"><rect codeLine="8" fill="#FFFFFF" height="471.7188" id="Manual UI" rx="2.5" ry="2.5" style="stroke:#555555;stroke-width:0.5;" width="271" x="106.5" y="164"/><rect fill="#808080" height="32" rx="2.5" ry="2.5" style="stroke:#808080;stroke-width:0.5;" width="271" x="106.5" y="164"/><rect fill="#808080" height="2.5" style="stroke:#808080;stroke-width:0.5;" width="271" x="106.5" y="193.5"/><rect codeLine="8" fill="none" height="471.7188" id="Manual UI" rx="2.5" ry="2.5" style="stroke:#555555;stroke-width:0.5;" width="271" x="106.5" y="164"/><ellipse cx="204.75" cy="180" fill="#ADD1B2" rx="11" ry="11" style="stroke:#181818;stroke-width:1.0;"/><path d="M207.7188,185.6406 Q207.1406,185.9375 206.5,186.0781 Q205.8594,186.2344 205.1563,186.2344 Q202.6563,186.2344 201.3281,184.5938 Q200.0156,182.9375 200.0156,179.8125 Q200.0156,176.6875 201.3281,175.0313 Q202.6563,173.375 205.1563,173.375 Q205.8594,173.375 206.5,173.5313 Q207.1563,173.6875 207.7188,173.9844 L207.7188,176.7031 Q207.0938,176.125 206.5,175.8594 Q205.9063,175.5781 205.2813,175.5781 Q203.9375,175.5781 203.25,176.6563 Q202.5625,177.7188 202.5625,179.8125 Q202.5625,181.9063 203.25,182.9844 Q203.9375,184.0469 205.2813,184.0469 Q205.9063,184.0469 206.5,183.7813 Q207.0938,183.5 207.7188,182.9219 L207.7188,185.6406 Z " fill="#000000"/><text fill="#000000" font-family="sans-serif" font-size="14" lengthAdjust="spacing" textLength="66" x="225.25" y="184.8467">Manual UI</text><line style="stroke:#555555;stroke-width:0.5;" x1="107.5" x2="376.5" y1="196" y2="196"/><rect fill="none" height="6" style="stroke:#C82930;stroke-width:1.0;" width="6" x="114.5" y="206.6484"/><text fill="#000000" font-family="sans-serif" font-size="14" lengthAdjust="spacing" textLength="242" x="126.5" y="212.9951">Splitters : Array of kLVObjSplitterBar</text><rect fill="none" height="6" style="stroke:#C82930;stroke-width:1.0;" width="6" x="114.5" y="222.9453"/><text fill="#000000" font-family="sans-serif" font-size="14" lengthAdjust="spacing" textLength="226" x="126.5" y="229.292">Panels : Array of kLVObjSubPanel</text><rect fill="none" height="6" style="stroke:#C82930;stroke-width:1.0;" width="6" x="114.5" y="239.2422"/><text fill="#000000" font-family="sans-serif" font-size="14" lengthAdjust="spacing" textLength="209" x="126.5" y="245.5889">Subordinates : Array of Cluster</text><ellipse cx="117.5" cy="258.5391" fill="none" rx="3" ry="3" style="stroke:#038048;stroke-width:1.0;"/><text fill="#000000" font-family="sans-serif" font-size="14" lengthAdjust="spacing" textLength="114" x="126.5" y="261.8857">Config : LV Class</text><rect fill="none" height="6" style="stroke:#C82930;stroke-width:1.0;" width="6" x="114.5" y="271.8359"/><text fill="#000000" font-family="sans-serif" font-size="14" lengthAdjust="spacing" textLength="204" x="126.5" y="278.1826">Splitter Positions : Array of I32</text><ellipse cx="117.5" cy="291.1328" fill="none" rx="3" ry="3" style="stroke:#038048;stroke-width:1.0;"/><text fill="#000000" font-family="sans-serif" font-size="14" lengthAdjust="spacing" textLength="200" x="126.5" y="294.4795">Instruments : Array of Cluster</text><line style="stroke:#555555;stroke-width:0.5;" x1="107.5" x2="376.5" y1="301.7813" y2="301.7813"/><ellipse cx="117.5" cy="315.4297" fill="#84BE84" rx="3" ry="3" style="stroke:#038048;stroke-width:1.0;"/><text fill="#000000" font-family="sans-serif" font-size="14" lengthAdjust="spacing" text-decoration="underline" textLength="188" x="126.5" y="318.7764">Change Active Instrument()</text><ellipse cx="117.5" cy="331.7266" fill="#84BE84" rx="3" ry="3" style="stroke:#038048;stroke-width:1.0;"/><text fill="#000000" font-family="sans-serif" font-size="14" lengthAdjust="spacing" text-decoration="underline" textLength="136" x="126.5" y="335.0732">Close Instruments()</text><ellipse cx="117.5" cy="348.0234" fill="#84BE84" rx="3" ry="3" style="stroke:#038048;stroke-width:1.0;"/><text fill="#000000" font-family="sans-serif" font-size="14" lengthAdjust="spacing" text-decoration="underline" textLength="147" x="126.5" y="351.3701">Launch Instruments()</text><ellipse cx="117.5" cy="364.3203" fill="#84BE84" rx="3" ry="3" style="stroke:#038048;stroke-width:1.0;"/><text fill="#000000" font-family="sans-serif" font-size="14" lengthAdjust="spacing" text-decoration="underline" textLength="209" x="126.5" y="367.667">Launch Subordinate and Add()</text><ellipse cx="117.5" cy="380.6172" fill="#84BE84" rx="3" ry="3" style="stroke:#038048;stroke-width:1.0;"/><text fill="#000000" font-family="sans-serif" font-size="14" lengthAdjust="spacing" text-decoration="underline" textLength="138" x="126.5" y="383.9639">Query Instruments()</text><ellipse cx="117.5" cy="396.9141" fill="#84BE84" rx="3" ry="3" style="stroke:#038048;stroke-width:1.0;"/><text fill="#000000" font-family="sans-serif" font-size="14" lengthAdjust="spacing" text-decoration="underline" textLength="136" x="126.5" y="400.2607">Update Main State()</text><rect fill="#F24D5C" height="6" style="stroke:#C82930;stroke-width:1.0;" width="6" x="114.5" y="410.2109"/><text fill="#000000" font-family="sans-serif" font-size="14" lengthAdjust="spacing" text-decoration="underline" textLength="209" x="126.5" y="416.5576">Load Enabled Instrument List()</text><rect fill="#F24D5C" height="6" style="stroke:#C82930;stroke-width:1.0;" width="6" x="114.5" y="426.5078"/><text fill="#000000" font-family="sans-serif" font-size="14" lengthAdjust="spacing" text-decoration="underline" textLength="122" x="126.5" y="432.8545">Load Instrument()</text><rect fill="#F24D5C" height="6" style="stroke:#C82930;stroke-width:1.0;" width="6" x="114.5" y="442.8047"/><text fill="#000000" font-family="sans-serif" font-size="14" lengthAdjust="spacing" text-decoration="underline" textLength="125" x="126.5" y="449.1514">Add Subordinate()</text><rect fill="#F24D5C" height="6" style="stroke:#C82930;stroke-width:1.0;" width="6" x="114.5" y="459.1016"/><text fill="#000000" font-family="sans-serif" font-size="14" lengthAdjust="spacing" text-decoration="underline" textLength="148" x="126.5" y="465.4482">Launch Subordinate()</text><rect fill="#F24D5C" height="6" style="stroke:#C82930;stroke-width:1.0;" width="6" x="114.5" y="475.3984"/><text fill="#000000" font-family="sans-serif" font-size="14" lengthAdjust="spacing" text-decoration="underline" textLength="168" x="126.5" y="481.7451">Search for Subordinate()</text><rect fill="#F24D5C" height="6" style="stroke:#C82930;stroke-width:1.0;" width="6" x="114.5" y="491.6953"/><text fill="#000000" font-family="sans-serif" font-size="14" lengthAdjust="spacing" text-decoration="underline" textLength="245" x="126.5" y="498.042">Calculate Default Splitter Positions()</text><rect fill="#F24D5C" height="6" style="stroke:#C82930;stroke-width:1.0;" width="6" x="114.5" y="507.9922"/><text fill="#000000" font-family="sans-serif" font-size="14" lengthAdjust="spacing" text-decoration="underline" textLength="178" x="126.5" y="514.3389">Default Splitter Positions()</text><rect fill="#F24D5C" height="6" style="stroke:#C82930;stroke-width:1.0;" width="6" x="114.5" y="524.2891"/><text fill="#000000" font-family="sans-serif" font-size="14" lengthAdjust="spacing" text-decoration="underline" textLength="119" x="126.5" y="530.6357">Post Launch Init()</text><rect fill="#F24D5C" height="6" style="stroke:#C82930;stroke-width:1.0;" width="6" x="114.5" y="540.5859"/><text fill="#000000" font-family="sans-serif" font-size="14" lengthAdjust="spacing" text-decoration="underline" textLength="146" x="126.5" y="546.9326">Pre Launch Support()</text><rect fill="#F24D5C" height="6" style="stroke:#C82930;stroke-width:1.0;" width="6" x="114.5" y="556.8828"/><text fill="#000000" font-family="sans-serif" font-size="14" lengthAdjust="spacing" text-decoration="underline" textLength="80" x="126.5" y="563.2295">Shutdown()</text><ellipse cx="117.5" cy="576.1797" fill="#84BE84" rx="3" ry="3" style="stroke:#038048;stroke-width:1.0;"/><text fill="#000000" font-family="sans-serif" font-size="14" lengthAdjust="spacing" textLength="153" x="126.5" y="579.5264">Reset Manual Layout()</text><polygon fill="#FFFF44" points="117.5,587.4766,121.5,591.4766,117.5,595.4766,113.5,591.4766" style="stroke:#B38D22;stroke-width:1.0;"/><text fill="#000000" font-family="sans-serif" font-size="14" lengthAdjust="spacing" textLength="83" x="126.5" y="595.8232">Actor Core()</text><polygon fill="#FFFF44" points="117.5,603.7734,121.5,607.7734,117.5,611.7734,113.5,607.7734" style="stroke:#B38D22;stroke-width:1.0;"/><text fill="#000000" font-family="sans-serif" font-size="14" lengthAdjust="spacing" textLength="111" x="126.5" y="612.1201">Pre Launch Init()</text><polygon fill="#FFFF44" points="117.5,620.0703,121.5,624.0703,117.5,628.0703,113.5,624.0703" style="stroke:#B38D22;stroke-width:1.0;"/><text fill="#000000" font-family="sans-serif" font-size="14" lengthAdjust="spacing" textLength="79" x="126.5" y="628.417">Stop Core()</text></g><!--class Prime Panel--><g id="elem_Prime Panel"><rect fill="#FFFFFF" height="48" id="Prime Panel" rx="2.5" ry="2.5" style="stroke:#555555;stroke-width:0.5;" width="113" x="185.5" y="41"/><rect fill="#808080" height="32" rx="2.5" ry="2.5" style="stroke:#808080;stroke-width:0.5;" width="113" x="185.5" y="41"/><rect fill="#808080" height="2.5" style="stroke:#808080;stroke-width:0.5;" width="113" x="185.5" y="70.5"/><rect fill="none" height="48" id="Prime Panel" rx="2.5" ry="2.5" style="stroke:#555555;stroke-width:0.5;" width="113" x="185.5" y="41"/><ellipse cx="200.5" cy="57" fill="#ADD1B2" rx="11" ry="11" style="stroke:#181818;stroke-width:1.0;"/><path d="M203.4688,62.6406 Q202.8906,62.9375 202.25,63.0781 Q201.6094,63.2344 200.9063,63.2344 Q198.4063,63.2344 197.0781,61.5938 Q195.7656,59.9375 195.7656,56.8125 Q195.7656,53.6875 197.0781,52.0313 Q198.4063,50.375 200.9063,50.375 Q201.6094,50.375 202.25,50.5313 Q202.9063,50.6875 203.4688,50.9844 L203.4688,53.7031 Q202.8438,53.125 202.25,52.8594 Q201.6563,52.5781 201.0313,52.5781 Q199.6875,52.5781 199,53.6563 Q198.3125,54.7188 198.3125,56.8125 Q198.3125,58.9063 199,59.9844 Q199.6875,61.0469 201.0313,61.0469 Q201.6563,61.0469 202.25,60.7813 Q202.8438,60.5 203.4688,59.9219 L203.4688,62.6406 Z " fill="#000000"/><text fill="#000000" font-family="sans-serif" font-size="14" lengthAdjust="spacing" textLength="81" x="214.5" y="61.8467">Prime Panel</text><line style="stroke:#555555;stroke-width:0.5;" x1="186.5" x2="297.5" y1="73" y2="73"/><line style="stroke:#555555;stroke-width:0.5;" x1="186.5" x2="297.5" y1="81" y2="81"/></g><!--class Config--><g id="elem_Config"><rect fill="#FFFFFF" height="48" id="Config" rx="2.5" ry="2.5" style="stroke:#555555;stroke-width:0.5;" width="76" x="27" y="710.72"/><rect fill="#808080" height="32" rx="2.5" ry="2.5" style="stroke:#808080;stroke-width:0.5;" width="76" x="27" y="710.72"/><rect fill="#808080" height="2.5" style="stroke:#808080;stroke-width:0.5;" width="76" x="27" y="740.22"/><rect fill="none" height="48" id="Config" rx="2.5" ry="2.5" style="stroke:#555555;stroke-width:0.5;" width="76" x="27" y="710.72"/><ellipse cx="42" cy="726.72" fill="#ADD1B2" rx="11" ry="11" style="stroke:#181818;stroke-width:1.0;"/><path d="M44.9688,732.3606 Q44.3906,732.6575 43.75,732.7981 Q43.1094,732.9544 42.4063,732.9544 Q39.9063,732.9544 38.5781,731.3138 Q37.2656,729.6575 37.2656,726.5325 Q37.2656,723.4075 38.5781,721.7513 Q39.9063,720.095 42.4063,720.095 Q43.1094,720.095 43.75,720.2513 Q44.4063,720.4075 44.9688,720.7044 L44.9688,723.4231 Q44.3438,722.845 43.75,722.5794 Q43.1563,722.2981 42.5313,722.2981 Q41.1875,722.2981 40.5,723.3763 Q39.8125,724.4388 39.8125,726.5325 Q39.8125,728.6263 40.5,729.7044 Q41.1875,730.7669 42.5313,730.7669 Q43.1563,730.7669 43.75,730.5013 Q44.3438,730.22 44.9688,729.6419 L44.9688,732.3606 Z " fill="#000000"/><text fill="#000000" font-family="sans-serif" font-size="14" lengthAdjust="spacing" textLength="44" x="56" y="731.5667">Config</text><line style="stroke:#555555;stroke-width:0.5;" x1="28" x2="102" y1="742.72" y2="742.72"/><line style="stroke:#555555;stroke-width:0.5;" x1="28" x2="102" y1="750.72" y2="750.72"/></g><!--class Message Enqueuer--><g id="elem_Message Enqueuer"><rect fill="#FFFFFF" height="48" id="Message Enqueuer" rx="2.5" ry="2.5" style="stroke:#555555;stroke-width:0.5;" width="167" x="158.5" y="710.72"/><rect fill="#808080" height="32" rx="2.5" ry="2.5" style="stroke:#808080;stroke-width:0.5;" width="167" x="158.5" y="710.72"/><rect fill="#808080" height="2.5" style="stroke:#808080;stroke-width:0.5;" width="167" x="158.5" y="740.22"/><rect fill="none" height="48" id="Message Enqueuer" rx="2.5" ry="2.5" style="stroke:#555555;stroke-width:0.5;" width="167" x="158.5" y="710.72"/><ellipse cx="173.5" cy="726.72" fill="#ADD1B2" rx="11" ry="11" style="stroke:#181818;stroke-width:1.0;"/><path d="M176.4688,732.3606 Q175.8906,732.6575 175.25,732.7981 Q174.6094,732.9544 173.9063,732.9544 Q171.4063,732.9544 170.0781,731.3138 Q168.7656,729.6575 168.7656,726.5325 Q168.7656,723.4075 170.0781,721.7513 Q171.4063,720.095 173.9063,720.095 Q174.6094,720.095 175.25,720.2513 Q175.9063,720.4075 176.4688,720.7044 L176.4688,723.4231 Q175.8438,722.845 175.25,722.5794 Q174.6563,722.2981 174.0313,722.2981 Q172.6875,722.2981 172,723.3763 Q171.3125,724.4388 171.3125,726.5325 Q171.3125,728.6263 172,729.7044 Q172.6875,730.7669 174.0313,730.7669 Q174.6563,730.7669 175.25,730.5013 Q175.8438,730.22 176.4688,729.6419 L176.4688,732.3606 Z " fill="#000000"/><text fill="#000000" font-family="sans-serif" font-size="14" lengthAdjust="spacing" textLength="135" x="187.5" y="731.5667">Message Enqueuer</text><line style="stroke:#555555;stroke-width:0.5;" x1="159.5" x2="324.5" y1="742.72" y2="742.72"/><line style="stroke:#555555;stroke-width:0.5;" x1="159.5" x2="324.5" y1="750.72" y2="750.72"/></g><!--class Instruments--><g id="elem_Instruments"><rect fill="#FFFFFF" height="48" id="Instruments" rx="2.5" ry="2.5" style="stroke:#555555;stroke-width:0.5;" width="115" x="381.5" y="710.72"/><rect fill="#808080" height="32" rx="2.5" ry="2.5" style="stroke:#808080;stroke-width:0.5;" width="115" x="381.5" y="710.72"/><rect fill="#808080" height="2.5" style="stroke:#808080;stroke-width:0.5;" width="115" x="381.5" y="740.22"/><rect fill="none" height="48" id="Instruments" rx="2.5" ry="2.5" style="stroke:#555555;stroke-width:0.5;" width="115" x="381.5" y="710.72"/><ellipse cx="396.5" cy="726.72" fill="#ADD1B2" rx="11" ry="11" style="stroke:#181818;stroke-width:1.0;"/><path d="M399.4688,732.3606 Q398.8906,732.6575 398.25,732.7981 Q397.6094,732.9544 396.9063,732.9544 Q394.4063,732.9544 393.0781,731.3138 Q391.7656,729.6575 391.7656,726.5325 Q391.7656,723.4075 393.0781,721.7513 Q394.4063,720.095 396.9063,720.095 Q397.6094,720.095 398.25,720.2513 Q398.9063,720.4075 399.4688,720.7044 L399.4688,723.4231 Q398.8438,722.845 398.25,722.5794 Q397.6563,722.2981 397.0313,722.2981 Q395.6875,722.2981 395,723.3763 Q394.3125,724.4388 394.3125,726.5325 Q394.3125,728.6263 395,729.7044 Q395.6875,730.7669 397.0313,730.7669 Q397.6563,730.7669 398.25,730.5013 Q398.8438,730.22 399.4688,729.6419 L399.4688,732.3606 Z " fill="#000000"/><text fill="#000000" font-family="sans-serif" font-size="14" lengthAdjust="spacing" textLength="83" x="410.5" y="731.5667">Instruments</text><line style="stroke:#555555;stroke-width:0.5;" x1="382.5" x2="495.5" y1="742.72" y2="742.72"/><line style="stroke:#555555;stroke-width:0.5;" x1="382.5" x2="495.5" y1="750.72" y2="750.72"/></g><!--reverse link Prime Panel to Manual UI--><g id="link_Prime Panel_Manual UI"><path codeLine="37" d="M242,107.41 C242,125.16 242,133.6 242,163.66 " fill="none" id="Prime Panel-backto-Manual UI" style="stroke:#181818;stroke-width:1.0;"/><polygon fill="none" points="242,89.41,236,107.41,248,107.41,242,89.41" style="stroke:#181818;stroke-width:1.0;"/></g><!--reverse link Manual UI to Config--><g id="link_Manual UI_Config"><path codeLine="38" d="M111.2767,646.6956 C95.3267,676.6956 86.93,692.49 77.49,710.24 " fill="none" id="Manual UI-backto-Config" style="stroke:#181818;stroke-width:1.0;"/><polygon fill="#181818" points="116.91,636.1,110.5615,639.52,111.2767,646.6956,117.6252,643.2755,116.91,636.1" style="stroke:#181818;stroke-width:1.0;"/></g><!--reverse link Manual UI to Message Enqueuer--><g id="link_Manual UI_Message Enqueuer"><path codeLine="40" d="M242,648.1 C242,678.1 242,692.49 242,710.24 " fill="none" id="Manual UI-backto-Message Enqueuer" style="stroke:#181818;stroke-width:1.0;"/><polygon fill="none" points="242,636.1,238,642.1,242,648.1,246,642.1,242,636.1" style="stroke:#181818;stroke-width:1.0;"/></g><!--reverse link Manual UI to Instruments--><g id="link_Manual UI_Instruments"><path codeLine="41" d="M383.8611,640.5574 C403.0511,672.9874 413.92,691.35 425.11,710.25 " fill="none" id="Manual UI-backto-Instruments" style="stroke:#181818;stroke-width:1.0;"/><polygon fill="none" points="377.75,630.23,377.3631,637.4307,383.8611,640.5574,384.248,633.3567,377.75,630.23" style="stroke:#181818;stroke-width:1.0;"/></g><!--SRC=[bPHDZzem48Rl-HMZxAKVIhLgLQb2Us7JHKKAAcsqUv_40xWuTkgFNI7AVwyJ29WbGEie1tkUUUqPUyQG1OaLcHfBogb6ZLPf64HcoMKpgo0LQCmzbikvLawoL0aFt8pQSO8fpKZlaC_jU8sCbBGxuBOThu5lX5xZPCCljyqN1RHLjV-XKDQg2XZNL5gkP5GsAX1FK3eKy3Z-89u5BmRxUGphQ3tZ9DW6ahmMt5hI1WOmr1fNe6Qmp9w-5xywqptg0pz5IQ8FTaLh2fHTuRF19LewubFXZ5VTW-zJ9MTyxf7iQPk1qzF1L1dU17UaDFxqyQ0obiPgLv6q_RiPYvQN6rXNP1UgtNU1Saumz5bx9ZZultdRImjbGihqOnawMIx-cGkI12WP31dhvtyuqglhieyrQwGco2NatagzM98fPF0WiH340b78kB4NFAxaAF6d3oCwetGIUJ-N4shFpVpZlygcA4edciY_qWoTi73wSlez_vVtPf-cxfBvcKHCDS4-phfM-WoNBvnbwaKsrlqT_YJZkzAkN3DSAMT3-ur_i3udgT9qj1pisHriRykRNh7pY3PHFDMy8cWBTjiTwa6m5CFTdoIvr46YIztbNUExBUfEV3kBeuj-gl7R1ZVo_OrUb5vs0XCo1dsnFiZVZdmfnDULWbhfL88bVvQ_]--></g></svg>