<?xml version="1.0" encoding="us-ascii" standalone="no"?><svg xmlns="http://www.w3.org/2000/svg" xmlns:xlink="http://www.w3.org/1999/xlink" contentStyleType="text/css" height="423px" preserveAspectRatio="none" style="width:331px;height:423px;background:#FFFFFF;" version="1.1" viewBox="0 0 331 423" width="331px" zoomAndPan="magnify"><defs/><g><!--cluster Manual UI.lvlib--><g id="cluster_Manual UI.lvlib"><path d="M8.5,129 L120.5,129 A3.75,3.75 0 0 1 123,131.5 L130,151.2969 L309.5,151.2969 A2.5,2.5 0 0 1 312,153.7969 L312,290.69 A2.5,2.5 0 0 1 309.5,293.19 L8.5,293.19 A2.5,2.5 0 0 1 6,290.69 L6,131.5 A2.5,2.5 0 0 1 8.5,129 " fill="none" style="stroke:#000000;stroke-width:1.5;"/><line style="stroke:#000000;stroke-width:1.5;" x1="6" x2="130" y1="151.2969" y2="151.2969"/><text fill="#000000" font-family="sans-serif" font-size="14" font-weight="bold" lengthAdjust="spacing" textLength="111" x="10" y="143.9951">Manual UI.lvlib</text></g><!--cluster Actor Framework.lvlibp--><g id="cluster_Actor Framework.lvlibp"><path d="M62.5,6 L246.5,6 A3.75,3.75 0 0 1 249,8.5 L256,28.2969 L256.5,28.2969 A2.5,2.5 0 0 1 259,30.7969 L259,102.5 A2.5,2.5 0 0 1 256.5,105 L62.5,105 A2.5,2.5 0 0 1 60,102.5 L60,8.5 A2.5,2.5 0 0 1 62.5,6 " fill="none" style="stroke:#000000;stroke-width:1.5;"/><line style="stroke:#000000;stroke-width:1.5;" x1="60" x2="256" y1="28.2969" y2="28.2969"/><text fill="#000000" font-family="sans-serif" font-size="14" font-weight="bold" lengthAdjust="spacing" textLength="183" x="64" y="20.9951">Actor Framework.lvlibp</text></g><!--cluster Panel Manager.lvlibp--><g id="cluster_Panel Manager.lvlibp"><path d="M19.5,317.19 L182.5,317.19 A3.75,3.75 0 0 1 185,319.69 L192,339.4869 L192.5,339.4869 A2.5,2.5 0 0 1 195,341.9869 L195,413.69 A2.5,2.5 0 0 1 192.5,416.19 L19.5,416.19 A2.5,2.5 0 0 1 17,413.69 L17,319.69 A2.5,2.5 0 0 1 19.5,317.19 " fill="none" style="stroke:#000000;stroke-width:1.5;"/><line style="stroke:#000000;stroke-width:1.5;" x1="17" x2="192" y1="339.4869" y2="339.4869"/><text fill="#000000" font-family="sans-serif" font-size="14" font-weight="bold" lengthAdjust="spacing" textLength="162" x="21" y="332.1851">Panel Manager.lvlibp</text></g><!--cluster Panel.lvlibp--><g id="cluster_Panel.lvlibp"><path d="M221.5,317.19 L311.5,317.19 A3.75,3.75 0 0 1 314,319.69 L321,339.4869 L321.5,339.4869 A2.5,2.5 0 0 1 324,341.9869 L324,413.69 A2.5,2.5 0 0 1 321.5,416.19 L221.5,416.19 A2.5,2.5 0 0 1 219,413.69 L219,319.69 A2.5,2.5 0 0 1 221.5,317.19 " fill="none" style="stroke:#000000;stroke-width:1.5;"/><line style="stroke:#000000;stroke-width:1.5;" x1="219" x2="321" y1="339.4869" y2="339.4869"/><text fill="#000000" font-family="sans-serif" font-size="14" font-weight="bold" lengthAdjust="spacing" textLength="89" x="223" y="332.1851">Panel.lvlibp</text></g><!--class Launch Subordinate and Add Msg--><g id="elem_Launch Subordinate and Add Msg"><rect codeLine="8" fill="#FFFFFF" height="113.1875" id="Launch Subordinate and Add Msg" rx="2.5" ry="2.5" style="stroke:#555555;stroke-width:0.5;" width="275" x="21.5" y="164"/><rect fill="#808080" height="32" rx="2.5" ry="2.5" style="stroke:#808080;stroke-width:0.5;" width="275" x="21.5" y="164"/><rect fill="#808080" height="2.5" style="stroke:#808080;stroke-width:0.5;" width="275" x="21.5" y="193.5"/><rect codeLine="8" fill="none" height="113.1875" id="Launch Subordinate and Add Msg" rx="2.5" ry="2.5" style="stroke:#555555;stroke-width:0.5;" width="275" x="21.5" y="164"/><ellipse cx="41.45" cy="180" fill="#ADD1B2" rx="11" ry="11" style="stroke:#181818;stroke-width:1.0;"/><path d="M44.4188,185.6406 Q43.8406,185.9375 43.2,186.0781 Q42.5594,186.2344 41.8563,186.2344 Q39.3563,186.2344 38.0281,184.5938 Q36.7156,182.9375 36.7156,179.8125 Q36.7156,176.6875 38.0281,175.0313 Q39.3563,173.375 41.8563,173.375 Q42.5594,173.375 43.2,173.5313 Q43.8563,173.6875 44.4188,173.9844 L44.4188,176.7031 Q43.7938,176.125 43.2,175.8594 Q42.6063,175.5781 41.9813,175.5781 Q40.6375,175.5781 39.95,176.6563 Q39.2625,177.7188 39.2625,179.8125 Q39.2625,181.9063 39.95,182.9844 Q40.6375,184.0469 41.9813,184.0469 Q42.6063,184.0469 43.2,183.7813 Q43.7938,183.5 44.4188,182.9219 L44.4188,185.6406 Z " fill="#000000"/><text fill="#000000" font-family="sans-serif" font-size="14" lengthAdjust="spacing" textLength="232" x="56.55" y="184.8467">Launch Subordinate and Add Msg</text><line style="stroke:#555555;stroke-width:0.5;" x1="22.5" x2="295.5" y1="196" y2="196"/><rect fill="none" height="6" style="stroke:#C82930;stroke-width:1.0;" width="6" x="29.5" y="206.6484"/><text fill="#000000" font-family="sans-serif" font-size="14" lengthAdjust="spacing" textLength="112" x="41.5" y="212.9951">Identifier : String</text><rect fill="none" height="6" style="stroke:#C82930;stroke-width:1.0;" width="6" x="29.5" y="222.9453"/><text fill="#000000" font-family="sans-serif" font-size="14" lengthAdjust="spacing" textLength="166" x="41.5" y="229.292">Panel Definiton : Cluster</text><line style="stroke:#555555;stroke-width:0.5;" x1="22.5" x2="295.5" y1="236.5938" y2="236.5938"/><ellipse cx="32.5" cy="250.2422" fill="#84BE84" rx="3" ry="3" style="stroke:#038048;stroke-width:1.0;"/><text fill="#000000" font-family="sans-serif" font-size="14" lengthAdjust="spacing" text-decoration="underline" textLength="249" x="41.5" y="253.5889">Send Launch Subordinate and Add()</text><ellipse cx="32.5" cy="266.5391" fill="#84BE84" rx="3" ry="3" style="stroke:#038048;stroke-width:1.0;"/><text fill="#000000" font-family="sans-serif" font-size="14" lengthAdjust="spacing" textLength="30" x="41.5" y="269.8857">Do()</text></g><!--class Message--><g id="elem_Message"><rect fill="#FFFFFF" height="48" id="Message" rx="2.5" ry="2.5" style="stroke:#555555;stroke-width:0.5;" width="95" x="111.5" y="41"/><rect fill="#808080" height="32" rx="2.5" ry="2.5" style="stroke:#808080;stroke-width:0.5;" width="95" x="111.5" y="41"/><rect fill="#808080" height="2.5" style="stroke:#808080;stroke-width:0.5;" width="95" x="111.5" y="70.5"/><rect fill="none" height="48" id="Message" rx="2.5" ry="2.5" style="stroke:#555555;stroke-width:0.5;" width="95" x="111.5" y="41"/><ellipse cx="126.5" cy="57" fill="#ADD1B2" rx="11" ry="11" style="stroke:#181818;stroke-width:1.0;"/><path d="M129.4688,62.6406 Q128.8906,62.9375 128.25,63.0781 Q127.6094,63.2344 126.9063,63.2344 Q124.4063,63.2344 123.0781,61.5938 Q121.7656,59.9375 121.7656,56.8125 Q121.7656,53.6875 123.0781,52.0313 Q124.4063,50.375 126.9063,50.375 Q127.6094,50.375 128.25,50.5313 Q128.9063,50.6875 129.4688,50.9844 L129.4688,53.7031 Q128.8438,53.125 128.25,52.8594 Q127.6563,52.5781 127.0313,52.5781 Q125.6875,52.5781 125,53.6563 Q124.3125,54.7188 124.3125,56.8125 Q124.3125,58.9063 125,59.9844 Q125.6875,61.0469 127.0313,61.0469 Q127.6563,61.0469 128.25,60.7813 Q128.8438,60.5 129.4688,59.9219 L129.4688,62.6406 Z " fill="#000000"/><text fill="#000000" font-family="sans-serif" font-size="14" lengthAdjust="spacing" textLength="63" x="140.5" y="61.8467">Message</text><line style="stroke:#555555;stroke-width:0.5;" x1="112.5" x2="205.5" y1="73" y2="73"/><line style="stroke:#555555;stroke-width:0.5;" x1="112.5" x2="205.5" y1="81" y2="81"/></g><!--class Panel Actor--><g id="elem_Panel Actor"><rect fill="#FFFFFF" height="48" id="Panel Actor" rx="2.5" ry="2.5" style="stroke:#555555;stroke-width:0.5;" width="110" x="69" y="352.19"/><rect fill="#808080" height="32" rx="2.5" ry="2.5" style="stroke:#808080;stroke-width:0.5;" width="110" x="69" y="352.19"/><rect fill="#808080" height="2.5" style="stroke:#808080;stroke-width:0.5;" width="110" x="69" y="381.69"/><rect fill="none" height="48" id="Panel Actor" rx="2.5" ry="2.5" style="stroke:#555555;stroke-width:0.5;" width="110" x="69" y="352.19"/><ellipse cx="84" cy="368.19" fill="#ADD1B2" rx="11" ry="11" style="stroke:#181818;stroke-width:1.0;"/><path d="M86.9688,373.8306 Q86.3906,374.1275 85.75,374.2681 Q85.1094,374.4244 84.4063,374.4244 Q81.9063,374.4244 80.5781,372.7838 Q79.2656,371.1275 79.2656,368.0025 Q79.2656,364.8775 80.5781,363.2213 Q81.9063,361.565 84.4063,361.565 Q85.1094,361.565 85.75,361.7213 Q86.4063,361.8775 86.9688,362.1744 L86.9688,364.8931 Q86.3438,364.315 85.75,364.0494 Q85.1563,363.7681 84.5313,363.7681 Q83.1875,363.7681 82.5,364.8463 Q81.8125,365.9088 81.8125,368.0025 Q81.8125,370.0963 82.5,371.1744 Q83.1875,372.2369 84.5313,372.2369 Q85.1563,372.2369 85.75,371.9713 Q86.3438,371.69 86.9688,371.1119 L86.9688,373.8306 Z " fill="#000000"/><text fill="#000000" font-family="sans-serif" font-size="14" lengthAdjust="spacing" textLength="78" x="98" y="373.0367">Panel Actor</text><line style="stroke:#555555;stroke-width:0.5;" x1="70" x2="178" y1="384.19" y2="384.19"/><line style="stroke:#555555;stroke-width:0.5;" x1="70" x2="178" y1="392.19" y2="392.19"/></g><!--class Panel--><g id="elem_Panel"><rect fill="#FFFFFF" height="48" id="Panel" rx="2.5" ry="2.5" style="stroke:#555555;stroke-width:0.5;" width="70" x="235" y="352.19"/><rect fill="#808080" height="32" rx="2.5" ry="2.5" style="stroke:#808080;stroke-width:0.5;" width="70" x="235" y="352.19"/><rect fill="#808080" height="2.5" style="stroke:#808080;stroke-width:0.5;" width="70" x="235" y="381.69"/><rect fill="none" height="48" id="Panel" rx="2.5" ry="2.5" style="stroke:#555555;stroke-width:0.5;" width="70" x="235" y="352.19"/><ellipse cx="250" cy="368.19" fill="#ADD1B2" rx="11" ry="11" style="stroke:#181818;stroke-width:1.0;"/><path d="M252.9688,373.8306 Q252.3906,374.1275 251.75,374.2681 Q251.1094,374.4244 250.4063,374.4244 Q247.9063,374.4244 246.5781,372.7838 Q245.2656,371.1275 245.2656,368.0025 Q245.2656,364.8775 246.5781,363.2213 Q247.9063,361.565 250.4063,361.565 Q251.1094,361.565 251.75,361.7213 Q252.4063,361.8775 252.9688,362.1744 L252.9688,364.8931 Q252.3438,364.315 251.75,364.0494 Q251.1563,363.7681 250.5313,363.7681 Q249.1875,363.7681 248.5,364.8463 Q247.8125,365.9088 247.8125,368.0025 Q247.8125,370.0963 248.5,371.1744 Q249.1875,372.2369 250.5313,372.2369 Q251.1563,372.2369 251.75,371.9713 Q252.3438,371.69 252.9688,371.1119 L252.9688,373.8306 Z " fill="#000000"/><text fill="#000000" font-family="sans-serif" font-size="14" lengthAdjust="spacing" textLength="38" x="264" y="373.0367">Panel</text><line style="stroke:#555555;stroke-width:0.5;" x1="236" x2="304" y1="384.19" y2="384.19"/><line style="stroke:#555555;stroke-width:0.5;" x1="236" x2="304" y1="392.19" y2="392.19"/></g><!--reverse link Message to Launch Subordinate and Add Msg--><g id="link_Message_Launch Subordinate and Add Msg"><path codeLine="15" d="M159,107.33 C159,127.05 159,138.11 159,163.78 " fill="none" id="Message-backto-Launch Subordinate and Add Msg" style="stroke:#181818;stroke-width:1.0;"/><polygon fill="none" points="159,89.33,153,107.33,165,107.33,159,89.33" style="stroke:#181818;stroke-width:1.0;"/></g><!--reverse link Launch Subordinate and Add Msg to Panel Actor--><g id="link_Launch Subordinate and Add Msg_Panel Actor"><path codeLine="16" d="M143.6009,289.1794 C137.7309,314.9094 133.77,332.34 129.27,352.04 " fill="none" id="Launch Subordinate and Add Msg-backto-Panel Actor" style="stroke:#181818;stroke-width:1.0;"/><polygon fill="#181818" points="146.27,277.48,141.0357,282.44,143.6009,289.1794,148.8353,284.2194,146.27,277.48" style="stroke:#181818;stroke-width:1.0;"/></g><!--reverse link Launch Subordinate and Add Msg to Panel--><g id="link_Launch Subordinate and Add Msg_Panel"><path codeLine="17" d="M206.4177,287.2069 C225.0077,312.9369 239.03,332.34 253.27,352.04 " fill="none" id="Launch Subordinate and Add Msg-backto-Panel" style="stroke:#181818;stroke-width:1.0;"/><polygon fill="#181818" points="199.39,277.48,199.6616,284.686,206.4177,287.2069,206.1461,280.0009,199.39,277.48" style="stroke:#181818;stroke-width:1.0;"/></g><!--SRC=[fP7FQiCm3CRlVWgHNVQ7Zbu68-pIjPGL5XY4FO1ggwcf8mTRsGvPttrEsj6jfOSo6Hza__nzaXn9WB6csA2caXeCA3v0hkB6Sf_LC7KOupFgJHLyosRgNGAkvaESO3uO2dlaOOXZPEvPzi1uY6FWXJ1fd1W-ZlkbVj7YcxHXwKLy3SO6qc8zAzshG5OWj-ZWVN7lFfnTvg_Oibv3sIvJaPPH290DJ8o18bOPTAfRMN9c2wE58HQRiZG9A2LOhWwNRyZaO4OhorOy9sBgsYWKL1S5nUejT3N9sYVuhgHaSTxv-aOTs9bFgTggRABxFvYd7kdJXysk_YOlA4QiA8Edhz7eulxKnGEvxLrstQQdoJdyLB8x7Chyb-uVlKmfzGq0]--></g></svg>