<?xml version="1.0" encoding="us-ascii" standalone="no"?><svg xmlns="http://www.w3.org/2000/svg" xmlns:xlink="http://www.w3.org/1999/xlink" contentStyleType="text/css" height="300px" preserveAspectRatio="none" style="width:299px;height:300px;background:#FFFFFF;" version="1.1" viewBox="0 0 299 300" width="299px" zoomAndPan="magnify"><defs/><g><!--cluster Manual UI.lvlib--><g id="cluster_Manual UI.lvlib"><path d="M8.5,129 L120.5,129 A3.75,3.75 0 0 1 123,131.5 L130,151.2969 L289.5,151.2969 A2.5,2.5 0 0 1 292,153.7969 L292,290.69 A2.5,2.5 0 0 1 289.5,293.19 L8.5,293.19 A2.5,2.5 0 0 1 6,290.69 L6,131.5 A2.5,2.5 0 0 1 8.5,129 " fill="none" style="stroke:#000000;stroke-width:1.5;"/><line style="stroke:#000000;stroke-width:1.5;" x1="6" x2="130" y1="151.2969" y2="151.2969"/><text fill="#000000" font-family="sans-serif" font-size="14" font-weight="bold" lengthAdjust="spacing" textLength="111" x="10" y="143.9951">Manual UI.lvlib</text></g><!--cluster Actor Framework.lvlibp--><g id="cluster_Actor Framework.lvlibp"><path d="M52.5,6 L236.5,6 A3.75,3.75 0 0 1 239,8.5 L246,28.2969 L246.5,28.2969 A2.5,2.5 0 0 1 249,30.7969 L249,102.5 A2.5,2.5 0 0 1 246.5,105 L52.5,105 A2.5,2.5 0 0 1 50,102.5 L50,8.5 A2.5,2.5 0 0 1 52.5,6 " fill="none" style="stroke:#000000;stroke-width:1.5;"/><line style="stroke:#000000;stroke-width:1.5;" x1="50" x2="246" y1="28.2969" y2="28.2969"/><text fill="#000000" font-family="sans-serif" font-size="14" font-weight="bold" lengthAdjust="spacing" textLength="183" x="54" y="20.9951">Actor Framework.lvlibp</text></g><!--class Change Active Instrument Msg--><g id="elem_Change Active Instrument Msg"><rect codeLine="8" fill="#FFFFFF" height="113.1875" id="Change Active Instrument Msg" rx="2.5" ry="2.5" style="stroke:#555555;stroke-width:0.5;" width="254" x="22" y="164"/><rect fill="#808080" height="32" rx="2.5" ry="2.5" style="stroke:#808080;stroke-width:0.5;" width="254" x="22" y="164"/><rect fill="#808080" height="2.5" style="stroke:#808080;stroke-width:0.5;" width="254" x="22" y="193.5"/><rect codeLine="8" fill="none" height="113.1875" id="Change Active Instrument Msg" rx="2.5" ry="2.5" style="stroke:#555555;stroke-width:0.5;" width="254" x="22" y="164"/><ellipse cx="41.95" cy="180" fill="#ADD1B2" rx="11" ry="11" style="stroke:#181818;stroke-width:1.0;"/><path d="M44.9188,185.6406 Q44.3406,185.9375 43.7,186.0781 Q43.0594,186.2344 42.3563,186.2344 Q39.8563,186.2344 38.5281,184.5938 Q37.2156,182.9375 37.2156,179.8125 Q37.2156,176.6875 38.5281,175.0313 Q39.8563,173.375 42.3563,173.375 Q43.0594,173.375 43.7,173.5313 Q44.3563,173.6875 44.9188,173.9844 L44.9188,176.7031 Q44.2938,176.125 43.7,175.8594 Q43.1063,175.5781 42.4813,175.5781 Q41.1375,175.5781 40.45,176.6563 Q39.7625,177.7188 39.7625,179.8125 Q39.7625,181.9063 40.45,182.9844 Q41.1375,184.0469 42.4813,184.0469 Q43.1063,184.0469 43.7,183.7813 Q44.2938,183.5 44.9188,182.9219 L44.9188,185.6406 Z " fill="#000000"/><text fill="#000000" font-family="sans-serif" font-size="14" lengthAdjust="spacing" textLength="211" x="57.05" y="184.8467">Change Active Instrument Msg</text><line style="stroke:#555555;stroke-width:0.5;" x1="23" x2="275" y1="196" y2="196"/><rect fill="none" height="6" style="stroke:#C82930;stroke-width:1.0;" width="6" x="30" y="206.6484"/><text fill="#000000" font-family="sans-serif" font-size="14" lengthAdjust="spacing" textLength="112" x="42" y="212.9951">Identifier : String</text><rect fill="none" height="6" style="stroke:#C82930;stroke-width:1.0;" width="6" x="30" y="222.9453"/><text fill="#000000" font-family="sans-serif" font-size="14" lengthAdjust="spacing" textLength="72" x="42" y="229.292">Panel : I32</text><line style="stroke:#555555;stroke-width:0.5;" x1="23" x2="275" y1="236.5938" y2="236.5938"/><ellipse cx="33" cy="250.2422" fill="#84BE84" rx="3" ry="3" style="stroke:#038048;stroke-width:1.0;"/><text fill="#000000" font-family="sans-serif" font-size="14" lengthAdjust="spacing" text-decoration="underline" textLength="228" x="42" y="253.5889">Send Change Active Instrument()</text><ellipse cx="33" cy="266.5391" fill="#84BE84" rx="3" ry="3" style="stroke:#038048;stroke-width:1.0;"/><text fill="#000000" font-family="sans-serif" font-size="14" lengthAdjust="spacing" textLength="30" x="42" y="269.8857">Do()</text></g><!--class Message--><g id="elem_Message"><rect fill="#FFFFFF" height="48" id="Message" rx="2.5" ry="2.5" style="stroke:#555555;stroke-width:0.5;" width="95" x="101.5" y="41"/><rect fill="#808080" height="32" rx="2.5" ry="2.5" style="stroke:#808080;stroke-width:0.5;" width="95" x="101.5" y="41"/><rect fill="#808080" height="2.5" style="stroke:#808080;stroke-width:0.5;" width="95" x="101.5" y="70.5"/><rect fill="none" height="48" id="Message" rx="2.5" ry="2.5" style="stroke:#555555;stroke-width:0.5;" width="95" x="101.5" y="41"/><ellipse cx="116.5" cy="57" fill="#ADD1B2" rx="11" ry="11" style="stroke:#181818;stroke-width:1.0;"/><path d="M119.4688,62.6406 Q118.8906,62.9375 118.25,63.0781 Q117.6094,63.2344 116.9063,63.2344 Q114.4063,63.2344 113.0781,61.5938 Q111.7656,59.9375 111.7656,56.8125 Q111.7656,53.6875 113.0781,52.0313 Q114.4063,50.375 116.9063,50.375 Q117.6094,50.375 118.25,50.5313 Q118.9063,50.6875 119.4688,50.9844 L119.4688,53.7031 Q118.8438,53.125 118.25,52.8594 Q117.6563,52.5781 117.0313,52.5781 Q115.6875,52.5781 115,53.6563 Q114.3125,54.7188 114.3125,56.8125 Q114.3125,58.9063 115,59.9844 Q115.6875,61.0469 117.0313,61.0469 Q117.6563,61.0469 118.25,60.7813 Q118.8438,60.5 119.4688,59.9219 L119.4688,62.6406 Z " fill="#000000"/><text fill="#000000" font-family="sans-serif" font-size="14" lengthAdjust="spacing" textLength="63" x="130.5" y="61.8467">Message</text><line style="stroke:#555555;stroke-width:0.5;" x1="102.5" x2="195.5" y1="73" y2="73"/><line style="stroke:#555555;stroke-width:0.5;" x1="102.5" x2="195.5" y1="81" y2="81"/></g><!--reverse link Message to Change Active Instrument Msg--><g id="link_Message_Change Active Instrument Msg"><path codeLine="15" d="M149,107.33 C149,127.05 149,138.11 149,163.78 " fill="none" id="Message-backto-Change Active Instrument Msg" style="stroke:#181818;stroke-width:1.0;"/><polygon fill="none" points="149,89.33,143,107.33,155,107.33,149,89.33" style="stroke:#181818;stroke-width:1.0;"/></g><!--SRC=[bP31IiGm48RlUOgXNXIfB8eWnOjMYZqKXE83p3PZDpHDIZ9T3xNlxhGkhEpYmJ_ayCzypEHF90Q7FSK16wffm83i0sGgTiOjheVSOepFs7HjyAFJkRS2N1IhpZ0VD8K3Sh_g52cyumEmMNKAl1BAZBE53vlbg5yq-q4kR3spxq6RG0qRxrIpJ86aGZUYXVVonkwjsMRv3brBy2JGdg1qaSFOasEeOfl0fAOFGrRFa9PQgaQS_0FK78nhZyqtT6IbNjxTgYaoicbcc7hYdPVsTKrEmr-RBg_KaNpnOjMi4i4aNo69wDE7xkUrGrPHZDXI0ezVQVhFD4gfRm00]--></g></svg>