<?xml version="1.0" encoding="us-ascii" standalone="no"?><svg xmlns="http://www.w3.org/2000/svg" xmlns:xlink="http://www.w3.org/1999/xlink" contentStyleType="text/css" height="283px" preserveAspectRatio="none" style="width:257px;height:283px;background:#FFFFFF;" version="1.1" viewBox="0 0 257 283" width="257px" zoomAndPan="magnify"><defs/><g><!--cluster Manual UI.lvlib--><g id="cluster_Manual UI.lvlib"><path d="M8.5,129 L120.5,129 A3.75,3.75 0 0 1 123,131.5 L130,151.2969 L237.5,151.2969 A2.5,2.5 0 0 1 240,153.7969 L240,274.39 A2.5,2.5 0 0 1 237.5,276.89 L8.5,276.89 A2.5,2.5 0 0 1 6,274.39 L6,131.5 A2.5,2.5 0 0 1 8.5,129 " fill="none" style="stroke:#000000;stroke-width:1.5;"/><line style="stroke:#000000;stroke-width:1.5;" x1="6" x2="130" y1="151.2969" y2="151.2969"/><text fill="#000000" font-family="sans-serif" font-size="14" font-weight="bold" lengthAdjust="spacing" textLength="111" x="10" y="143.9951">Manual UI.lvlib</text></g><!--cluster Actor Framework.lvlibp--><g id="cluster_Actor Framework.lvlibp"><path d="M53.5,6 L237.5,6 A3.75,3.75 0 0 1 240,8.5 L247,28.2969 L247.5,28.2969 A2.5,2.5 0 0 1 250,30.7969 L250,102.5 A2.5,2.5 0 0 1 247.5,105 L53.5,105 A2.5,2.5 0 0 1 51,102.5 L51,8.5 A2.5,2.5 0 0 1 53.5,6 " fill="none" style="stroke:#000000;stroke-width:1.5;"/><line style="stroke:#000000;stroke-width:1.5;" x1="51" x2="247" y1="28.2969" y2="28.2969"/><text fill="#000000" font-family="sans-serif" font-size="14" font-weight="bold" lengthAdjust="spacing" textLength="183" x="55" y="20.9951">Actor Framework.lvlibp</text></g><!--class Update Main State Msg--><g id="elem_Update Main State Msg"><rect codeLine="8" fill="#FFFFFF" height="96.8906" id="Update Main State Msg" rx="2.5" ry="2.5" style="stroke:#555555;stroke-width:0.5;" width="202" x="22" y="164"/><rect fill="#808080" height="32" rx="2.5" ry="2.5" style="stroke:#808080;stroke-width:0.5;" width="202" x="22" y="164"/><rect fill="#808080" height="2.5" style="stroke:#808080;stroke-width:0.5;" width="202" x="22" y="193.5"/><rect codeLine="8" fill="none" height="96.8906" id="Update Main State Msg" rx="2.5" ry="2.5" style="stroke:#555555;stroke-width:0.5;" width="202" x="22" y="164"/><ellipse cx="41.95" cy="180" fill="#ADD1B2" rx="11" ry="11" style="stroke:#181818;stroke-width:1.0;"/><path d="M44.9188,185.6406 Q44.3406,185.9375 43.7,186.0781 Q43.0594,186.2344 42.3563,186.2344 Q39.8563,186.2344 38.5281,184.5938 Q37.2156,182.9375 37.2156,179.8125 Q37.2156,176.6875 38.5281,175.0313 Q39.8563,173.375 42.3563,173.375 Q43.0594,173.375 43.7,173.5313 Q44.3563,173.6875 44.9188,173.9844 L44.9188,176.7031 Q44.2938,176.125 43.7,175.8594 Q43.1063,175.5781 42.4813,175.5781 Q41.1375,175.5781 40.45,176.6563 Q39.7625,177.7188 39.7625,179.8125 Q39.7625,181.9063 40.45,182.9844 Q41.1375,184.0469 42.4813,184.0469 Q43.1063,184.0469 43.7,183.7813 Q44.2938,183.5 44.9188,182.9219 L44.9188,185.6406 Z " fill="#000000"/><text fill="#000000" font-family="sans-serif" font-size="14" lengthAdjust="spacing" textLength="159" x="57.05" y="184.8467">Update Main State Msg</text><line style="stroke:#555555;stroke-width:0.5;" x1="23" x2="223" y1="196" y2="196"/><rect fill="none" height="6" style="stroke:#C82930;stroke-width:1.0;" width="6" x="30" y="206.6484"/><text fill="#000000" font-family="sans-serif" font-size="14" lengthAdjust="spacing" textLength="124" x="42" y="212.9951">Loading : Boolean</text><line style="stroke:#555555;stroke-width:0.5;" x1="23" x2="223" y1="220.2969" y2="220.2969"/><ellipse cx="33" cy="233.9453" fill="#84BE84" rx="3" ry="3" style="stroke:#038048;stroke-width:1.0;"/><text fill="#000000" font-family="sans-serif" font-size="14" lengthAdjust="spacing" text-decoration="underline" textLength="176" x="42" y="237.292">Send Update Main State()</text><ellipse cx="33" cy="250.2422" fill="#84BE84" rx="3" ry="3" style="stroke:#038048;stroke-width:1.0;"/><text fill="#000000" font-family="sans-serif" font-size="14" lengthAdjust="spacing" textLength="30" x="42" y="253.5889">Do()</text></g><!--class Message--><g id="elem_Message"><rect fill="#FFFFFF" height="48" id="Message" rx="2.5" ry="2.5" style="stroke:#555555;stroke-width:0.5;" width="95" x="75.5" y="41"/><rect fill="#808080" height="32" rx="2.5" ry="2.5" style="stroke:#808080;stroke-width:0.5;" width="95" x="75.5" y="41"/><rect fill="#808080" height="2.5" style="stroke:#808080;stroke-width:0.5;" width="95" x="75.5" y="70.5"/><rect fill="none" height="48" id="Message" rx="2.5" ry="2.5" style="stroke:#555555;stroke-width:0.5;" width="95" x="75.5" y="41"/><ellipse cx="90.5" cy="57" fill="#ADD1B2" rx="11" ry="11" style="stroke:#181818;stroke-width:1.0;"/><path d="M93.4688,62.6406 Q92.8906,62.9375 92.25,63.0781 Q91.6094,63.2344 90.9063,63.2344 Q88.4063,63.2344 87.0781,61.5938 Q85.7656,59.9375 85.7656,56.8125 Q85.7656,53.6875 87.0781,52.0313 Q88.4063,50.375 90.9063,50.375 Q91.6094,50.375 92.25,50.5313 Q92.9063,50.6875 93.4688,50.9844 L93.4688,53.7031 Q92.8438,53.125 92.25,52.8594 Q91.6563,52.5781 91.0313,52.5781 Q89.6875,52.5781 89,53.6563 Q88.3125,54.7188 88.3125,56.8125 Q88.3125,58.9063 89,59.9844 Q89.6875,61.0469 91.0313,61.0469 Q91.6563,61.0469 92.25,60.7813 Q92.8438,60.5 93.4688,59.9219 L93.4688,62.6406 Z " fill="#000000"/><text fill="#000000" font-family="sans-serif" font-size="14" lengthAdjust="spacing" textLength="63" x="104.5" y="61.8467">Message</text><line style="stroke:#555555;stroke-width:0.5;" x1="76.5" x2="169.5" y1="73" y2="73"/><line style="stroke:#555555;stroke-width:0.5;" x1="76.5" x2="169.5" y1="81" y2="81"/></g><!--reverse link Message to Update Main State Msg--><g id="link_Message_Update Main State Msg"><path codeLine="14" d="M123,107.37 C123,127.36 123,138.78 123,163.73 " fill="none" id="Message-backto-Update Main State Msg" style="stroke:#181818;stroke-width:1.0;"/><polygon fill="none" points="123,89.37,117,107.37,129,107.37,123,89.37" style="stroke:#181818;stroke-width:1.0;"/></g><!--SRC=[ZP31IiH038RlUOfGBufKzY98yUAk50LxAli0sPdO7JgT33EpUgXzTwTrGTbU_4CWWOy_FucSqD70qPFYbZq5IXAmWjWRDsy3xYp5k2NLTq5EJk_4Pk2gNhJ296WEP-H-qILIYqjdOBFe4dXXoXwhWm-RkU0FdSJdneEa90Dg4rWb8mxKx895G-v45lUlT_R3caErzveIOqF6OPkMCNO5ZZ2-6xPwml9DI1lNOOLR4SlaO8mPD6h2SU1qb0pTjkmqhhokR-0NUPQymWJ5avgVMUUm_2cX_mdYguPZf8uBVFmgo_y61O1l]--></g></svg>