<?xml version="1.0" encoding="us-ascii" standalone="no"?><svg xmlns="http://www.w3.org/2000/svg" xmlns:xlink="http://www.w3.org/1999/xlink" contentStyleType="text/css" height="781px" preserveAspectRatio="none" style="width:2147px;height:781px;background:#FFFFFF;" version="1.1" viewBox="0 0 2147 781" width="2147px" zoomAndPan="magnify"><defs/><g><!--cluster Manual UI.lvlib--><g id="cluster_Manual UI.lvlib"><path d="M8.5,129 L120.5,129 A3.75,3.75 0 0 1 123,131.5 L130,151.2969 L2137.5,151.2969 A2.5,2.5 0 0 1 2140,153.7969 L2140,649.22 A2.5,2.5 0 0 1 2137.5,651.72 L8.5,651.72 A2.5,2.5 0 0 1 6,649.22 L6,131.5 A2.5,2.5 0 0 1 8.5,129 " fill="none" style="stroke:#000000;stroke-width:1.5;"/><line style="stroke:#000000;stroke-width:1.5;" x1="6" x2="130" y1="151.2969" y2="151.2969"/><text fill="#000000" font-family="sans-serif" font-size="14" font-weight="bold" lengthAdjust="spacing" textLength="111" x="10" y="143.9951">Manual UI.lvlib</text></g><!--cluster Actor Framework.lvlibp--><g id="cluster_Actor Framework.lvlibp"><path d="M983.5,6 L1167.5,6 A3.75,3.75 0 0 1 1170,8.5 L1177,28.2969 L1306.5,28.2969 A2.5,2.5 0 0 1 1309,30.7969 L1309,102.5 A2.5,2.5 0 0 1 1306.5,105 L983.5,105 A2.5,2.5 0 0 1 981,102.5 L981,8.5 A2.5,2.5 0 0 1 983.5,6 " fill="none" style="stroke:#000000;stroke-width:1.5;"/><line style="stroke:#000000;stroke-width:1.5;" x1="981" x2="1177" y1="28.2969" y2="28.2969"/><text fill="#000000" font-family="sans-serif" font-size="14" font-weight="bold" lengthAdjust="spacing" textLength="183" x="985" y="20.9951">Actor Framework.lvlibp</text></g><!--cluster Panel Manager.lvlibp--><g id="cluster_Panel Manager.lvlibp"><path d="M727.5,675.72 L890.5,675.72 A3.75,3.75 0 0 1 893,678.22 L900,698.0169 L900.5,698.0169 A2.5,2.5 0 0 1 903,700.5169 L903,772.22 A2.5,2.5 0 0 1 900.5,774.72 L727.5,774.72 A2.5,2.5 0 0 1 725,772.22 L725,678.22 A2.5,2.5 0 0 1 727.5,675.72 " fill="none" style="stroke:#000000;stroke-width:1.5;"/><line style="stroke:#000000;stroke-width:1.5;" x1="725" x2="900" y1="698.0169" y2="698.0169"/><text fill="#000000" font-family="sans-serif" font-size="14" font-weight="bold" lengthAdjust="spacing" textLength="162" x="729" y="690.7151">Panel Manager.lvlibp</text></g><!--cluster Panel.lvlibp--><g id="cluster_Panel.lvlibp"><path d="M929.5,675.72 L1019.5,675.72 A3.75,3.75 0 0 1 1022,678.22 L1029,698.0169 L1029.5,698.0169 A2.5,2.5 0 0 1 1032,700.5169 L1032,772.22 A2.5,2.5 0 0 1 1029.5,774.72 L929.5,774.72 A2.5,2.5 0 0 1 927,772.22 L927,678.22 A2.5,2.5 0 0 1 929.5,675.72 " fill="none" style="stroke:#000000;stroke-width:1.5;"/><line style="stroke:#000000;stroke-width:1.5;" x1="927" x2="1029" y1="698.0169" y2="698.0169"/><text fill="#000000" font-family="sans-serif" font-size="14" font-weight="bold" lengthAdjust="spacing" textLength="89" x="931" y="690.7151">Panel.lvlibp</text></g><!--cluster Prime Panel.lvlibp--><g id="cluster_Prime Panel.lvlibp"><path d="M1913.5,6 L2053.5,6 A3.75,3.75 0 0 1 2056,8.5 L2063,28.2969 L2063.5,28.2969 A2.5,2.5 0 0 1 2066,30.7969 L2066,102.5 A2.5,2.5 0 0 1 2063.5,105 L1913.5,105 A2.5,2.5 0 0 1 1911,102.5 L1911,8.5 A2.5,2.5 0 0 1 1913.5,6 " fill="none" style="stroke:#000000;stroke-width:1.5;"/><line style="stroke:#000000;stroke-width:1.5;" x1="1911" x2="2063" y1="28.2969" y2="28.2969"/><text fill="#000000" font-family="sans-serif" font-size="14" font-weight="bold" lengthAdjust="spacing" textLength="139" x="1915" y="20.9951">Prime Panel.lvlibp</text></g><!--cluster Config.lvlibp--><g id="cluster_Config.lvlibp"><path d="M1814.5,675.72 L1912.5,675.72 A3.75,3.75 0 0 1 1915,678.22 L1922,698.0169 L1922.5,698.0169 A2.5,2.5 0 0 1 1925,700.5169 L1925,772.22 A2.5,2.5 0 0 1 1922.5,774.72 L1814.5,774.72 A2.5,2.5 0 0 1 1812,772.22 L1812,678.22 A2.5,2.5 0 0 1 1814.5,675.72 " fill="none" style="stroke:#000000;stroke-width:1.5;"/><line style="stroke:#000000;stroke-width:1.5;" x1="1812" x2="1922" y1="698.0169" y2="698.0169"/><text fill="#000000" font-family="sans-serif" font-size="14" font-weight="bold" lengthAdjust="spacing" textLength="97" x="1816" y="690.7151">Config.lvlibp</text></g><!--cluster Instruments.lvlibp--><g id="cluster_Instruments.lvlibp"><path d="M1951.5,675.72 L2093.5,675.72 A3.75,3.75 0 0 1 2096,678.22 L2103,698.0169 L2103.5,698.0169 A2.5,2.5 0 0 1 2106,700.5169 L2106,772.22 A2.5,2.5 0 0 1 2103.5,774.72 L1951.5,774.72 A2.5,2.5 0 0 1 1949,772.22 L1949,678.22 A2.5,2.5 0 0 1 1951.5,675.72 " fill="none" style="stroke:#000000;stroke-width:1.5;"/><line style="stroke:#000000;stroke-width:1.5;" x1="1949" x2="2103" y1="698.0169" y2="698.0169"/><text fill="#000000" font-family="sans-serif" font-size="14" font-weight="bold" lengthAdjust="spacing" textLength="141" x="1953" y="690.7151">Instruments.lvlibp</text></g><!--class Change Active Instrument Msg--><g id="elem_Change Active Instrument Msg"><rect codeLine="8" fill="#FFFFFF" height="113.1875" id="Change Active Instrument Msg" rx="2.5" ry="2.5" style="stroke:#555555;stroke-width:0.5;" width="254" x="1563" y="343.27"/><rect fill="#808080" height="32" rx="2.5" ry="2.5" style="stroke:#808080;stroke-width:0.5;" width="254" x="1563" y="343.27"/><rect fill="#808080" height="2.5" style="stroke:#808080;stroke-width:0.5;" width="254" x="1563" y="372.77"/><rect codeLine="8" fill="none" height="113.1875" id="Change Active Instrument Msg" rx="2.5" ry="2.5" style="stroke:#555555;stroke-width:0.5;" width="254" x="1563" y="343.27"/><ellipse cx="1582.95" cy="359.27" fill="#ADD1B2" rx="11" ry="11" style="stroke:#181818;stroke-width:1.0;"/><path d="M1585.9188,364.9106 Q1585.3406,365.2075 1584.7,365.3481 Q1584.0594,365.5044 1583.3563,365.5044 Q1580.8563,365.5044 1579.5281,363.8638 Q1578.2156,362.2075 1578.2156,359.0825 Q1578.2156,355.9575 1579.5281,354.3013 Q1580.8563,352.645 1583.3563,352.645 Q1584.0594,352.645 1584.7,352.8013 Q1585.3563,352.9575 1585.9188,353.2544 L1585.9188,355.9731 Q1585.2938,355.395 1584.7,355.1294 Q1584.1063,354.8481 1583.4813,354.8481 Q1582.1375,354.8481 1581.45,355.9263 Q1580.7625,356.9888 1580.7625,359.0825 Q1580.7625,361.1763 1581.45,362.2544 Q1582.1375,363.3169 1583.4813,363.3169 Q1584.1063,363.3169 1584.7,363.0513 Q1585.2938,362.77 1585.9188,362.1919 L1585.9188,364.9106 Z " fill="#000000"/><text fill="#000000" font-family="sans-serif" font-size="14" lengthAdjust="spacing" textLength="211" x="1598.05" y="364.1167">Change Active Instrument Msg</text><line style="stroke:#555555;stroke-width:0.5;" x1="1564" x2="1816" y1="375.27" y2="375.27"/><rect fill="none" height="6" style="stroke:#C82930;stroke-width:1.0;" width="6" x="1571" y="385.9184"/><text fill="#000000" font-family="sans-serif" font-size="14" lengthAdjust="spacing" textLength="112" x="1583" y="392.2651">Identifier : String</text><rect fill="none" height="6" style="stroke:#C82930;stroke-width:1.0;" width="6" x="1571" y="402.2153"/><text fill="#000000" font-family="sans-serif" font-size="14" lengthAdjust="spacing" textLength="72" x="1583" y="408.562">Panel : I32</text><line style="stroke:#555555;stroke-width:0.5;" x1="1564" x2="1816" y1="415.8638" y2="415.8638"/><ellipse cx="1574" cy="429.5122" fill="#84BE84" rx="3" ry="3" style="stroke:#038048;stroke-width:1.0;"/><text fill="#000000" font-family="sans-serif" font-size="14" lengthAdjust="spacing" text-decoration="underline" textLength="228" x="1583" y="432.8589">Send Change Active Instrument()</text><ellipse cx="1574" cy="445.8091" fill="#84BE84" rx="3" ry="3" style="stroke:#038048;stroke-width:1.0;"/><text fill="#000000" font-family="sans-serif" font-size="14" lengthAdjust="spacing" textLength="30" x="1583" y="449.1557">Do()</text></g><!--class Close Instruments Msg--><g id="elem_Close Instruments Msg"><rect codeLine="18" fill="#FFFFFF" height="80.5938" id="Close Instruments Msg" rx="2.5" ry="2.5" style="stroke:#555555;stroke-width:0.5;" width="202" x="1326" y="359.56"/><rect fill="#808080" height="32" rx="2.5" ry="2.5" style="stroke:#808080;stroke-width:0.5;" width="202" x="1326" y="359.56"/><rect fill="#808080" height="2.5" style="stroke:#808080;stroke-width:0.5;" width="202" x="1326" y="389.06"/><rect codeLine="18" fill="none" height="80.5938" id="Close Instruments Msg" rx="2.5" ry="2.5" style="stroke:#555555;stroke-width:0.5;" width="202" x="1326" y="359.56"/><ellipse cx="1345.95" cy="375.56" fill="#ADD1B2" rx="11" ry="11" style="stroke:#181818;stroke-width:1.0;"/><path d="M1348.9188,381.2006 Q1348.3406,381.4975 1347.7,381.6381 Q1347.0594,381.7944 1346.3563,381.7944 Q1343.8563,381.7944 1342.5281,380.1538 Q1341.2156,378.4975 1341.2156,375.3725 Q1341.2156,372.2475 1342.5281,370.5913 Q1343.8563,368.935 1346.3563,368.935 Q1347.0594,368.935 1347.7,369.0913 Q1348.3563,369.2475 1348.9188,369.5444 L1348.9188,372.2631 Q1348.2938,371.685 1347.7,371.4194 Q1347.1063,371.1381 1346.4813,371.1381 Q1345.1375,371.1381 1344.45,372.2163 Q1343.7625,373.2788 1343.7625,375.3725 Q1343.7625,377.4663 1344.45,378.5444 Q1345.1375,379.6069 1346.4813,379.6069 Q1347.1063,379.6069 1347.7,379.3413 Q1348.2938,379.06 1348.9188,378.4819 L1348.9188,381.2006 Z " fill="#000000"/><text fill="#000000" font-family="sans-serif" font-size="14" lengthAdjust="spacing" textLength="159" x="1361.05" y="380.4067">Close Instruments Msg</text><line style="stroke:#555555;stroke-width:0.5;" x1="1327" x2="1527" y1="391.56" y2="391.56"/><line style="stroke:#555555;stroke-width:0.5;" x1="1327" x2="1527" y1="399.56" y2="399.56"/><ellipse cx="1337" cy="413.2084" fill="#84BE84" rx="3" ry="3" style="stroke:#038048;stroke-width:1.0;"/><text fill="#000000" font-family="sans-serif" font-size="14" lengthAdjust="spacing" text-decoration="underline" textLength="176" x="1346" y="416.5551">Send Close Instruments()</text><ellipse cx="1337" cy="429.5053" fill="#84BE84" rx="3" ry="3" style="stroke:#038048;stroke-width:1.0;"/><text fill="#000000" font-family="sans-serif" font-size="14" lengthAdjust="spacing" textLength="30" x="1346" y="432.852">Do()</text></g><!--class Launch Instruments Msg--><g id="elem_Launch Instruments Msg"><rect codeLine="26" fill="#FFFFFF" height="80.5938" id="Launch Instruments Msg" rx="2.5" ry="2.5" style="stroke:#555555;stroke-width:0.5;" width="213" x="1077.5" y="359.56"/><rect fill="#808080" height="32" rx="2.5" ry="2.5" style="stroke:#808080;stroke-width:0.5;" width="213" x="1077.5" y="359.56"/><rect fill="#808080" height="2.5" style="stroke:#808080;stroke-width:0.5;" width="213" x="1077.5" y="389.06"/><rect codeLine="26" fill="none" height="80.5938" id="Launch Instruments Msg" rx="2.5" ry="2.5" style="stroke:#555555;stroke-width:0.5;" width="213" x="1077.5" y="359.56"/><ellipse cx="1097.45" cy="375.56" fill="#ADD1B2" rx="11" ry="11" style="stroke:#181818;stroke-width:1.0;"/><path d="M1100.4188,381.2006 Q1099.8406,381.4975 1099.2,381.6381 Q1098.5594,381.7944 1097.8563,381.7944 Q1095.3563,381.7944 1094.0281,380.1538 Q1092.7156,378.4975 1092.7156,375.3725 Q1092.7156,372.2475 1094.0281,370.5913 Q1095.3563,368.935 1097.8563,368.935 Q1098.5594,368.935 1099.2,369.0913 Q1099.8563,369.2475 1100.4188,369.5444 L1100.4188,372.2631 Q1099.7938,371.685 1099.2,371.4194 Q1098.6063,371.1381 1097.9813,371.1381 Q1096.6375,371.1381 1095.95,372.2163 Q1095.2625,373.2788 1095.2625,375.3725 Q1095.2625,377.4663 1095.95,378.5444 Q1096.6375,379.6069 1097.9813,379.6069 Q1098.6063,379.6069 1099.2,379.3413 Q1099.7938,379.06 1100.4188,378.4819 L1100.4188,381.2006 Z " fill="#000000"/><text fill="#000000" font-family="sans-serif" font-size="14" lengthAdjust="spacing" textLength="170" x="1112.55" y="380.4067">Launch Instruments Msg</text><line style="stroke:#555555;stroke-width:0.5;" x1="1078.5" x2="1289.5" y1="391.56" y2="391.56"/><line style="stroke:#555555;stroke-width:0.5;" x1="1078.5" x2="1289.5" y1="399.56" y2="399.56"/><ellipse cx="1088.5" cy="413.2084" fill="#84BE84" rx="3" ry="3" style="stroke:#038048;stroke-width:1.0;"/><text fill="#000000" font-family="sans-serif" font-size="14" lengthAdjust="spacing" text-decoration="underline" textLength="187" x="1097.5" y="416.5551">Send Launch Instruments()</text><ellipse cx="1088.5" cy="429.5053" fill="#84BE84" rx="3" ry="3" style="stroke:#038048;stroke-width:1.0;"/><text fill="#000000" font-family="sans-serif" font-size="14" lengthAdjust="spacing" textLength="30" x="1097.5" y="432.852">Do()</text></g><!--class Launch Subordinate and Add Msg--><g id="elem_Launch Subordinate and Add Msg"><rect codeLine="34" fill="#FFFFFF" height="113.1875" id="Launch Subordinate and Add Msg" rx="2.5" ry="2.5" style="stroke:#555555;stroke-width:0.5;" width="275" x="767.5" y="343.27"/><rect fill="#808080" height="32" rx="2.5" ry="2.5" style="stroke:#808080;stroke-width:0.5;" width="275" x="767.5" y="343.27"/><rect fill="#808080" height="2.5" style="stroke:#808080;stroke-width:0.5;" width="275" x="767.5" y="372.77"/><rect codeLine="34" fill="none" height="113.1875" id="Launch Subordinate and Add Msg" rx="2.5" ry="2.5" style="stroke:#555555;stroke-width:0.5;" width="275" x="767.5" y="343.27"/><ellipse cx="787.45" cy="359.27" fill="#ADD1B2" rx="11" ry="11" style="stroke:#181818;stroke-width:1.0;"/><path d="M790.4188,364.9106 Q789.8406,365.2075 789.2,365.3481 Q788.5594,365.5044 787.8563,365.5044 Q785.3563,365.5044 784.0281,363.8638 Q782.7156,362.2075 782.7156,359.0825 Q782.7156,355.9575 784.0281,354.3013 Q785.3563,352.645 787.8563,352.645 Q788.5594,352.645 789.2,352.8013 Q789.8563,352.9575 790.4188,353.2544 L790.4188,355.9731 Q789.7938,355.395 789.2,355.1294 Q788.6063,354.8481 787.9813,354.8481 Q786.6375,354.8481 785.95,355.9263 Q785.2625,356.9888 785.2625,359.0825 Q785.2625,361.1763 785.95,362.2544 Q786.6375,363.3169 787.9813,363.3169 Q788.6063,363.3169 789.2,363.0513 Q789.7938,362.77 790.4188,362.1919 L790.4188,364.9106 Z " fill="#000000"/><text fill="#000000" font-family="sans-serif" font-size="14" lengthAdjust="spacing" textLength="232" x="802.55" y="364.1167">Launch Subordinate and Add Msg</text><line style="stroke:#555555;stroke-width:0.5;" x1="768.5" x2="1041.5" y1="375.27" y2="375.27"/><rect fill="none" height="6" style="stroke:#C82930;stroke-width:1.0;" width="6" x="775.5" y="385.9184"/><text fill="#000000" font-family="sans-serif" font-size="14" lengthAdjust="spacing" textLength="112" x="787.5" y="392.2651">Identifier : String</text><rect fill="none" height="6" style="stroke:#C82930;stroke-width:1.0;" width="6" x="775.5" y="402.2153"/><text fill="#000000" font-family="sans-serif" font-size="14" lengthAdjust="spacing" textLength="166" x="787.5" y="408.562">Panel Definiton : Cluster</text><line style="stroke:#555555;stroke-width:0.5;" x1="768.5" x2="1041.5" y1="415.8638" y2="415.8638"/><ellipse cx="778.5" cy="429.5122" fill="#84BE84" rx="3" ry="3" style="stroke:#038048;stroke-width:1.0;"/><text fill="#000000" font-family="sans-serif" font-size="14" lengthAdjust="spacing" text-decoration="underline" textLength="249" x="787.5" y="432.8589">Send Launch Subordinate and Add()</text><ellipse cx="778.5" cy="445.8091" fill="#84BE84" rx="3" ry="3" style="stroke:#038048;stroke-width:1.0;"/><text fill="#000000" font-family="sans-serif" font-size="14" lengthAdjust="spacing" textLength="30" x="787.5" y="449.1557">Do()</text></g><!--class Query Instruments Msg--><g id="elem_Query Instruments Msg"><rect codeLine="46" fill="#FFFFFF" height="96.8906" id="Query Instruments Msg" rx="2.5" ry="2.5" style="stroke:#555555;stroke-width:0.5;" width="219" x="513.5" y="351.42"/><rect fill="#808080" height="32" rx="2.5" ry="2.5" style="stroke:#808080;stroke-width:0.5;" width="219" x="513.5" y="351.42"/><rect fill="#808080" height="2.5" style="stroke:#808080;stroke-width:0.5;" width="219" x="513.5" y="380.92"/><rect codeLine="46" fill="none" height="96.8906" id="Query Instruments Msg" rx="2.5" ry="2.5" style="stroke:#555555;stroke-width:0.5;" width="219" x="513.5" y="351.42"/><ellipse cx="540.2" cy="367.42" fill="#ADD1B2" rx="11" ry="11" style="stroke:#181818;stroke-width:1.0;"/><path d="M543.1688,373.0606 Q542.5906,373.3575 541.95,373.4981 Q541.3094,373.6544 540.6063,373.6544 Q538.1063,373.6544 536.7781,372.0138 Q535.4656,370.3575 535.4656,367.2325 Q535.4656,364.1075 536.7781,362.4513 Q538.1063,360.795 540.6063,360.795 Q541.3094,360.795 541.95,360.9513 Q542.6063,361.1075 543.1688,361.4044 L543.1688,364.1231 Q542.5438,363.545 541.95,363.2794 Q541.3563,362.9981 540.7313,362.9981 Q539.3875,362.9981 538.7,364.0763 Q538.0125,365.1388 538.0125,367.2325 Q538.0125,369.3263 538.7,370.4044 Q539.3875,371.4669 540.7313,371.4669 Q541.3563,371.4669 541.95,371.2013 Q542.5438,370.92 543.1688,370.3419 L543.1688,373.0606 Z " fill="#000000"/><text fill="#000000" font-family="sans-serif" font-size="14" lengthAdjust="spacing" textLength="161" x="556.8" y="372.2667">Query Instruments Msg</text><line style="stroke:#555555;stroke-width:0.5;" x1="514.5" x2="731.5" y1="383.42" y2="383.42"/><rect fill="none" height="6" style="stroke:#C82930;stroke-width:1.0;" width="6" x="521.5" y="394.0684"/><text fill="#000000" font-family="sans-serif" font-size="14" lengthAdjust="spacing" textLength="193" x="533.5" y="400.4151">Instrument Notifier : NoType</text><line style="stroke:#555555;stroke-width:0.5;" x1="514.5" x2="731.5" y1="407.7169" y2="407.7169"/><ellipse cx="524.5" cy="421.3653" fill="#84BE84" rx="3" ry="3" style="stroke:#038048;stroke-width:1.0;"/><text fill="#000000" font-family="sans-serif" font-size="14" lengthAdjust="spacing" text-decoration="underline" textLength="178" x="533.5" y="424.712">Send Query Instruments()</text><ellipse cx="524.5" cy="437.6622" fill="#84BE84" rx="3" ry="3" style="stroke:#038048;stroke-width:1.0;"/><text fill="#000000" font-family="sans-serif" font-size="14" lengthAdjust="spacing" textLength="30" x="533.5" y="441.0089">Do()</text></g><!--class Reset Manual Layout Msg--><g id="elem_Reset Manual Layout Msg"><rect codeLine="55" fill="#FFFFFF" height="80.5938" id="Reset Manual Layout Msg" rx="2.5" ry="2.5" style="stroke:#555555;stroke-width:0.5;" width="219" x="259.5" y="359.56"/><rect fill="#808080" height="32" rx="2.5" ry="2.5" style="stroke:#808080;stroke-width:0.5;" width="219" x="259.5" y="359.56"/><rect fill="#808080" height="2.5" style="stroke:#808080;stroke-width:0.5;" width="219" x="259.5" y="389.06"/><rect codeLine="55" fill="none" height="80.5938" id="Reset Manual Layout Msg" rx="2.5" ry="2.5" style="stroke:#555555;stroke-width:0.5;" width="219" x="259.5" y="359.56"/><ellipse cx="279.45" cy="375.56" fill="#ADD1B2" rx="11" ry="11" style="stroke:#181818;stroke-width:1.0;"/><path d="M282.4188,381.2006 Q281.8406,381.4975 281.2,381.6381 Q280.5594,381.7944 279.8563,381.7944 Q277.3563,381.7944 276.0281,380.1538 Q274.7156,378.4975 274.7156,375.3725 Q274.7156,372.2475 276.0281,370.5913 Q277.3563,368.935 279.8563,368.935 Q280.5594,368.935 281.2,369.0913 Q281.8563,369.2475 282.4188,369.5444 L282.4188,372.2631 Q281.7938,371.685 281.2,371.4194 Q280.6063,371.1381 279.9813,371.1381 Q278.6375,371.1381 277.95,372.2163 Q277.2625,373.2788 277.2625,375.3725 Q277.2625,377.4663 277.95,378.5444 Q278.6375,379.6069 279.9813,379.6069 Q280.6063,379.6069 281.2,379.3413 Q281.7938,379.06 282.4188,378.4819 L282.4188,381.2006 Z " fill="#000000"/><text fill="#000000" font-family="sans-serif" font-size="14" lengthAdjust="spacing" textLength="176" x="294.55" y="380.4067">Reset Manual Layout Msg</text><line style="stroke:#555555;stroke-width:0.5;" x1="260.5" x2="477.5" y1="391.56" y2="391.56"/><line style="stroke:#555555;stroke-width:0.5;" x1="260.5" x2="477.5" y1="399.56" y2="399.56"/><ellipse cx="270.5" cy="413.2084" fill="#84BE84" rx="3" ry="3" style="stroke:#038048;stroke-width:1.0;"/><text fill="#000000" font-family="sans-serif" font-size="14" lengthAdjust="spacing" text-decoration="underline" textLength="193" x="279.5" y="416.5551">Send Reset Manual Layout()</text><ellipse cx="270.5" cy="429.5053" fill="#84BE84" rx="3" ry="3" style="stroke:#038048;stroke-width:1.0;"/><text fill="#000000" font-family="sans-serif" font-size="14" lengthAdjust="spacing" textLength="30" x="279.5" y="432.852">Do()</text></g><!--class Update Main State Msg--><g id="elem_Update Main State Msg"><rect codeLine="63" fill="#FFFFFF" height="96.8906" id="Update Main State Msg" rx="2.5" ry="2.5" style="stroke:#555555;stroke-width:0.5;" width="202" x="22" y="351.42"/><rect fill="#808080" height="32" rx="2.5" ry="2.5" style="stroke:#808080;stroke-width:0.5;" width="202" x="22" y="351.42"/><rect fill="#808080" height="2.5" style="stroke:#808080;stroke-width:0.5;" width="202" x="22" y="380.92"/><rect codeLine="63" fill="none" height="96.8906" id="Update Main State Msg" rx="2.5" ry="2.5" style="stroke:#555555;stroke-width:0.5;" width="202" x="22" y="351.42"/><ellipse cx="41.95" cy="367.42" fill="#ADD1B2" rx="11" ry="11" style="stroke:#181818;stroke-width:1.0;"/><path d="M44.9188,373.0606 Q44.3406,373.3575 43.7,373.4981 Q43.0594,373.6544 42.3563,373.6544 Q39.8563,373.6544 38.5281,372.0138 Q37.2156,370.3575 37.2156,367.2325 Q37.2156,364.1075 38.5281,362.4513 Q39.8563,360.795 42.3563,360.795 Q43.0594,360.795 43.7,360.9513 Q44.3563,361.1075 44.9188,361.4044 L44.9188,364.1231 Q44.2938,363.545 43.7,363.2794 Q43.1063,362.9981 42.4813,362.9981 Q41.1375,362.9981 40.45,364.0763 Q39.7625,365.1388 39.7625,367.2325 Q39.7625,369.3263 40.45,370.4044 Q41.1375,371.4669 42.4813,371.4669 Q43.1063,371.4669 43.7,371.2013 Q44.2938,370.92 44.9188,370.3419 L44.9188,373.0606 Z " fill="#000000"/><text fill="#000000" font-family="sans-serif" font-size="14" lengthAdjust="spacing" textLength="159" x="57.05" y="372.2667">Update Main State Msg</text><line style="stroke:#555555;stroke-width:0.5;" x1="23" x2="223" y1="383.42" y2="383.42"/><rect fill="none" height="6" style="stroke:#C82930;stroke-width:1.0;" width="6" x="30" y="394.0684"/><text fill="#000000" font-family="sans-serif" font-size="14" lengthAdjust="spacing" textLength="124" x="42" y="400.4151">Loading : Boolean</text><line style="stroke:#555555;stroke-width:0.5;" x1="23" x2="223" y1="407.7169" y2="407.7169"/><ellipse cx="33" cy="421.3653" fill="#84BE84" rx="3" ry="3" style="stroke:#038048;stroke-width:1.0;"/><text fill="#000000" font-family="sans-serif" font-size="14" lengthAdjust="spacing" text-decoration="underline" textLength="176" x="42" y="424.712">Send Update Main State()</text><ellipse cx="33" cy="437.6622" fill="#84BE84" rx="3" ry="3" style="stroke:#038048;stroke-width:1.0;"/><text fill="#000000" font-family="sans-serif" font-size="14" lengthAdjust="spacing" textLength="30" x="42" y="441.0089">Do()</text></g><!--class Manual UI--><g id="elem_Manual UI"><rect codeLine="72" fill="#FFFFFF" height="471.7188" id="Manual UI" rx="2.5" ry="2.5" style="stroke:#555555;stroke-width:0.5;" width="271" x="1852.5" y="164"/><rect fill="#808080" height="32" rx="2.5" ry="2.5" style="stroke:#808080;stroke-width:0.5;" width="271" x="1852.5" y="164"/><rect fill="#808080" height="2.5" style="stroke:#808080;stroke-width:0.5;" width="271" x="1852.5" y="193.5"/><rect codeLine="72" fill="none" height="471.7188" id="Manual UI" rx="2.5" ry="2.5" style="stroke:#555555;stroke-width:0.5;" width="271" x="1852.5" y="164"/><ellipse cx="1950.75" cy="180" fill="#ADD1B2" rx="11" ry="11" style="stroke:#181818;stroke-width:1.0;"/><path d="M1953.7188,185.6406 Q1953.1406,185.9375 1952.5,186.0781 Q1951.8594,186.2344 1951.1563,186.2344 Q1948.6563,186.2344 1947.3281,184.5938 Q1946.0156,182.9375 1946.0156,179.8125 Q1946.0156,176.6875 1947.3281,175.0313 Q1948.6563,173.375 1951.1563,173.375 Q1951.8594,173.375 1952.5,173.5313 Q1953.1563,173.6875 1953.7188,173.9844 L1953.7188,176.7031 Q1953.0938,176.125 1952.5,175.8594 Q1951.9063,175.5781 1951.2813,175.5781 Q1949.9375,175.5781 1949.25,176.6563 Q1948.5625,177.7188 1948.5625,179.8125 Q1948.5625,181.9063 1949.25,182.9844 Q1949.9375,184.0469 1951.2813,184.0469 Q1951.9063,184.0469 1952.5,183.7813 Q1953.0938,183.5 1953.7188,182.9219 L1953.7188,185.6406 Z " fill="#000000"/><text fill="#000000" font-family="sans-serif" font-size="14" lengthAdjust="spacing" textLength="66" x="1971.25" y="184.8467">Manual UI</text><line style="stroke:#555555;stroke-width:0.5;" x1="1853.5" x2="2122.5" y1="196" y2="196"/><rect fill="none" height="6" style="stroke:#C82930;stroke-width:1.0;" width="6" x="1860.5" y="206.6484"/><text fill="#000000" font-family="sans-serif" font-size="14" lengthAdjust="spacing" textLength="242" x="1872.5" y="212.9951">Splitters : Array of kLVObjSplitterBar</text><rect fill="none" height="6" style="stroke:#C82930;stroke-width:1.0;" width="6" x="1860.5" y="222.9453"/><text fill="#000000" font-family="sans-serif" font-size="14" lengthAdjust="spacing" textLength="226" x="1872.5" y="229.292">Panels : Array of kLVObjSubPanel</text><rect fill="none" height="6" style="stroke:#C82930;stroke-width:1.0;" width="6" x="1860.5" y="239.2422"/><text fill="#000000" font-family="sans-serif" font-size="14" lengthAdjust="spacing" textLength="209" x="1872.5" y="245.5889">Subordinates : Array of Cluster</text><ellipse cx="1863.5" cy="258.5391" fill="none" rx="3" ry="3" style="stroke:#038048;stroke-width:1.0;"/><text fill="#000000" font-family="sans-serif" font-size="14" lengthAdjust="spacing" textLength="114" x="1872.5" y="261.8857">Config : LV Class</text><rect fill="none" height="6" style="stroke:#C82930;stroke-width:1.0;" width="6" x="1860.5" y="271.8359"/><text fill="#000000" font-family="sans-serif" font-size="14" lengthAdjust="spacing" textLength="204" x="1872.5" y="278.1826">Splitter Positions : Array of I32</text><ellipse cx="1863.5" cy="291.1328" fill="none" rx="3" ry="3" style="stroke:#038048;stroke-width:1.0;"/><text fill="#000000" font-family="sans-serif" font-size="14" lengthAdjust="spacing" textLength="200" x="1872.5" y="294.4795">Instruments : Array of Cluster</text><line style="stroke:#555555;stroke-width:0.5;" x1="1853.5" x2="2122.5" y1="301.7813" y2="301.7813"/><ellipse cx="1863.5" cy="315.4297" fill="#84BE84" rx="3" ry="3" style="stroke:#038048;stroke-width:1.0;"/><text fill="#000000" font-family="sans-serif" font-size="14" lengthAdjust="spacing" text-decoration="underline" textLength="188" x="1872.5" y="318.7764">Change Active Instrument()</text><ellipse cx="1863.5" cy="331.7266" fill="#84BE84" rx="3" ry="3" style="stroke:#038048;stroke-width:1.0;"/><text fill="#000000" font-family="sans-serif" font-size="14" lengthAdjust="spacing" text-decoration="underline" textLength="136" x="1872.5" y="335.0732">Close Instruments()</text><ellipse cx="1863.5" cy="348.0234" fill="#84BE84" rx="3" ry="3" style="stroke:#038048;stroke-width:1.0;"/><text fill="#000000" font-family="sans-serif" font-size="14" lengthAdjust="spacing" text-decoration="underline" textLength="147" x="1872.5" y="351.3701">Launch Instruments()</text><ellipse cx="1863.5" cy="364.3203" fill="#84BE84" rx="3" ry="3" style="stroke:#038048;stroke-width:1.0;"/><text fill="#000000" font-family="sans-serif" font-size="14" lengthAdjust="spacing" text-decoration="underline" textLength="209" x="1872.5" y="367.667">Launch Subordinate and Add()</text><ellipse cx="1863.5" cy="380.6172" fill="#84BE84" rx="3" ry="3" style="stroke:#038048;stroke-width:1.0;"/><text fill="#000000" font-family="sans-serif" font-size="14" lengthAdjust="spacing" text-decoration="underline" textLength="138" x="1872.5" y="383.9639">Query Instruments()</text><ellipse cx="1863.5" cy="396.9141" fill="#84BE84" rx="3" ry="3" style="stroke:#038048;stroke-width:1.0;"/><text fill="#000000" font-family="sans-serif" font-size="14" lengthAdjust="spacing" text-decoration="underline" textLength="136" x="1872.5" y="400.2607">Update Main State()</text><rect fill="#F24D5C" height="6" style="stroke:#C82930;stroke-width:1.0;" width="6" x="1860.5" y="410.2109"/><text fill="#000000" font-family="sans-serif" font-size="14" lengthAdjust="spacing" text-decoration="underline" textLength="209" x="1872.5" y="416.5576">Load Enabled Instrument List()</text><rect fill="#F24D5C" height="6" style="stroke:#C82930;stroke-width:1.0;" width="6" x="1860.5" y="426.5078"/><text fill="#000000" font-family="sans-serif" font-size="14" lengthAdjust="spacing" text-decoration="underline" textLength="122" x="1872.5" y="432.8545">Load Instrument()</text><rect fill="#F24D5C" height="6" style="stroke:#C82930;stroke-width:1.0;" width="6" x="1860.5" y="442.8047"/><text fill="#000000" font-family="sans-serif" font-size="14" lengthAdjust="spacing" text-decoration="underline" textLength="125" x="1872.5" y="449.1514">Add Subordinate()</text><rect fill="#F24D5C" height="6" style="stroke:#C82930;stroke-width:1.0;" width="6" x="1860.5" y="459.1016"/><text fill="#000000" font-family="sans-serif" font-size="14" lengthAdjust="spacing" text-decoration="underline" textLength="148" x="1872.5" y="465.4482">Launch Subordinate()</text><rect fill="#F24D5C" height="6" style="stroke:#C82930;stroke-width:1.0;" width="6" x="1860.5" y="475.3984"/><text fill="#000000" font-family="sans-serif" font-size="14" lengthAdjust="spacing" text-decoration="underline" textLength="168" x="1872.5" y="481.7451">Search for Subordinate()</text><rect fill="#F24D5C" height="6" style="stroke:#C82930;stroke-width:1.0;" width="6" x="1860.5" y="491.6953"/><text fill="#000000" font-family="sans-serif" font-size="14" lengthAdjust="spacing" text-decoration="underline" textLength="245" x="1872.5" y="498.042">Calculate Default Splitter Positions()</text><rect fill="#F24D5C" height="6" style="stroke:#C82930;stroke-width:1.0;" width="6" x="1860.5" y="507.9922"/><text fill="#000000" font-family="sans-serif" font-size="14" lengthAdjust="spacing" text-decoration="underline" textLength="178" x="1872.5" y="514.3389">Default Splitter Positions()</text><rect fill="#F24D5C" height="6" style="stroke:#C82930;stroke-width:1.0;" width="6" x="1860.5" y="524.2891"/><text fill="#000000" font-family="sans-serif" font-size="14" lengthAdjust="spacing" text-decoration="underline" textLength="119" x="1872.5" y="530.6357">Post Launch Init()</text><rect fill="#F24D5C" height="6" style="stroke:#C82930;stroke-width:1.0;" width="6" x="1860.5" y="540.5859"/><text fill="#000000" font-family="sans-serif" font-size="14" lengthAdjust="spacing" text-decoration="underline" textLength="146" x="1872.5" y="546.9326">Pre Launch Support()</text><rect fill="#F24D5C" height="6" style="stroke:#C82930;stroke-width:1.0;" width="6" x="1860.5" y="556.8828"/><text fill="#000000" font-family="sans-serif" font-size="14" lengthAdjust="spacing" text-decoration="underline" textLength="80" x="1872.5" y="563.2295">Shutdown()</text><ellipse cx="1863.5" cy="576.1797" fill="#84BE84" rx="3" ry="3" style="stroke:#038048;stroke-width:1.0;"/><text fill="#000000" font-family="sans-serif" font-size="14" lengthAdjust="spacing" textLength="153" x="1872.5" y="579.5264">Reset Manual Layout()</text><polygon fill="#FFFF44" points="1863.5,587.4766,1867.5,591.4766,1863.5,595.4766,1859.5,591.4766" style="stroke:#B38D22;stroke-width:1.0;"/><text fill="#000000" font-family="sans-serif" font-size="14" lengthAdjust="spacing" textLength="83" x="1872.5" y="595.8232">Actor Core()</text><polygon fill="#FFFF44" points="1863.5,603.7734,1867.5,607.7734,1863.5,611.7734,1859.5,607.7734" style="stroke:#B38D22;stroke-width:1.0;"/><text fill="#000000" font-family="sans-serif" font-size="14" lengthAdjust="spacing" textLength="111" x="1872.5" y="612.1201">Pre Launch Init()</text><polygon fill="#FFFF44" points="1863.5,620.0703,1867.5,624.0703,1863.5,628.0703,1859.5,624.0703" style="stroke:#B38D22;stroke-width:1.0;"/><text fill="#000000" font-family="sans-serif" font-size="14" lengthAdjust="spacing" textLength="79" x="1872.5" y="628.417">Stop Core()</text></g><!--class Message--><g id="elem_Message"><rect fill="#FFFFFF" height="48" id="Message" rx="2.5" ry="2.5" style="stroke:#555555;stroke-width:0.5;" width="95" x="996.5" y="41"/><rect fill="#808080" height="32" rx="2.5" ry="2.5" style="stroke:#808080;stroke-width:0.5;" width="95" x="996.5" y="41"/><rect fill="#808080" height="2.5" style="stroke:#808080;stroke-width:0.5;" width="95" x="996.5" y="70.5"/><rect fill="none" height="48" id="Message" rx="2.5" ry="2.5" style="stroke:#555555;stroke-width:0.5;" width="95" x="996.5" y="41"/><ellipse cx="1011.5" cy="57" fill="#ADD1B2" rx="11" ry="11" style="stroke:#181818;stroke-width:1.0;"/><path d="M1014.4688,62.6406 Q1013.8906,62.9375 1013.25,63.0781 Q1012.6094,63.2344 1011.9063,63.2344 Q1009.4063,63.2344 1008.0781,61.5938 Q1006.7656,59.9375 1006.7656,56.8125 Q1006.7656,53.6875 1008.0781,52.0313 Q1009.4063,50.375 1011.9063,50.375 Q1012.6094,50.375 1013.25,50.5313 Q1013.9063,50.6875 1014.4688,50.9844 L1014.4688,53.7031 Q1013.8438,53.125 1013.25,52.8594 Q1012.6563,52.5781 1012.0313,52.5781 Q1010.6875,52.5781 1010,53.6563 Q1009.3125,54.7188 1009.3125,56.8125 Q1009.3125,58.9063 1010,59.9844 Q1010.6875,61.0469 1012.0313,61.0469 Q1012.6563,61.0469 1013.25,60.7813 Q1013.8438,60.5 1014.4688,59.9219 L1014.4688,62.6406 Z " fill="#000000"/><text fill="#000000" font-family="sans-serif" font-size="14" lengthAdjust="spacing" textLength="63" x="1025.5" y="61.8467">Message</text><line style="stroke:#555555;stroke-width:0.5;" x1="997.5" x2="1090.5" y1="73" y2="73"/><line style="stroke:#555555;stroke-width:0.5;" x1="997.5" x2="1090.5" y1="81" y2="81"/></g><!--class Message Enqueuer--><g id="elem_Message Enqueuer"><rect fill="#FFFFFF" height="48" id="Message Enqueuer" rx="2.5" ry="2.5" style="stroke:#555555;stroke-width:0.5;" width="167" x="1126.5" y="41"/><rect fill="#808080" height="32" rx="2.5" ry="2.5" style="stroke:#808080;stroke-width:0.5;" width="167" x="1126.5" y="41"/><rect fill="#808080" height="2.5" style="stroke:#808080;stroke-width:0.5;" width="167" x="1126.5" y="70.5"/><rect fill="none" height="48" id="Message Enqueuer" rx="2.5" ry="2.5" style="stroke:#555555;stroke-width:0.5;" width="167" x="1126.5" y="41"/><ellipse cx="1141.5" cy="57" fill="#ADD1B2" rx="11" ry="11" style="stroke:#181818;stroke-width:1.0;"/><path d="M1144.4688,62.6406 Q1143.8906,62.9375 1143.25,63.0781 Q1142.6094,63.2344 1141.9063,63.2344 Q1139.4063,63.2344 1138.0781,61.5938 Q1136.7656,59.9375 1136.7656,56.8125 Q1136.7656,53.6875 1138.0781,52.0313 Q1139.4063,50.375 1141.9063,50.375 Q1142.6094,50.375 1143.25,50.5313 Q1143.9063,50.6875 1144.4688,50.9844 L1144.4688,53.7031 Q1143.8438,53.125 1143.25,52.8594 Q1142.6563,52.5781 1142.0313,52.5781 Q1140.6875,52.5781 1140,53.6563 Q1139.3125,54.7188 1139.3125,56.8125 Q1139.3125,58.9063 1140,59.9844 Q1140.6875,61.0469 1142.0313,61.0469 Q1142.6563,61.0469 1143.25,60.7813 Q1143.8438,60.5 1144.4688,59.9219 L1144.4688,62.6406 Z " fill="#000000"/><text fill="#000000" font-family="sans-serif" font-size="14" lengthAdjust="spacing" textLength="135" x="1155.5" y="61.8467">Message Enqueuer</text><line style="stroke:#555555;stroke-width:0.5;" x1="1127.5" x2="1292.5" y1="73" y2="73"/><line style="stroke:#555555;stroke-width:0.5;" x1="1127.5" x2="1292.5" y1="81" y2="81"/></g><!--class Panel Actor--><g id="elem_Panel Actor"><rect fill="#FFFFFF" height="48" id="Panel Actor" rx="2.5" ry="2.5" style="stroke:#555555;stroke-width:0.5;" width="110" x="777" y="710.72"/><rect fill="#808080" height="32" rx="2.5" ry="2.5" style="stroke:#808080;stroke-width:0.5;" width="110" x="777" y="710.72"/><rect fill="#808080" height="2.5" style="stroke:#808080;stroke-width:0.5;" width="110" x="777" y="740.22"/><rect fill="none" height="48" id="Panel Actor" rx="2.5" ry="2.5" style="stroke:#555555;stroke-width:0.5;" width="110" x="777" y="710.72"/><ellipse cx="792" cy="726.72" fill="#ADD1B2" rx="11" ry="11" style="stroke:#181818;stroke-width:1.0;"/><path d="M794.9688,732.3606 Q794.3906,732.6575 793.75,732.7981 Q793.1094,732.9544 792.4063,732.9544 Q789.9063,732.9544 788.5781,731.3138 Q787.2656,729.6575 787.2656,726.5325 Q787.2656,723.4075 788.5781,721.7513 Q789.9063,720.095 792.4063,720.095 Q793.1094,720.095 793.75,720.2513 Q794.4063,720.4075 794.9688,720.7044 L794.9688,723.4231 Q794.3438,722.845 793.75,722.5794 Q793.1563,722.2981 792.5313,722.2981 Q791.1875,722.2981 790.5,723.3763 Q789.8125,724.4388 789.8125,726.5325 Q789.8125,728.6263 790.5,729.7044 Q791.1875,730.7669 792.5313,730.7669 Q793.1563,730.7669 793.75,730.5013 Q794.3438,730.22 794.9688,729.6419 L794.9688,732.3606 Z " fill="#000000"/><text fill="#000000" font-family="sans-serif" font-size="14" lengthAdjust="spacing" textLength="78" x="806" y="731.5667">Panel Actor</text><line style="stroke:#555555;stroke-width:0.5;" x1="778" x2="886" y1="742.72" y2="742.72"/><line style="stroke:#555555;stroke-width:0.5;" x1="778" x2="886" y1="750.72" y2="750.72"/></g><!--class Panel--><g id="elem_Panel"><rect fill="#FFFFFF" height="48" id="Panel" rx="2.5" ry="2.5" style="stroke:#555555;stroke-width:0.5;" width="70" x="943" y="710.72"/><rect fill="#808080" height="32" rx="2.5" ry="2.5" style="stroke:#808080;stroke-width:0.5;" width="70" x="943" y="710.72"/><rect fill="#808080" height="2.5" style="stroke:#808080;stroke-width:0.5;" width="70" x="943" y="740.22"/><rect fill="none" height="48" id="Panel" rx="2.5" ry="2.5" style="stroke:#555555;stroke-width:0.5;" width="70" x="943" y="710.72"/><ellipse cx="958" cy="726.72" fill="#ADD1B2" rx="11" ry="11" style="stroke:#181818;stroke-width:1.0;"/><path d="M960.9688,732.3606 Q960.3906,732.6575 959.75,732.7981 Q959.1094,732.9544 958.4063,732.9544 Q955.9063,732.9544 954.5781,731.3138 Q953.2656,729.6575 953.2656,726.5325 Q953.2656,723.4075 954.5781,721.7513 Q955.9063,720.095 958.4063,720.095 Q959.1094,720.095 959.75,720.2513 Q960.4063,720.4075 960.9688,720.7044 L960.9688,723.4231 Q960.3438,722.845 959.75,722.5794 Q959.1563,722.2981 958.5313,722.2981 Q957.1875,722.2981 956.5,723.3763 Q955.8125,724.4388 955.8125,726.5325 Q955.8125,728.6263 956.5,729.7044 Q957.1875,730.7669 958.5313,730.7669 Q959.1563,730.7669 959.75,730.5013 Q960.3438,730.22 960.9688,729.6419 L960.9688,732.3606 Z " fill="#000000"/><text fill="#000000" font-family="sans-serif" font-size="14" lengthAdjust="spacing" textLength="38" x="972" y="731.5667">Panel</text><line style="stroke:#555555;stroke-width:0.5;" x1="944" x2="1012" y1="742.72" y2="742.72"/><line style="stroke:#555555;stroke-width:0.5;" x1="944" x2="1012" y1="750.72" y2="750.72"/></g><!--class Prime Panel--><g id="elem_Prime Panel"><rect fill="#FFFFFF" height="48" id="Prime Panel" rx="2.5" ry="2.5" style="stroke:#555555;stroke-width:0.5;" width="113" x="1931.5" y="41"/><rect fill="#808080" height="32" rx="2.5" ry="2.5" style="stroke:#808080;stroke-width:0.5;" width="113" x="1931.5" y="41"/><rect fill="#808080" height="2.5" style="stroke:#808080;stroke-width:0.5;" width="113" x="1931.5" y="70.5"/><rect fill="none" height="48" id="Prime Panel" rx="2.5" ry="2.5" style="stroke:#555555;stroke-width:0.5;" width="113" x="1931.5" y="41"/><ellipse cx="1946.5" cy="57" fill="#ADD1B2" rx="11" ry="11" style="stroke:#181818;stroke-width:1.0;"/><path d="M1949.4688,62.6406 Q1948.8906,62.9375 1948.25,63.0781 Q1947.6094,63.2344 1946.9063,63.2344 Q1944.4063,63.2344 1943.0781,61.5938 Q1941.7656,59.9375 1941.7656,56.8125 Q1941.7656,53.6875 1943.0781,52.0313 Q1944.4063,50.375 1946.9063,50.375 Q1947.6094,50.375 1948.25,50.5313 Q1948.9063,50.6875 1949.4688,50.9844 L1949.4688,53.7031 Q1948.8438,53.125 1948.25,52.8594 Q1947.6563,52.5781 1947.0313,52.5781 Q1945.6875,52.5781 1945,53.6563 Q1944.3125,54.7188 1944.3125,56.8125 Q1944.3125,58.9063 1945,59.9844 Q1945.6875,61.0469 1947.0313,61.0469 Q1947.6563,61.0469 1948.25,60.7813 Q1948.8438,60.5 1949.4688,59.9219 L1949.4688,62.6406 Z " fill="#000000"/><text fill="#000000" font-family="sans-serif" font-size="14" lengthAdjust="spacing" textLength="81" x="1960.5" y="61.8467">Prime Panel</text><line style="stroke:#555555;stroke-width:0.5;" x1="1932.5" x2="2043.5" y1="73" y2="73"/><line style="stroke:#555555;stroke-width:0.5;" x1="1932.5" x2="2043.5" y1="81" y2="81"/></g><!--class Config--><g id="elem_Config"><rect fill="#FFFFFF" height="48" id="Config" rx="2.5" ry="2.5" style="stroke:#555555;stroke-width:0.5;" width="76" x="1833" y="710.72"/><rect fill="#808080" height="32" rx="2.5" ry="2.5" style="stroke:#808080;stroke-width:0.5;" width="76" x="1833" y="710.72"/><rect fill="#808080" height="2.5" style="stroke:#808080;stroke-width:0.5;" width="76" x="1833" y="740.22"/><rect fill="none" height="48" id="Config" rx="2.5" ry="2.5" style="stroke:#555555;stroke-width:0.5;" width="76" x="1833" y="710.72"/><ellipse cx="1848" cy="726.72" fill="#ADD1B2" rx="11" ry="11" style="stroke:#181818;stroke-width:1.0;"/><path d="M1850.9688,732.3606 Q1850.3906,732.6575 1849.75,732.7981 Q1849.1094,732.9544 1848.4063,732.9544 Q1845.9063,732.9544 1844.5781,731.3138 Q1843.2656,729.6575 1843.2656,726.5325 Q1843.2656,723.4075 1844.5781,721.7513 Q1845.9063,720.095 1848.4063,720.095 Q1849.1094,720.095 1849.75,720.2513 Q1850.4063,720.4075 1850.9688,720.7044 L1850.9688,723.4231 Q1850.3438,722.845 1849.75,722.5794 Q1849.1563,722.2981 1848.5313,722.2981 Q1847.1875,722.2981 1846.5,723.3763 Q1845.8125,724.4388 1845.8125,726.5325 Q1845.8125,728.6263 1846.5,729.7044 Q1847.1875,730.7669 1848.5313,730.7669 Q1849.1563,730.7669 1849.75,730.5013 Q1850.3438,730.22 1850.9688,729.6419 L1850.9688,732.3606 Z " fill="#000000"/><text fill="#000000" font-family="sans-serif" font-size="14" lengthAdjust="spacing" textLength="44" x="1862" y="731.5667">Config</text><line style="stroke:#555555;stroke-width:0.5;" x1="1834" x2="1908" y1="742.72" y2="742.72"/><line style="stroke:#555555;stroke-width:0.5;" x1="1834" x2="1908" y1="750.72" y2="750.72"/></g><!--class Instruments--><g id="elem_Instruments"><rect fill="#FFFFFF" height="48" id="Instruments" rx="2.5" ry="2.5" style="stroke:#555555;stroke-width:0.5;" width="115" x="1964.5" y="710.72"/><rect fill="#808080" height="32" rx="2.5" ry="2.5" style="stroke:#808080;stroke-width:0.5;" width="115" x="1964.5" y="710.72"/><rect fill="#808080" height="2.5" style="stroke:#808080;stroke-width:0.5;" width="115" x="1964.5" y="740.22"/><rect fill="none" height="48" id="Instruments" rx="2.5" ry="2.5" style="stroke:#555555;stroke-width:0.5;" width="115" x="1964.5" y="710.72"/><ellipse cx="1979.5" cy="726.72" fill="#ADD1B2" rx="11" ry="11" style="stroke:#181818;stroke-width:1.0;"/><path d="M1982.4688,732.3606 Q1981.8906,732.6575 1981.25,732.7981 Q1980.6094,732.9544 1979.9063,732.9544 Q1977.4063,732.9544 1976.0781,731.3138 Q1974.7656,729.6575 1974.7656,726.5325 Q1974.7656,723.4075 1976.0781,721.7513 Q1977.4063,720.095 1979.9063,720.095 Q1980.6094,720.095 1981.25,720.2513 Q1981.9063,720.4075 1982.4688,720.7044 L1982.4688,723.4231 Q1981.8438,722.845 1981.25,722.5794 Q1980.6563,722.2981 1980.0313,722.2981 Q1978.6875,722.2981 1978,723.3763 Q1977.3125,724.4388 1977.3125,726.5325 Q1977.3125,728.6263 1978,729.7044 Q1978.6875,730.7669 1980.0313,730.7669 Q1980.6563,730.7669 1981.25,730.5013 Q1981.8438,730.22 1982.4688,729.6419 L1982.4688,732.3606 Z " fill="#000000"/><text fill="#000000" font-family="sans-serif" font-size="14" lengthAdjust="spacing" textLength="83" x="1993.5" y="731.5667">Instruments</text><line style="stroke:#555555;stroke-width:0.5;" x1="1965.5" x2="2078.5" y1="742.72" y2="742.72"/><line style="stroke:#555555;stroke-width:0.5;" x1="1965.5" x2="2078.5" y1="750.72" y2="750.72"/></g><!--reverse link Message to Change Active Instrument Msg--><g id="link_Message_Change Active Instrument Msg"><path codeLine="15" d="M1082.8153,100.7595 C1094.1653,109.9395 1094.34,108.11 1109,113 C1132.03,120.69 1525.37,108.2 1546,121 C1624.71,169.85 1662.45,276.89 1678.88,342.93 " fill="none" id="Message-backto-Change Active Instrument Msg" style="stroke:#181818;stroke-width:1.0;"/><polygon fill="none" points="1068.82,89.44,1079.0421,105.4246,1086.5885,96.0944,1068.82,89.44" style="stroke:#181818;stroke-width:1.0;"/></g><!--reverse link Message to Close Instruments Msg--><g id="link_Message_Close Instruments Msg"><path codeLine="23" d="M1082.8934,100.5871 C1094.2434,109.7371 1094.39,107.95 1109,113 C1129.91,120.24 1289.78,108.45 1308,121 C1387.95,176.07 1414.49,296.66 1423.07,359.31 " fill="none" id="Message-backto-Close Instruments Msg" style="stroke:#181818;stroke-width:1.0;"/><polygon fill="none" points="1068.88,89.29,1079.1277,105.2583,1086.6591,95.916,1068.88,89.29" style="stroke:#181818;stroke-width:1.0;"/></g><!--reverse link Message to Launch Instruments Msg--><g id="link_Message_Launch Instruments Msg"><path codeLine="31" d="M1060.8212,106.001 C1084.5112,162.301 1137.89,289.24 1167.34,359.25 " fill="none" id="Message-backto-Launch Instruments Msg" style="stroke:#181818;stroke-width:1.0;"/><polygon fill="none" points="1053.84,89.41,1055.2909,108.3281,1066.3516,103.674,1053.84,89.41" style="stroke:#181818;stroke-width:1.0;"/></g><!--reverse link Message to Launch Subordinate and Add Msg--><g id="link_Message_Launch Subordinate and Add Msg"><path codeLine="41" d="M1027.2913,106.0189 C1005.4713,158.2489 959.25,268.95 928.34,342.98 " fill="none" id="Message-backto-Launch Subordinate and Add Msg" style="stroke:#181818;stroke-width:1.0;"/><polygon fill="none" points="1034.23,89.41,1021.7551,103.706,1032.8276,108.3318,1034.23,89.41" style="stroke:#181818;stroke-width:1.0;"/></g><!--reverse link Launch Subordinate and Add Msg to Panel Actor--><g id="link_Launch Subordinate and Add Msg_Panel Actor"><path codeLine="42" d="M890.1298,468.6715 C873.8798,542.7815 848.54,658.3 837.11,710.42 " fill="none" id="Launch Subordinate and Add Msg-backto-Panel Actor" style="stroke:#181818;stroke-width:1.0;"/><polygon fill="#181818" points="892.7,456.95,887.5077,461.954,890.1298,468.6715,895.3221,463.6675,892.7,456.95" style="stroke:#181818;stroke-width:1.0;"/></g><!--reverse link Launch Subordinate and Add Msg to Panel--><g id="link_Launch Subordinate and Add Msg_Panel"><path codeLine="43" d="M919.8702,468.6715 C936.1202,542.7815 961.46,658.3 972.89,710.42 " fill="none" id="Launch Subordinate and Add Msg-backto-Panel" style="stroke:#181818;stroke-width:1.0;"/><polygon fill="#181818" points="917.3,456.95,914.6779,463.6675,919.8702,468.6715,922.4923,461.954,917.3,456.95" style="stroke:#181818;stroke-width:1.0;"/></g><!--reverse link Message to Query Instruments Msg--><g id="link_Message_Query Instruments Msg"><path codeLine="52" d="M978.3188,71.1927 C905.1188,77.6127 787.64,91.58 750,121 C676.56,178.41 644.1,287.95 630.97,350.99 " fill="none" id="Message-backto-Query Instruments Msg" style="stroke:#181818;stroke-width:1.0;"/><polygon fill="none" points="996.25,69.62,977.7946,65.2156,978.843,77.1697,996.25,69.62" style="stroke:#181818;stroke-width:1.0;"/></g><!--reverse link Message to Reset Manual Layout Msg--><g id="link_Message_Reset Manual Layout Msg"><path codeLine="60" d="M978.3496,68.9303 C852.5296,74.8103 536.29,92.17 496,121 C416.42,177.94 385.58,297.13 374.56,359.27 " fill="none" id="Message-backto-Reset Manual Layout Msg" style="stroke:#181818;stroke-width:1.0;"/><polygon fill="none" points="996.33,68.09,978.0695,62.9368,978.6297,74.9237,996.33,68.09" style="stroke:#181818;stroke-width:1.0;"/></g><!--reverse link Message to Update Main State Msg--><g id="link_Message_Update Main State Msg"><path codeLine="69" d="M978.1611,66.6072 C814.7711,68.3972 303.49,77.35 242,121 C166.26,174.77 138.37,287.01 128.36,351.17 " fill="none" id="Message-backto-Update Main State Msg" style="stroke:#181818;stroke-width:1.0;"/><polygon fill="none" points="996.16,66.41,978.0954,60.6075,978.2268,72.6068,996.16,66.41" style="stroke:#181818;stroke-width:1.0;"/></g><!--reverse link Prime Panel to Manual UI--><g id="link_Prime Panel_Manual UI"><path codeLine="101" d="M1988,107.41 C1988,125.16 1988,133.6 1988,163.66 " fill="none" id="Prime Panel-backto-Manual UI" style="stroke:#181818;stroke-width:1.0;"/><polygon fill="none" points="1988,89.41,1982,107.41,1994,107.41,1988,89.41" style="stroke:#181818;stroke-width:1.0;"/></g><!--reverse link Manual UI to Config--><g id="link_Manual UI_Config"><path codeLine="102" d="M1901.3323,647.4216 C1890.7923,677.4216 1885.49,692.49 1879.25,710.24 " fill="none" id="Manual UI-backto-Config" style="stroke:#181818;stroke-width:1.0;"/><polygon fill="#181818" points="1905.31,636.1,1899.5473,640.4349,1901.3323,647.4216,1907.095,643.0867,1905.31,636.1" style="stroke:#181818;stroke-width:1.0;"/></g><!--reverse link Manual UI to Message Enqueuer--><g id="link_Manual UI_Message Enqueuer"><path codeLine="104" d="M1875.4513,154.6349 C1861.1413,138.3049 1852.99,132.73 1835,121 C1790.68,92.12 1453.77,75.4 1293.81,69.02 " fill="none" id="Manual UI-backto-Message Enqueuer" style="stroke:#181818;stroke-width:1.0;"/><polygon fill="none" points="1883.36,163.66,1882.414,156.5112,1875.4513,154.6349,1876.3973,161.7837,1883.36,163.66" style="stroke:#181818;stroke-width:1.0;"/></g><!--reverse link Manual UI to Instruments--><g id="link_Manual UI_Instruments"><path codeLine="105" d="M2013.2477,648.0381 C2016.3077,678.0381 2017.79,692.49 2019.6,710.24 " fill="none" id="Manual UI-backto-Instruments" style="stroke:#181818;stroke-width:1.0;"/><polygon fill="none" points="2012.03,636.1,2008.6595,642.4749,2013.2477,648.0381,2016.6182,641.6631,2012.03,636.1" style="stroke:#181818;stroke-width:1.0;"/></g><!--SRC=[jLRVRzem47xFNs7HbsqLKxLfqeJsqgQhXWGTMzQ-c-G03-FBRASLOltVTqc09CGcOcD1IB7ztVc- -na3bYc-0fFo6298kUOMDHi4PYbKlbgnK79ZRdYyd6lCL1AY9C35NV6qOAWJq5l8X-8vXDoXibl0LV4S0hu09nsj2pzUvR-WXhQOqfzDqLfSiKHeYAr05SIv5jORSvLnoHw6R-MJ5DD1kE1g3koQG4_0XifOdQr0MJOsynxR19kP09cyiFumeLr1A_83YwmMQbuTJhW2IVl3z- -2ZR7SYlY5RLPW5qZ7bn6eXFbkUlKwg92tIClW9UWHZFZT4IDuHhqihKq7Op26pw77Fltkzqza4mHU9qWqTRZPi_TnEHGuAmcdDNxhHpnJyU8KyziIvxJVOqydWIYRKg48nIqmJbPU9ydVPE4jp8GI5XKXGfaP2xhB4OwR_uD3VFo2anto9h-bP4kYTBFUML9k5cR-azw6lYEX-vQ1NZjJRn-ngWZlSH-wU_onJi4RbvRQSuR3RREVutSmD0-skoE-nins5PX3v9mCV1RvEJoaIHxjCHUAogPuFOZJ23cbn9nYSuCeWIilkPQkSr9p6-edjbyto4If59OAtn2TQwtvck6CBKUFNwS_TqStN1zq3XSucnP7DSrLxJJm-qwp1Lw6g6OYT-VeiPpWRUlO18t8XtD3Kp53TrhgMUgwhHsYOsFMWNODiZRCFJ2yE4y_RUETTTw6EJEk1IjIc7rMV2eXgG__aJ3sY4I7Z_fvUwmnycXgCNVZ8k2QS3CgZKvio6MSoPmvpJIUISlQcUEMF1LFnxRwAX0UHqmqL1CpJL5xSD4Yima-gqPVw6Y95sMx254tsib5xSwTOVkpAF_MtKha7MUYnGfOStvLMxwEKtMGu5XtAMPZMTGxvUMAcjCnESpbZlT2ojbV6L0fzBerrMfbfwMsHRRy0G00]--></g></svg>