<?xml version="1.0" encoding="us-ascii" standalone="no"?><svg xmlns="http://www.w3.org/2000/svg" xmlns:xlink="http://www.w3.org/1999/xlink" contentStyleType="text/css" height="283px" preserveAspectRatio="none" style="width:270px;height:283px;background:#FFFFFF;" version="1.1" viewBox="0 0 270 283" width="270px" zoomAndPan="magnify"><defs/><g><!--cluster Manual UI.lvlib--><g id="cluster_Manual UI.lvlib"><path d="M8.5,129 L120.5,129 A3.75,3.75 0 0 1 123,131.5 L130,151.2969 L255.5,151.2969 A2.5,2.5 0 0 1 258,153.7969 L258,274.39 A2.5,2.5 0 0 1 255.5,276.89 L8.5,276.89 A2.5,2.5 0 0 1 6,274.39 L6,131.5 A2.5,2.5 0 0 1 8.5,129 " fill="none" style="stroke:#000000;stroke-width:1.5;"/><line style="stroke:#000000;stroke-width:1.5;" x1="6" x2="130" y1="151.2969" y2="151.2969"/><text fill="#000000" font-family="sans-serif" font-size="14" font-weight="bold" lengthAdjust="spacing" textLength="111" x="10" y="143.9951">Manual UI.lvlib</text></g><!--cluster Actor Framework.lvlibp--><g id="cluster_Actor Framework.lvlibp"><path d="M66.5,6 L250.5,6 A3.75,3.75 0 0 1 253,8.5 L260,28.2969 L260.5,28.2969 A2.5,2.5 0 0 1 263,30.7969 L263,102.5 A2.5,2.5 0 0 1 260.5,105 L66.5,105 A2.5,2.5 0 0 1 64,102.5 L64,8.5 A2.5,2.5 0 0 1 66.5,6 " fill="none" style="stroke:#000000;stroke-width:1.5;"/><line style="stroke:#000000;stroke-width:1.5;" x1="64" x2="260" y1="28.2969" y2="28.2969"/><text fill="#000000" font-family="sans-serif" font-size="14" font-weight="bold" lengthAdjust="spacing" textLength="183" x="68" y="20.9951">Actor Framework.lvlibp</text></g><!--class Query Instruments Msg--><g id="elem_Query Instruments Msg"><rect codeLine="8" fill="#FFFFFF" height="96.8906" id="Query Instruments Msg" rx="2.5" ry="2.5" style="stroke:#555555;stroke-width:0.5;" width="219" x="22.5" y="164"/><rect fill="#808080" height="32" rx="2.5" ry="2.5" style="stroke:#808080;stroke-width:0.5;" width="219" x="22.5" y="164"/><rect fill="#808080" height="2.5" style="stroke:#808080;stroke-width:0.5;" width="219" x="22.5" y="193.5"/><rect codeLine="8" fill="none" height="96.8906" id="Query Instruments Msg" rx="2.5" ry="2.5" style="stroke:#555555;stroke-width:0.5;" width="219" x="22.5" y="164"/><ellipse cx="49.2" cy="180" fill="#ADD1B2" rx="11" ry="11" style="stroke:#181818;stroke-width:1.0;"/><path d="M52.1688,185.6406 Q51.5906,185.9375 50.95,186.0781 Q50.3094,186.2344 49.6063,186.2344 Q47.1063,186.2344 45.7781,184.5938 Q44.4656,182.9375 44.4656,179.8125 Q44.4656,176.6875 45.7781,175.0313 Q47.1063,173.375 49.6063,173.375 Q50.3094,173.375 50.95,173.5313 Q51.6063,173.6875 52.1688,173.9844 L52.1688,176.7031 Q51.5438,176.125 50.95,175.8594 Q50.3563,175.5781 49.7313,175.5781 Q48.3875,175.5781 47.7,176.6563 Q47.0125,177.7188 47.0125,179.8125 Q47.0125,181.9063 47.7,182.9844 Q48.3875,184.0469 49.7313,184.0469 Q50.3563,184.0469 50.95,183.7813 Q51.5438,183.5 52.1688,182.9219 L52.1688,185.6406 Z " fill="#000000"/><text fill="#000000" font-family="sans-serif" font-size="14" lengthAdjust="spacing" textLength="161" x="65.8" y="184.8467">Query Instruments Msg</text><line style="stroke:#555555;stroke-width:0.5;" x1="23.5" x2="240.5" y1="196" y2="196"/><rect fill="none" height="6" style="stroke:#C82930;stroke-width:1.0;" width="6" x="30.5" y="206.6484"/><text fill="#000000" font-family="sans-serif" font-size="14" lengthAdjust="spacing" textLength="193" x="42.5" y="212.9951">Instrument Notifier : NoType</text><line style="stroke:#555555;stroke-width:0.5;" x1="23.5" x2="240.5" y1="220.2969" y2="220.2969"/><ellipse cx="33.5" cy="233.9453" fill="#84BE84" rx="3" ry="3" style="stroke:#038048;stroke-width:1.0;"/><text fill="#000000" font-family="sans-serif" font-size="14" lengthAdjust="spacing" text-decoration="underline" textLength="178" x="42.5" y="237.292">Send Query Instruments()</text><ellipse cx="33.5" cy="250.2422" fill="#84BE84" rx="3" ry="3" style="stroke:#038048;stroke-width:1.0;"/><text fill="#000000" font-family="sans-serif" font-size="14" lengthAdjust="spacing" textLength="30" x="42.5" y="253.5889">Do()</text></g><!--class Message--><g id="elem_Message"><rect fill="#FFFFFF" height="48" id="Message" rx="2.5" ry="2.5" style="stroke:#555555;stroke-width:0.5;" width="95" x="84.5" y="41"/><rect fill="#808080" height="32" rx="2.5" ry="2.5" style="stroke:#808080;stroke-width:0.5;" width="95" x="84.5" y="41"/><rect fill="#808080" height="2.5" style="stroke:#808080;stroke-width:0.5;" width="95" x="84.5" y="70.5"/><rect fill="none" height="48" id="Message" rx="2.5" ry="2.5" style="stroke:#555555;stroke-width:0.5;" width="95" x="84.5" y="41"/><ellipse cx="99.5" cy="57" fill="#ADD1B2" rx="11" ry="11" style="stroke:#181818;stroke-width:1.0;"/><path d="M102.4688,62.6406 Q101.8906,62.9375 101.25,63.0781 Q100.6094,63.2344 99.9063,63.2344 Q97.4063,63.2344 96.0781,61.5938 Q94.7656,59.9375 94.7656,56.8125 Q94.7656,53.6875 96.0781,52.0313 Q97.4063,50.375 99.9063,50.375 Q100.6094,50.375 101.25,50.5313 Q101.9063,50.6875 102.4688,50.9844 L102.4688,53.7031 Q101.8438,53.125 101.25,52.8594 Q100.6563,52.5781 100.0313,52.5781 Q98.6875,52.5781 98,53.6563 Q97.3125,54.7188 97.3125,56.8125 Q97.3125,58.9063 98,59.9844 Q98.6875,61.0469 100.0313,61.0469 Q100.6563,61.0469 101.25,60.7813 Q101.8438,60.5 102.4688,59.9219 L102.4688,62.6406 Z " fill="#000000"/><text fill="#000000" font-family="sans-serif" font-size="14" lengthAdjust="spacing" textLength="63" x="113.5" y="61.8467">Message</text><line style="stroke:#555555;stroke-width:0.5;" x1="85.5" x2="178.5" y1="73" y2="73"/><line style="stroke:#555555;stroke-width:0.5;" x1="85.5" x2="178.5" y1="81" y2="81"/></g><!--reverse link Message to Query Instruments Msg--><g id="link_Message_Query Instruments Msg"><path codeLine="14" d="M132,107.37 C132,127.36 132,138.78 132,163.73 " fill="none" id="Message-backto-Query Instruments Msg" style="stroke:#181818;stroke-width:1.0;"/><polygon fill="none" points="132,89.37,126,107.37,138,107.37,132,89.37" style="stroke:#181818;stroke-width:1.0;"/></g><!--SRC=[ZP31IiGm48RlUOgXNXIfx4MGuaLNYdke8AiFC9lErj0q4vAfijI-ksbTMDbU_8T0PlBnvsSY2JZiA7hKj2MF0OK352gsnarT1skBCJwYRfl0lQlNR1DmKSvQO1ng2aVaTjOvKhAJ8x2QTGuy4oQFnOTtgwdK7rhOfmCx5k4EQXD8Ys6dzEG2MOMkHmllcnlxQSskUEqf763ZeeI-8oSHgjXaCAXXRyZM8-IdDtXXCMcSDf6kRmTFQeY2OlG8GqVomOc_tfAhOM5xUQLEo1EdLeqgUz3JNikKcxuujB-PV55HZDXG1lVVUVxVp4gf7m00]--></g></svg>