<?xml version="1.0" encoding="us-ascii" standalone="no"?><svg xmlns="http://www.w3.org/2000/svg" xmlns:xlink="http://www.w3.org/1999/xlink" contentStyleType="text/css" height="579px" preserveAspectRatio="none" style="width:693px;height:579px;background:#FFFFFF;" version="1.1" viewBox="0 0 693 579" width="693px" zoomAndPan="magnify"><defs/><g><!--cluster Configuration.lvlib--><g id="cluster_Configuration.lvlib"><path d="M8.5,196 L152.5,196 A3.75,3.75 0 0 1 155,198.5 L162,218.2969 L683.5,218.2969 A2.5,2.5 0 0 1 686,220.7969 L686,569.55 A2.5,2.5 0 0 1 683.5,572.05 L8.5,572.05 A2.5,2.5 0 0 1 6,569.55 L6,198.5 A2.5,2.5 0 0 1 8.5,196 " fill="none" style="stroke:#000000;stroke-width:1.5;"/><line style="stroke:#000000;stroke-width:1.5;" x1="6" x2="162" y1="218.2969" y2="218.2969"/><text fill="#000000" font-family="sans-serif" font-size="14" font-weight="bold" lengthAdjust="spacing" textLength="143" x="10" y="210.9951">Configuration.lvlib</text></g><!--cluster Engine.lvlibp--><g id="cluster_Engine.lvlibp"><path d="M239.5,6 L339.5,6 A3.75,3.75 0 0 1 342,8.5 L349,28.2969 L453.5,28.2969 A2.5,2.5 0 0 1 456,30.7969 L456,169.5 A2.5,2.5 0 0 1 453.5,172 L239.5,172 A2.5,2.5 0 0 1 237,169.5 L237,8.5 A2.5,2.5 0 0 1 239.5,6 " fill="none" style="stroke:#000000;stroke-width:1.5;"/><line style="stroke:#000000;stroke-width:1.5;" x1="237" x2="349" y1="28.2969" y2="28.2969"/><text fill="#000000" font-family="sans-serif" font-size="14" font-weight="bold" lengthAdjust="spacing" textLength="99" x="241" y="20.9951">Engine.lvlibp</text></g><!--cluster Managed Actor.lvlib--><g id="cluster_Managed Actor.lvlib"><path d="M263.5,49 L419.5,49 A3.75,3.75 0 0 1 422,51.5 L429,71.2969 L429.5,71.2969 A2.5,2.5 0 0 1 432,73.7969 L432,145.5 A2.5,2.5 0 0 1 429.5,148 L263.5,148 A2.5,2.5 0 0 1 261,145.5 L261,51.5 A2.5,2.5 0 0 1 263.5,49 " fill="none" style="stroke:#000000;stroke-width:1.5;"/><line style="stroke:#000000;stroke-width:1.5;" x1="261" x2="429" y1="71.2969" y2="71.2969"/><text fill="#000000" font-family="sans-serif" font-size="14" font-weight="bold" lengthAdjust="spacing" textLength="155" x="265" y="63.9951">Managed Actor.lvlib</text></g><!--class Configuration--><g id="elem_Configuration"><rect codeLine="8" fill="#FFFFFF" height="325.0469" id="Configuration" rx="2.5" ry="2.5" style="stroke:#555555;stroke-width:0.5;" width="648" x="22" y="231"/><rect fill="#808080" height="32" rx="2.5" ry="2.5" style="stroke:#808080;stroke-width:0.5;" width="648" x="22" y="231"/><rect fill="#808080" height="2.5" style="stroke:#808080;stroke-width:0.5;" width="648" x="22" y="260.5"/><rect codeLine="8" fill="none" height="325.0469" id="Configuration" rx="2.5" ry="2.5" style="stroke:#555555;stroke-width:0.5;" width="648" x="22" y="231"/><ellipse cx="295.75" cy="247" fill="#ADD1B2" rx="11" ry="11" style="stroke:#181818;stroke-width:1.0;"/><path d="M298.7188,252.6406 Q298.1406,252.9375 297.5,253.0781 Q296.8594,253.2344 296.1563,253.2344 Q293.6563,253.2344 292.3281,251.5937 Q291.0156,249.9375 291.0156,246.8125 Q291.0156,243.6875 292.3281,242.0312 Q293.6563,240.375 296.1563,240.375 Q296.8594,240.375 297.5,240.5312 Q298.1563,240.6875 298.7188,240.9844 L298.7188,243.7031 Q298.0938,243.125 297.5,242.8594 Q296.9063,242.5781 296.2813,242.5781 Q294.9375,242.5781 294.25,243.6562 Q293.5625,244.7187 293.5625,246.8125 Q293.5625,248.9062 294.25,249.9844 Q294.9375,251.0469 296.2813,251.0469 Q296.9063,251.0469 297.5,250.7812 Q298.0938,250.5 298.7188,249.9219 L298.7188,252.6406 Z " fill="#000000"/><text fill="#000000" font-family="sans-serif" font-size="14" lengthAdjust="spacing" textLength="92" x="316.25" y="251.8467">Configuration</text><line style="stroke:#555555;stroke-width:0.5;" x1="23" x2="669" y1="263" y2="263"/><rect fill="none" height="6" style="stroke:#C82930;stroke-width:1.0;" width="6" x="30" y="273.6484"/><text fill="#000000" font-family="sans-serif" font-size="14" lengthAdjust="spacing" textLength="119" x="42" y="279.9951">ConfigPath : Path</text><rect fill="none" height="6" style="stroke:#C82930;stroke-width:1.0;" width="6" x="30" y="289.9453"/><text fill="#000000" font-family="sans-serif" font-size="14" lengthAdjust="spacing" textLength="116" x="42" y="296.292">SignalPath : Path</text><ellipse cx="33" cy="309.2422" fill="none" rx="3" ry="3" style="stroke:#038048;stroke-width:1.0;"/><text fill="#000000" font-family="sans-serif" font-size="14" lengthAdjust="spacing" textLength="100" x="42" y="312.5889">Device : String</text><rect fill="none" height="6" style="stroke:#C82930;stroke-width:1.0;" width="6" x="30" y="322.5391"/><text fill="#000000" font-family="sans-serif" font-size="14" lengthAdjust="spacing" textLength="622" x="42" y="328.8857">Definitions : Map Collection (key: String - Value: Map Collection (key: String - Value: String))</text><rect fill="none" height="6" style="stroke:#C82930;stroke-width:1.0;" width="6" x="30" y="338.8359"/><text fill="#000000" font-family="sans-serif" font-size="14" lengthAdjust="spacing" textLength="201" x="42" y="345.1826">RawSignalList : Array of String</text><ellipse cx="33" cy="358.1328" fill="none" rx="3" ry="3" style="stroke:#038048;stroke-width:1.0;"/><text fill="#000000" font-family="sans-serif" font-size="14" lengthAdjust="spacing" textLength="204" x="42" y="361.4795">DeviceSignals : Array of String</text><rect fill="none" height="6" style="stroke:#C82930;stroke-width:1.0;" width="6" x="30" y="371.4297"/><text fill="#000000" font-family="sans-serif" font-size="14" lengthAdjust="spacing" textLength="100" x="42" y="377.7764">Start Row : I32</text><rect fill="none" height="6" style="stroke:#C82930;stroke-width:1.0;" width="6" x="30" y="387.7266"/><text fill="#000000" font-family="sans-serif" font-size="14" lengthAdjust="spacing" textLength="116" x="42" y="394.0732">Row Length : I32</text><rect fill="none" height="6" style="stroke:#C82930;stroke-width:1.0;" width="6" x="30" y="404.0234"/><text fill="#000000" font-family="sans-serif" font-size="14" lengthAdjust="spacing" textLength="139" x="42" y="410.3701">Column Length : I32</text><ellipse cx="33" cy="423.3203" fill="none" rx="3" ry="3" style="stroke:#038048;stroke-width:1.0;"/><text fill="#000000" font-family="sans-serif" font-size="14" lengthAdjust="spacing" textLength="178" x="42" y="426.667">DeviceList : Array of String</text><line style="stroke:#555555;stroke-width:0.5;" x1="23" x2="669" y1="433.9687" y2="433.9687"/><ellipse cx="33" cy="447.6172" fill="#84BE84" rx="3" ry="3" style="stroke:#038048;stroke-width:1.0;"/><text fill="#000000" font-family="sans-serif" font-size="14" lengthAdjust="spacing" text-decoration="underline" textLength="160" x="42" y="450.9639">Refresh Configuration()</text><rect fill="#F24D5C" height="6" style="stroke:#C82930;stroke-width:1.0;" width="6" x="30" y="460.9141"/><text fill="#000000" font-family="sans-serif" font-size="14" lengthAdjust="spacing" text-decoration="underline" textLength="164" x="42" y="467.2607">Find Table Boundaries()</text><rect fill="#F24D5C" height="6" style="stroke:#C82930;stroke-width:1.0;" width="6" x="30" y="477.2109"/><text fill="#000000" font-family="sans-serif" font-size="14" lengthAdjust="spacing" text-decoration="underline" textLength="139" x="42" y="483.5576">Load Configuration()</text><rect fill="#F24D5C" height="6" style="stroke:#C82930;stroke-width:1.0;" width="6" x="30" y="493.5078"/><text fill="#000000" font-family="sans-serif" font-size="14" lengthAdjust="spacing" text-decoration="underline" textLength="115" x="42" y="499.8545">Load Signal List()</text><rect fill="#F24D5C" height="6" style="stroke:#C82930;stroke-width:1.0;" width="6" x="30" y="509.8047"/><text fill="#000000" font-family="sans-serif" font-size="14" lengthAdjust="spacing" text-decoration="underline" textLength="131" x="42" y="516.1514">Select Device List()</text><ellipse cx="33" cy="529.1016" fill="#84BE84" rx="3" ry="3" style="stroke:#038048;stroke-width:1.0;"/><text fill="#000000" font-family="sans-serif" font-size="14" lengthAdjust="spacing" textLength="64" x="42" y="532.4482">Initialize()</text><ellipse cx="33" cy="545.3984" fill="#84BE84" rx="3" ry="3" style="stroke:#038048;stroke-width:1.0;"/><text fill="#000000" font-family="sans-serif" font-size="14" lengthAdjust="spacing" textLength="121" x="42" y="548.7451">Parse Signal List()</text></g><!--class Managed Actor--><g id="elem_Managed Actor"><rect fill="#FFFFFF" height="48" id="Managed Actor" rx="2.5" ry="2.5" style="stroke:#555555;stroke-width:0.5;" width="136" x="278" y="84"/><rect fill="#808080" height="32" rx="2.5" ry="2.5" style="stroke:#808080;stroke-width:0.5;" width="136" x="278" y="84"/><rect fill="#808080" height="2.5" style="stroke:#808080;stroke-width:0.5;" width="136" x="278" y="113.5"/><rect fill="none" height="48" id="Managed Actor" rx="2.5" ry="2.5" style="stroke:#555555;stroke-width:0.5;" width="136" x="278" y="84"/><ellipse cx="293" cy="100" fill="#ADD1B2" rx="11" ry="11" style="stroke:#181818;stroke-width:1.0;"/><path d="M295.9688,105.6406 Q295.3906,105.9375 294.75,106.0781 Q294.1094,106.2344 293.4063,106.2344 Q290.9063,106.2344 289.5781,104.5937 Q288.2656,102.9375 288.2656,99.8125 Q288.2656,96.6875 289.5781,95.0312 Q290.9063,93.375 293.4063,93.375 Q294.1094,93.375 294.75,93.5312 Q295.4063,93.6875 295.9688,93.9844 L295.9688,96.7031 Q295.3438,96.125 294.75,95.8594 Q294.1563,95.5781 293.5313,95.5781 Q292.1875,95.5781 291.5,96.6562 Q290.8125,97.7187 290.8125,99.8125 Q290.8125,101.9062 291.5,102.9844 Q292.1875,104.0469 293.5313,104.0469 Q294.1563,104.0469 294.75,103.7812 Q295.3438,103.5 295.9688,102.9219 L295.9688,105.6406 Z " fill="#000000"/><text fill="#000000" font-family="sans-serif" font-size="14" lengthAdjust="spacing" textLength="104" x="307" y="104.8467">Managed Actor</text><line style="stroke:#555555;stroke-width:0.5;" x1="279" x2="413" y1="116" y2="116"/><line style="stroke:#555555;stroke-width:0.5;" x1="279" x2="413" y1="124" y2="124"/></g><!--reverse link Managed Actor to Configuration--><g id="link_Managed Actor_Configuration"><path codeLine="28" d="M346,150.21 C346,172.95 346,191.79 346,230.7 " fill="none" id="Managed Actor-backto-Configuration" style="stroke:#181818;stroke-width:1.0;"/><polygon fill="none" points="346,132.21,340,150.21,352,150.21,346,132.21" style="stroke:#181818;stroke-width:1.0;"/></g><!--SRC=[ZPDHQy8m4CVVyoaEzwACZh4n6BANwIOJ5CIElP_jjGRJf2HHSSxllgIjqtRTCAMKtFrozx_SrP05YHcP72CAAKUDLcdeCxFYqkyo60eqPe3HAjLgBUEX4Wwu6XNh5wPqJBf27ehLH4PAsWguBLOJU2DqCNubVBpr3pkZhShT2mjbhSeWvfeYovLaaOy2dQ6I2K_NhY1dl14RmHVzcgq3UxPFE8du047fcQ5TGX_yv-GAUIfHjBckNsZ38tBcq6ekqzEP5qguv3wBSTufvk3A4AL0wAveTpm20NoWMDE5KBdlzKwPvhWj1KwuiIxNizQu0vKq9LLQIzRy0mQXHMrXhhOE6j_VdQLofWd9jBY8ciVfNcUotLab_akUiQuPqG7s6TcbyloS4arc2RLcTNijQ33YCePtN0Y2WPyLr9nCEpfH65yIik3AMmAlkPqAoVS9gluVkPyInhxtAFWdrSmpr8OQmTc1TLvboYMLCvhtfoWnfHYU8_ShLeDRitNWwIi8BfbmnjWt]--></g></svg>