<?xml version="1.0" encoding="us-ascii" standalone="no"?><svg xmlns="http://www.w3.org/2000/svg" xmlns:xlink="http://www.w3.org/1999/xlink" contentStyleType="text/css" height="458px" preserveAspectRatio="none" style="width:289px;height:458px;background:#FFFFFF;" version="1.1" viewBox="0 0 289 458" width="289px" zoomAndPan="magnify"><defs/><g><!--cluster Actor Framework.lvlib--><g id="cluster_Actor Framework.lvlib"><path d="M8.5,6 L182.5,6 A3.75,3.75 0 0 1 185,8.5 L192,28.2969 L279.5,28.2969 A2.5,2.5 0 0 1 282,30.7969 L282,449.06 A2.5,2.5 0 0 1 279.5,451.56 L8.5,451.56 A2.5,2.5 0 0 1 6,449.06 L6,8.5 A2.5,2.5 0 0 1 8.5,6 " fill="none" style="stroke:#000000;stroke-width:1.5;"/><line style="stroke:#000000;stroke-width:1.5;" x1="6" x2="192" y1="28.2969" y2="28.2969"/><text fill="#000000" font-family="sans-serif" font-size="14" font-weight="bold" lengthAdjust="spacing" textLength="173" x="10" y="20.9951">Actor Framework.lvlib</text></g><!--cluster AF Debug.lvlib--><g id="cluster_AF Debug.lvlib"><path d="M32.5,49 L145.5,49 A3.75,3.75 0 0 1 148,51.5 L155,71.2969 L255.5,71.2969 A2.5,2.5 0 0 1 258,73.7969 L258,341.06 A2.5,2.5 0 0 1 255.5,343.56 L32.5,343.56 A2.5,2.5 0 0 1 30,341.06 L30,51.5 A2.5,2.5 0 0 1 32.5,49 " fill="none" style="stroke:#000000;stroke-width:1.5;"/><line style="stroke:#000000;stroke-width:1.5;" x1="30" x2="155" y1="71.2969" y2="71.2969"/><text fill="#000000" font-family="sans-serif" font-size="14" font-weight="bold" lengthAdjust="spacing" textLength="112" x="34" y="63.9951">AF Debug.lvlib</text></g><!--class Message Enqueuer--><g id="elem_Message Enqueuer"><rect fill="#FFFFFF" height="48" id="Message Enqueuer" rx="2.5" ry="2.5" style="stroke:#555555;stroke-width:0.5;" width="167" x="60.5" y="387.56"/><rect fill="#808080" height="32" rx="2.5" ry="2.5" style="stroke:#808080;stroke-width:0.5;" width="167" x="60.5" y="387.56"/><rect fill="#808080" height="2.5" style="stroke:#808080;stroke-width:0.5;" width="167" x="60.5" y="417.06"/><rect fill="none" height="48" id="Message Enqueuer" rx="2.5" ry="2.5" style="stroke:#555555;stroke-width:0.5;" width="167" x="60.5" y="387.56"/><ellipse cx="75.5" cy="403.56" fill="#ADD1B2" rx="11" ry="11" style="stroke:#181818;stroke-width:1.0;"/><path d="M78.4688,409.2006 Q77.8906,409.4975 77.25,409.6381 Q76.6094,409.7944 75.9063,409.7944 Q73.4063,409.7944 72.0781,408.1538 Q70.7656,406.4975 70.7656,403.3725 Q70.7656,400.2475 72.0781,398.5913 Q73.4063,396.935 75.9063,396.935 Q76.6094,396.935 77.25,397.0913 Q77.9063,397.2475 78.4688,397.5444 L78.4688,400.2631 Q77.8438,399.685 77.25,399.4194 Q76.6563,399.1381 76.0313,399.1381 Q74.6875,399.1381 74,400.2163 Q73.3125,401.2788 73.3125,403.3725 Q73.3125,405.4663 74,406.5444 Q74.6875,407.6069 76.0313,407.6069 Q76.6563,407.6069 77.25,407.3413 Q77.8438,407.06 78.4688,406.4819 L78.4688,409.2006 Z " fill="#000000"/><text fill="#000000" font-family="sans-serif" font-size="14" lengthAdjust="spacing" textLength="135" x="89.5" y="408.4067">Message Enqueuer</text><line style="stroke:#555555;stroke-width:0.5;" x1="61.5" x2="226.5" y1="419.56" y2="419.56"/><line style="stroke:#555555;stroke-width:0.5;" x1="61.5" x2="226.5" y1="427.56" y2="427.56"/></g><!--class Protected Actor Handle--><g id="elem_Protected Actor Handle"><rect codeLine="8" fill="#FFFFFF" height="243.5625" id="Protected Actor Handle" rx="2.5" ry="2.5" style="stroke:#555555;stroke-width:0.5;" width="196" x="46" y="84"/><rect fill="#808080" height="32" rx="2.5" ry="2.5" style="stroke:#808080;stroke-width:0.5;" width="196" x="46" y="84"/><rect fill="#808080" height="2.5" style="stroke:#808080;stroke-width:0.5;" width="196" x="46" y="113.5"/><rect codeLine="8" fill="none" height="243.5625" id="Protected Actor Handle" rx="2.5" ry="2.5" style="stroke:#555555;stroke-width:0.5;" width="196" x="46" y="84"/><ellipse cx="62.8" cy="100" fill="#ADD1B2" rx="11" ry="11" style="stroke:#181818;stroke-width:1.0;"/><path d="M65.7688,105.6406 Q65.1906,105.9375 64.55,106.0781 Q63.9094,106.2344 63.2063,106.2344 Q60.7063,106.2344 59.3781,104.5938 Q58.0656,102.9375 58.0656,99.8125 Q58.0656,96.6875 59.3781,95.0313 Q60.7063,93.375 63.2063,93.375 Q63.9094,93.375 64.55,93.5313 Q65.2063,93.6875 65.7688,93.9844 L65.7688,96.7031 Q65.1438,96.125 64.55,95.8594 Q63.9563,95.5781 63.3313,95.5781 Q61.9875,95.5781 61.3,96.6563 Q60.6125,97.7188 60.6125,99.8125 Q60.6125,101.9063 61.3,102.9844 Q61.9875,104.0469 63.3313,104.0469 Q63.9563,104.0469 64.55,103.7813 Q65.1438,103.5 65.7688,102.9219 L65.7688,105.6406 Z " fill="#000000"/><text fill="#000000" font-family="sans-serif" font-size="14" lengthAdjust="spacing" textLength="160" x="77.2" y="104.8467">Protected Actor Handle</text><line style="stroke:#555555;stroke-width:0.5;" x1="47" x2="241" y1="116" y2="116"/><rect fill="none" height="6" style="stroke:#C82930;stroke-width:1.0;" width="6" x="54" y="126.6484"/><text fill="#000000" font-family="sans-serif" font-size="14" lengthAdjust="spacing" textLength="138" x="66" y="132.9951">Enqueuer : LV Class</text><rect fill="none" height="6" style="stroke:#C82930;stroke-width:1.0;" width="6" x="54" y="142.9453"/><text fill="#000000" font-family="sans-serif" font-size="14" lengthAdjust="spacing" textLength="67" x="66" y="149.292">ID : String</text><rect fill="none" height="6" style="stroke:#C82930;stroke-width:1.0;" width="6" x="54" y="159.2422"/><text fill="#000000" font-family="sans-serif" font-size="14" lengthAdjust="spacing" textLength="109" x="66" y="165.5889">Caller ID : String</text><rect fill="none" height="6" style="stroke:#C82930;stroke-width:1.0;" width="6" x="54" y="175.5391"/><text fill="#000000" font-family="sans-serif" font-size="14" lengthAdjust="spacing" textLength="156" x="66" y="181.8857">Qualified Name : String</text><rect fill="none" height="6" style="stroke:#C82930;stroke-width:1.0;" width="6" x="54" y="191.8359"/><text fill="#000000" font-family="sans-serif" font-size="14" lengthAdjust="spacing" textLength="170" x="66" y="198.1826">Actor Core Name : String</text><rect fill="none" height="6" style="stroke:#C82930;stroke-width:1.0;" width="6" x="54" y="208.1328"/><text fill="#000000" font-family="sans-serif" font-size="14" lengthAdjust="spacing" textLength="84" x="66" y="214.4795">Alias : String</text><line style="stroke:#555555;stroke-width:0.5;" x1="47" x2="241" y1="221.7813" y2="221.7813"/><ellipse cx="57" cy="235.4297" fill="#84BE84" rx="3" ry="3" style="stroke:#038048;stroke-width:1.0;"/><text fill="#000000" font-family="sans-serif" font-size="14" lengthAdjust="spacing" text-decoration="underline" textLength="56" x="66" y="238.7764">Create()</text><ellipse cx="57" cy="251.7266" fill="#84BE84" rx="3" ry="3" style="stroke:#038048;stroke-width:1.0;"/><text fill="#000000" font-family="sans-serif" font-size="14" lengthAdjust="spacing" text-decoration="underline" textLength="124" x="66" y="255.0732">Emergency Stop()</text><ellipse cx="57" cy="268.0234" fill="#84BE84" rx="3" ry="3" style="stroke:#038048;stroke-width:1.0;"/><text fill="#000000" font-family="sans-serif" font-size="14" lengthAdjust="spacing" text-decoration="underline" textLength="151" x="66" y="271.3701">Open Block Diagram()</text><ellipse cx="57" cy="284.3203" fill="#84BE84" rx="3" ry="3" style="stroke:#038048;stroke-width:1.0;"/><text fill="#000000" font-family="sans-serif" font-size="14" lengthAdjust="spacing" text-decoration="underline" textLength="130" x="66" y="287.667">Open Front Panel()</text><ellipse cx="57" cy="300.6172" fill="#84BE84" rx="3" ry="3" style="stroke:#038048;stroke-width:1.0;"/><text fill="#000000" font-family="sans-serif" font-size="14" lengthAdjust="spacing" text-decoration="underline" textLength="40" x="66" y="303.9639">Ping()</text><ellipse cx="57" cy="316.9141" fill="#84BE84" rx="3" ry="3" style="stroke:#038048;stroke-width:1.0;"/><text fill="#000000" font-family="sans-serif" font-size="14" lengthAdjust="spacing" text-decoration="underline" textLength="42" x="66" y="320.2607">Stop()</text></g><!--reverse link Protected Actor Handle to Message Enqueuer--><g id="link_Protected Actor Handle_Message Enqueuer"><path codeLine="23" d="M144,339.97 C144,362.53 144,371.79 144,387.08 " fill="none" id="Protected Actor Handle-backto-Message Enqueuer" style="stroke:#181818;stroke-width:1.0;"/><polygon fill="#181818" points="144,327.97,140,333.97,144,339.97,148,333.97,144,327.97" style="stroke:#181818;stroke-width:1.0;"/></g><!--SRC=[fP5DRy8m38Rl-HKMk-n3J5mcJToWK35f7qn8kvlKwwAcSPUacoR4VvyBdK1GkCnH3hOVEs_iG14SbXGgrBIW2Zr6zZ1KeJ2kyKf8B8OmHbtadckN9Mm5k4WtTeInpyYtoDt63f6KNMo1mSOEWHcXz3Xwy7xG7BL7Hwxamf9Zv18ouqb7mqxffWlqHhhvIIeaVRClRksNDSlXA8K9BUkyTUUUevHH1bjyXYwpr8ELMhqRijaQ-bFtMLDDCXHuVDjAt2KV9X9UH6zSlWicQAtmdRdN6gqH9uDd4TO1R7KaxEaaOGs6lNY868rUmwga-C52t2IUCDBbLLTkMfBFoUaVgUUgctcfoC7OiYvWOZ2N4PxXKYyRXJawijtKN5HsPre5Qgt-jwthVl_Klfye1Cm9_hROKqhz0W00]--></g></svg>