<?xml version="1.0" encoding="us-ascii" standalone="no"?><svg xmlns="http://www.w3.org/2000/svg" xmlns:xlink="http://www.w3.org/1999/xlink" contentStyleType="text/css" height="409px" preserveAspectRatio="none" style="width:297px;height:409px;background:#FFFFFF;" version="1.1" viewBox="0 0 297 409" width="297px" zoomAndPan="magnify"><defs/><g><!--cluster Actor Framework.lvlib--><g id="cluster_Actor Framework.lvlib"><path d="M8.5,6 L182.5,6 A3.75,3.75 0 0 1 185,8.5 L192,28.2969 L287.5,28.2969 A2.5,2.5 0 0 1 290,30.7969 L290,399.98 A2.5,2.5 0 0 1 287.5,402.48 L8.5,402.48 A2.5,2.5 0 0 1 6,399.98 L6,8.5 A2.5,2.5 0 0 1 8.5,6 " fill="none" style="stroke:#000000;stroke-width:1.5;"/><line style="stroke:#000000;stroke-width:1.5;" x1="6" x2="192" y1="28.2969" y2="28.2969"/><text fill="#000000" font-family="sans-serif" font-size="14" font-weight="bold" lengthAdjust="spacing" textLength="173" x="10" y="20.9951">Actor Framework.lvlib</text></g><!--cluster AF Debug.lvlib--><g id="cluster_AF Debug.lvlib"><path d="M32.5,114 L145.5,114 A3.75,3.75 0 0 1 148,116.5 L155,136.2969 L263.5,136.2969 A2.5,2.5 0 0 1 266,138.7969 L266,291.98 A2.5,2.5 0 0 1 263.5,294.48 L32.5,294.48 A2.5,2.5 0 0 1 30,291.98 L30,116.5 A2.5,2.5 0 0 1 32.5,114 " fill="none" style="stroke:#000000;stroke-width:1.5;"/><line style="stroke:#000000;stroke-width:1.5;" x1="30" x2="155" y1="136.2969" y2="136.2969"/><text fill="#000000" font-family="sans-serif" font-size="14" font-weight="bold" lengthAdjust="spacing" textLength="112" x="34" y="128.9951">AF Debug.lvlib</text></g><!--class Message--><g id="elem_Message"><rect fill="#FFFFFF" height="48" id="Message" rx="2.5" ry="2.5" style="stroke:#555555;stroke-width:0.5;" width="95" x="100.5" y="41"/><rect fill="#808080" height="32" rx="2.5" ry="2.5" style="stroke:#808080;stroke-width:0.5;" width="95" x="100.5" y="41"/><rect fill="#808080" height="2.5" style="stroke:#808080;stroke-width:0.5;" width="95" x="100.5" y="70.5"/><rect fill="none" height="48" id="Message" rx="2.5" ry="2.5" style="stroke:#555555;stroke-width:0.5;" width="95" x="100.5" y="41"/><ellipse cx="115.5" cy="57" fill="#ADD1B2" rx="11" ry="11" style="stroke:#181818;stroke-width:1.0;"/><path d="M118.4688,62.6406 Q117.8906,62.9375 117.25,63.0781 Q116.6094,63.2344 115.9063,63.2344 Q113.4063,63.2344 112.0781,61.5938 Q110.7656,59.9375 110.7656,56.8125 Q110.7656,53.6875 112.0781,52.0313 Q113.4063,50.375 115.9063,50.375 Q116.6094,50.375 117.25,50.5313 Q117.9063,50.6875 118.4688,50.9844 L118.4688,53.7031 Q117.8438,53.125 117.25,52.8594 Q116.6563,52.5781 116.0313,52.5781 Q114.6875,52.5781 114,53.6563 Q113.3125,54.7188 113.3125,56.8125 Q113.3125,58.9063 114,59.9844 Q114.6875,61.0469 116.0313,61.0469 Q116.6563,61.0469 117.25,60.7813 Q117.8438,60.5 118.4688,59.9219 L118.4688,62.6406 Z " fill="#000000"/><text fill="#000000" font-family="sans-serif" font-size="14" lengthAdjust="spacing" textLength="63" x="129.5" y="61.8467">Message</text><line style="stroke:#555555;stroke-width:0.5;" x1="101.5" x2="194.5" y1="73" y2="73"/><line style="stroke:#555555;stroke-width:0.5;" x1="101.5" x2="194.5" y1="81" y2="81"/></g><!--class Message Enqueuer--><g id="elem_Message Enqueuer"><rect fill="#FFFFFF" height="48" id="Message Enqueuer" rx="2.5" ry="2.5" style="stroke:#555555;stroke-width:0.5;" width="167" x="64.5" y="338.48"/><rect fill="#808080" height="32" rx="2.5" ry="2.5" style="stroke:#808080;stroke-width:0.5;" width="167" x="64.5" y="338.48"/><rect fill="#808080" height="2.5" style="stroke:#808080;stroke-width:0.5;" width="167" x="64.5" y="367.98"/><rect fill="none" height="48" id="Message Enqueuer" rx="2.5" ry="2.5" style="stroke:#555555;stroke-width:0.5;" width="167" x="64.5" y="338.48"/><ellipse cx="79.5" cy="354.48" fill="#ADD1B2" rx="11" ry="11" style="stroke:#181818;stroke-width:1.0;"/><path d="M82.4688,360.1206 Q81.8906,360.4175 81.25,360.5581 Q80.6094,360.7144 79.9063,360.7144 Q77.4063,360.7144 76.0781,359.0738 Q74.7656,357.4175 74.7656,354.2925 Q74.7656,351.1675 76.0781,349.5113 Q77.4063,347.855 79.9063,347.855 Q80.6094,347.855 81.25,348.0113 Q81.9063,348.1675 82.4688,348.4644 L82.4688,351.1831 Q81.8438,350.605 81.25,350.3394 Q80.6563,350.0581 80.0313,350.0581 Q78.6875,350.0581 78,351.1363 Q77.3125,352.1988 77.3125,354.2925 Q77.3125,356.3863 78,357.4644 Q78.6875,358.5269 80.0313,358.5269 Q80.6563,358.5269 81.25,358.2613 Q81.8438,357.98 82.4688,357.4019 L82.4688,360.1206 Z " fill="#000000"/><text fill="#000000" font-family="sans-serif" font-size="14" lengthAdjust="spacing" textLength="135" x="93.5" y="359.3267">Message Enqueuer</text><line style="stroke:#555555;stroke-width:0.5;" x1="65.5" x2="230.5" y1="370.48" y2="370.48"/><line style="stroke:#555555;stroke-width:0.5;" x1="65.5" x2="230.5" y1="378.48" y2="378.48"/></g><!--class Register Actor Msg--><g id="elem_Register Actor Msg"><rect codeLine="8" fill="#FFFFFF" height="129.4844" id="Register Actor Msg" rx="2.5" ry="2.5" style="stroke:#555555;stroke-width:0.5;" width="204" x="46" y="149"/><rect fill="#808080" height="32" rx="2.5" ry="2.5" style="stroke:#808080;stroke-width:0.5;" width="204" x="46" y="149"/><rect fill="#808080" height="2.5" style="stroke:#808080;stroke-width:0.5;" width="204" x="46" y="178.5"/><rect codeLine="8" fill="none" height="129.4844" id="Register Actor Msg" rx="2.5" ry="2.5" style="stroke:#555555;stroke-width:0.5;" width="204" x="46" y="149"/><ellipse cx="79.45" cy="165" fill="#ADD1B2" rx="11" ry="11" style="stroke:#181818;stroke-width:1.0;"/><path d="M82.4188,170.6406 Q81.8406,170.9375 81.2,171.0781 Q80.5594,171.2344 79.8563,171.2344 Q77.3563,171.2344 76.0281,169.5938 Q74.7156,167.9375 74.7156,164.8125 Q74.7156,161.6875 76.0281,160.0313 Q77.3563,158.375 79.8563,158.375 Q80.5594,158.375 81.2,158.5313 Q81.8563,158.6875 82.4188,158.9844 L82.4188,161.7031 Q81.7938,161.125 81.2,160.8594 Q80.6063,160.5781 79.9813,160.5781 Q78.6375,160.5781 77.95,161.6563 Q77.2625,162.7188 77.2625,164.8125 Q77.2625,166.9063 77.95,167.9844 Q78.6375,169.0469 79.9813,169.0469 Q80.6063,169.0469 81.2,168.7813 Q81.7938,168.5 82.4188,167.9219 L82.4188,170.6406 Z " fill="#000000"/><text fill="#000000" font-family="sans-serif" font-size="14" lengthAdjust="spacing" textLength="131" x="97.55" y="169.8467">Register Actor Msg</text><line style="stroke:#555555;stroke-width:0.5;" x1="47" x2="249" y1="181" y2="181"/><rect fill="none" height="6" style="stroke:#C82930;stroke-width:1.0;" width="6" x="54" y="191.6484"/><text fill="#000000" font-family="sans-serif" font-size="14" lengthAdjust="spacing" textLength="178" x="66" y="197.9951">Actor Enqueuer : LV Class</text><rect fill="none" height="6" style="stroke:#C82930;stroke-width:1.0;" width="6" x="54" y="207.9453"/><text fill="#000000" font-family="sans-serif" font-size="14" lengthAdjust="spacing" textLength="135" x="66" y="214.292">Debug Alias : String</text><rect fill="none" height="6" style="stroke:#C82930;stroke-width:1.0;" width="6" x="54" y="224.2422"/><text fill="#000000" font-family="sans-serif" font-size="14" lengthAdjust="spacing" textLength="109" x="66" y="230.5889">Details : Cluster</text><line style="stroke:#555555;stroke-width:0.5;" x1="47" x2="249" y1="237.8906" y2="237.8906"/><ellipse cx="57" cy="251.5391" fill="#84BE84" rx="3" ry="3" style="stroke:#038048;stroke-width:1.0;"/><text fill="#000000" font-family="sans-serif" font-size="14" lengthAdjust="spacing" text-decoration="underline" textLength="148" x="66" y="254.8857">Send Register Actor()</text><ellipse cx="57" cy="267.8359" fill="#84BE84" rx="3" ry="3" style="stroke:#038048;stroke-width:1.0;"/><text fill="#000000" font-family="sans-serif" font-size="14" lengthAdjust="spacing" textLength="30" x="66" y="271.1826">Do()</text></g><!--reverse link Message to Register Actor Msg--><g id="link_Message_Register Actor Msg"><path codeLine="16" d="M148,107.25 C148,123.33 148,127.57 148,148.74 " fill="none" id="Message-backto-Register Actor Msg" style="stroke:#181818;stroke-width:1.0;"/><polygon fill="none" points="148,89.25,142,107.25,154,107.25,148,89.25" style="stroke:#181818;stroke-width:1.0;"/></g><!--reverse link Register Actor Msg to Message Enqueuer--><g id="link_Register Actor Msg_Message Enqueuer"><path codeLine="17" d="M148,290.67 C148,311.84 148,322.06 148,338.15 " fill="none" id="Register Actor Msg-backto-Message Enqueuer" style="stroke:#181818;stroke-width:1.0;"/><polygon fill="#181818" points="148,278.67,144,284.67,148,290.67,152,284.67,148,278.67" style="stroke:#181818;stroke-width:1.0;"/></g><!--SRC=[dP0zJyCm48Pt_ufJMFXGK1Sa5B6Kb8Y1BaHYTvp3M77iO5zW2Fdls4b4IwikFSl3tVlelG-F18Qtw3ikiCIEEqxMGSPyeqpCMiWrz_wHYqOwsviwjpe05yKKHvXrDRe5kPlY42cieGLOJN48F2CF7aSDxrVniJsQR1S-L9R8jb0hXuAKDKn45qZM8cvI11A_hMjkzPTMLROkO8DLBvVq5QNoX0vcUkjb0WCRtXNgUeHqhZwPpnxx06NmyZOFkKCcDrXhnNtGItBAo7sLkD9HoNKV6x714oSbHXXQf0yRe9iIJGt_9xcyOZjzOqFAHdPYfIrwpoKcyF2JfkVlpSw_sFNflijmVpTC66E_]--></g></svg>