<?xml version="1.0" encoding="us-ascii" standalone="no"?><svg xmlns="http://www.w3.org/2000/svg" xmlns:xlink="http://www.w3.org/1999/xlink" contentStyleType="text/css" height="409px" preserveAspectRatio="none" style="width:314px;height:409px;background:#FFFFFF;" version="1.1" viewBox="0 0 314 409" width="314px" zoomAndPan="magnify"><defs/><g><!--cluster Actor Framework.lvlib--><g id="cluster_Actor Framework.lvlib"><path d="M8.5,6 L182.5,6 A3.75,3.75 0 0 1 185,8.5 L192,28.2969 L304.5,28.2969 A2.5,2.5 0 0 1 307,30.7969 L307,399.98 A2.5,2.5 0 0 1 304.5,402.48 L8.5,402.48 A2.5,2.5 0 0 1 6,399.98 L6,8.5 A2.5,2.5 0 0 1 8.5,6 " fill="none" style="stroke:#000000;stroke-width:1.5;"/><line style="stroke:#000000;stroke-width:1.5;" x1="6" x2="192" y1="28.2969" y2="28.2969"/><text fill="#000000" font-family="sans-serif" font-size="14" font-weight="bold" lengthAdjust="spacing" textLength="173" x="10" y="20.9951">Actor Framework.lvlib</text></g><!--class Last Ack--><g id="elem_Last Ack"><rect codeLine="8" fill="#FFFFFF" height="129.4844" id="Last Ack" rx="2.5" ry="2.5" style="stroke:#555555;stroke-width:0.5;" width="266" x="23" y="149"/><rect fill="#808080" height="32" rx="2.5" ry="2.5" style="stroke:#808080;stroke-width:0.5;" width="266" x="23" y="149"/><rect fill="#808080" height="2.5" style="stroke:#808080;stroke-width:0.5;" width="266" x="23" y="178.5"/><rect codeLine="8" fill="none" height="129.4844" id="Last Ack" rx="2.5" ry="2.5" style="stroke:#555555;stroke-width:0.5;" width="266" x="23" y="149"/><ellipse cx="123.25" cy="165" fill="#ADD1B2" rx="11" ry="11" style="stroke:#181818;stroke-width:1.0;"/><path d="M126.2188,170.6406 Q125.6406,170.9375 125,171.0781 Q124.3594,171.2344 123.6563,171.2344 Q121.1563,171.2344 119.8281,169.5938 Q118.5156,167.9375 118.5156,164.8125 Q118.5156,161.6875 119.8281,160.0313 Q121.1563,158.375 123.6563,158.375 Q124.3594,158.375 125,158.5313 Q125.6563,158.6875 126.2188,158.9844 L126.2188,161.7031 Q125.5938,161.125 125,160.8594 Q124.4063,160.5781 123.7813,160.5781 Q122.4375,160.5781 121.75,161.6563 Q121.0625,162.7188 121.0625,164.8125 Q121.0625,166.9063 121.75,167.9844 Q122.4375,169.0469 123.7813,169.0469 Q124.4063,169.0469 125,168.7813 Q125.5938,168.5 126.2188,167.9219 L126.2188,170.6406 Z " fill="#000000"/><text fill="#000000" font-family="sans-serif" font-size="14" lengthAdjust="spacing" textLength="57" x="143.75" y="169.8467">Last Ack</text><line style="stroke:#555555;stroke-width:0.5;" x1="24" x2="288" y1="181" y2="181"/><rect fill="none" height="6" style="stroke:#C82930;stroke-width:1.0;" width="6" x="31" y="191.6484"/><text fill="#000000" font-family="sans-serif" font-size="14" lengthAdjust="spacing" textLength="178" x="43" y="197.9951">error report : Error Cluster</text><ellipse cx="34" cy="210.9453" fill="none" rx="3" ry="3" style="stroke:#038048;stroke-width:1.0;"/><text fill="#000000" font-family="sans-serif" font-size="14" lengthAdjust="spacing" textLength="106" x="43" y="214.292">Actor : LV Class</text><rect fill="none" height="6" style="stroke:#C82930;stroke-width:1.0;" width="6" x="31" y="224.2422"/><text fill="#000000" font-family="sans-serif" font-size="14" lengthAdjust="spacing" textLength="240" x="43" y="230.5889">Caller-to-Actor Enqueuer : LV Class</text><line style="stroke:#555555;stroke-width:0.5;" x1="24" x2="288" y1="237.8906" y2="237.8906"/><polygon fill="#4177AF" points="34,247.5391,30,253.5391,38,253.5391" style="stroke:#1963A0;stroke-width:1.0;"/><text fill="#000000" font-family="sans-serif" font-size="14" lengthAdjust="spacing" text-decoration="underline" textLength="107" x="43" y="254.8857">Send Last Ack()</text><ellipse cx="34" cy="267.8359" fill="#84BE84" rx="3" ry="3" style="stroke:#038048;stroke-width:1.0;"/><text fill="#000000" font-family="sans-serif" font-size="14" lengthAdjust="spacing" textLength="30" x="43" y="271.1826">Do()</text></g><!--class Message--><g id="elem_Message"><rect fill="#FFFFFF" height="48" id="Message" rx="2.5" ry="2.5" style="stroke:#555555;stroke-width:0.5;" width="95" x="108.5" y="41"/><rect fill="#808080" height="32" rx="2.5" ry="2.5" style="stroke:#808080;stroke-width:0.5;" width="95" x="108.5" y="41"/><rect fill="#808080" height="2.5" style="stroke:#808080;stroke-width:0.5;" width="95" x="108.5" y="70.5"/><rect fill="none" height="48" id="Message" rx="2.5" ry="2.5" style="stroke:#555555;stroke-width:0.5;" width="95" x="108.5" y="41"/><ellipse cx="123.5" cy="57" fill="#ADD1B2" rx="11" ry="11" style="stroke:#181818;stroke-width:1.0;"/><path d="M126.4688,62.6406 Q125.8906,62.9375 125.25,63.0781 Q124.6094,63.2344 123.9063,63.2344 Q121.4063,63.2344 120.0781,61.5938 Q118.7656,59.9375 118.7656,56.8125 Q118.7656,53.6875 120.0781,52.0313 Q121.4063,50.375 123.9063,50.375 Q124.6094,50.375 125.25,50.5313 Q125.9063,50.6875 126.4688,50.9844 L126.4688,53.7031 Q125.8438,53.125 125.25,52.8594 Q124.6563,52.5781 124.0313,52.5781 Q122.6875,52.5781 122,53.6563 Q121.3125,54.7188 121.3125,56.8125 Q121.3125,58.9063 122,59.9844 Q122.6875,61.0469 124.0313,61.0469 Q124.6563,61.0469 125.25,60.7813 Q125.8438,60.5 126.4688,59.9219 L126.4688,62.6406 Z " fill="#000000"/><text fill="#000000" font-family="sans-serif" font-size="14" lengthAdjust="spacing" textLength="63" x="137.5" y="61.8467">Message</text><line style="stroke:#555555;stroke-width:0.5;" x1="109.5" x2="202.5" y1="73" y2="73"/><line style="stroke:#555555;stroke-width:0.5;" x1="109.5" x2="202.5" y1="81" y2="81"/></g><!--class Actor--><g id="elem_Actor"><rect fill="#FFFFFF" height="48" id="Actor" rx="2.5" ry="2.5" style="stroke:#555555;stroke-width:0.5;" width="68" x="22" y="338.48"/><rect fill="#808080" height="32" rx="2.5" ry="2.5" style="stroke:#808080;stroke-width:0.5;" width="68" x="22" y="338.48"/><rect fill="#808080" height="2.5" style="stroke:#808080;stroke-width:0.5;" width="68" x="22" y="367.98"/><rect fill="none" height="48" id="Actor" rx="2.5" ry="2.5" style="stroke:#555555;stroke-width:0.5;" width="68" x="22" y="338.48"/><ellipse cx="37" cy="354.48" fill="#ADD1B2" rx="11" ry="11" style="stroke:#181818;stroke-width:1.0;"/><path d="M39.9688,360.1206 Q39.3906,360.4175 38.75,360.5581 Q38.1094,360.7144 37.4063,360.7144 Q34.9063,360.7144 33.5781,359.0738 Q32.2656,357.4175 32.2656,354.2925 Q32.2656,351.1675 33.5781,349.5113 Q34.9063,347.855 37.4063,347.855 Q38.1094,347.855 38.75,348.0113 Q39.4063,348.1675 39.9688,348.4644 L39.9688,351.1831 Q39.3438,350.605 38.75,350.3394 Q38.1563,350.0581 37.5313,350.0581 Q36.1875,350.0581 35.5,351.1363 Q34.8125,352.1988 34.8125,354.2925 Q34.8125,356.3863 35.5,357.4644 Q36.1875,358.5269 37.5313,358.5269 Q38.1563,358.5269 38.75,358.2613 Q39.3438,357.98 39.9688,357.4019 L39.9688,360.1206 Z " fill="#000000"/><text fill="#000000" font-family="sans-serif" font-size="14" lengthAdjust="spacing" textLength="36" x="51" y="359.3267">Actor</text><line style="stroke:#555555;stroke-width:0.5;" x1="23" x2="89" y1="370.48" y2="370.48"/><line style="stroke:#555555;stroke-width:0.5;" x1="23" x2="89" y1="378.48" y2="378.48"/></g><!--class Message Enqueuer--><g id="elem_Message Enqueuer"><rect fill="#FFFFFF" height="48" id="Message Enqueuer" rx="2.5" ry="2.5" style="stroke:#555555;stroke-width:0.5;" width="167" x="124.5" y="338.48"/><rect fill="#808080" height="32" rx="2.5" ry="2.5" style="stroke:#808080;stroke-width:0.5;" width="167" x="124.5" y="338.48"/><rect fill="#808080" height="2.5" style="stroke:#808080;stroke-width:0.5;" width="167" x="124.5" y="367.98"/><rect fill="none" height="48" id="Message Enqueuer" rx="2.5" ry="2.5" style="stroke:#555555;stroke-width:0.5;" width="167" x="124.5" y="338.48"/><ellipse cx="139.5" cy="354.48" fill="#ADD1B2" rx="11" ry="11" style="stroke:#181818;stroke-width:1.0;"/><path d="M142.4688,360.1206 Q141.8906,360.4175 141.25,360.5581 Q140.6094,360.7144 139.9063,360.7144 Q137.4063,360.7144 136.0781,359.0738 Q134.7656,357.4175 134.7656,354.2925 Q134.7656,351.1675 136.0781,349.5113 Q137.4063,347.855 139.9063,347.855 Q140.6094,347.855 141.25,348.0113 Q141.9063,348.1675 142.4688,348.4644 L142.4688,351.1831 Q141.8438,350.605 141.25,350.3394 Q140.6563,350.0581 140.0313,350.0581 Q138.6875,350.0581 138,351.1363 Q137.3125,352.1988 137.3125,354.2925 Q137.3125,356.3863 138,357.4644 Q138.6875,358.5269 140.0313,358.5269 Q140.6563,358.5269 141.25,358.2613 Q141.8438,357.98 142.4688,357.4019 L142.4688,360.1206 Z " fill="#000000"/><text fill="#000000" font-family="sans-serif" font-size="14" lengthAdjust="spacing" textLength="135" x="153.5" y="359.3267">Message Enqueuer</text><line style="stroke:#555555;stroke-width:0.5;" x1="125.5" x2="290.5" y1="370.48" y2="370.48"/><line style="stroke:#555555;stroke-width:0.5;" x1="125.5" x2="290.5" y1="378.48" y2="378.48"/></g><!--reverse link Message to Last Ack--><g id="link_Message_Last Ack"><path codeLine="16" d="M156,107.25 C156,123.33 156,127.57 156,148.74 " fill="none" id="Message-backto-Last Ack" style="stroke:#181818;stroke-width:1.0;"/><polygon fill="none" points="156,89.25,150,107.25,162,107.25,156,89.25" style="stroke:#181818;stroke-width:1.0;"/></g><!--reverse link Last Ack to Actor--><g id="link_Last Ack_Actor"><path codeLine="17" d="M105.6745,288.5878 C91.2545,309.7578 82.86,322.06 71.9,338.15 " fill="none" id="Last Ack-backto-Actor" style="stroke:#181818;stroke-width:1.0;"/><polygon fill="#181818" points="112.43,278.67,105.7463,281.3771,105.6745,288.5878,112.3582,285.8807,112.43,278.67" style="stroke:#181818;stroke-width:1.0;"/></g><!--reverse link Last Ack to Message Enqueuer--><g id="link_Last Ack_Message Enqueuer"><path codeLine="18" d="M182.6673,289.9811 C190.1673,311.1511 194.03,322.06 199.73,338.15 " fill="none" id="Last Ack-backto-Message Enqueuer" style="stroke:#181818;stroke-width:1.0;"/><polygon fill="#181818" points="178.66,278.67,176.8932,285.6613,182.6673,289.9811,184.434,282.9898,178.66,278.67" style="stroke:#181818;stroke-width:1.0;"/></g><!--SRC=[fP0zJyCm48Pt_ufJM80gg0iIYbXAQCHGfahihdEKA8uld2ymbF3RSJu8qAhgm5aUNlkvzpuy2ZXTeQ-rmJNMchKGGw9yMRXELP1QxVsTDkMMgN5vIZO0PraV1nXnZZmYrtti8nav6O5v7_l00-hWSL3mPjuTzOiMgiE53ObG1Nd1QAGWfqpd0j72T9DaWSHtulBAljbYawoq5rYOCeATsZqNQFCMOcGEA6DDB930ifUfRRmWJzHiC4nWzJGq-fEVQckHOw5uO9RkjS46_y9Uj1IcXLs5ya8XxNEDBeVlXiulrFGpkwSWLQkE3F68tkijHd3x4SSd9rKdLt5vtAL__P_5sEsqbKWfzGK0]--></g></svg>