<?xml version="1.0" encoding="us-ascii" standalone="no"?><svg xmlns="http://www.w3.org/2000/svg" xmlns:xlink="http://www.w3.org/1999/xlink" contentStyleType="text/css" height="611px" preserveAspectRatio="none" style="width:442px;height:611px;background:#FFFFFF;" version="1.1" viewBox="0 0 442 611" width="442px" zoomAndPan="magnify"><defs/><g><!--cluster Actor Framework.lvlib--><g id="cluster_Actor Framework.lvlib"><path d="M8.5,6 L182.5,6 A3.75,3.75 0 0 1 185,8.5 L192,28.2969 L432.5,28.2969 A2.5,2.5 0 0 1 435,30.7969 L435,601.62 A2.5,2.5 0 0 1 432.5,604.12 L8.5,604.12 A2.5,2.5 0 0 1 6,601.62 L6,8.5 A2.5,2.5 0 0 1 8.5,6 " fill="none" style="stroke:#000000;stroke-width:1.5;"/><line style="stroke:#000000;stroke-width:1.5;" x1="6" x2="192" y1="28.2969" y2="28.2969"/><text fill="#000000" font-family="sans-serif" font-size="14" font-weight="bold" lengthAdjust="spacing" textLength="173" x="10" y="20.9951">Actor Framework.lvlib</text></g><!--class Actor--><g id="elem_Actor"><rect codeLine="8" fill="#FFFFFF" height="439.125" id="Actor" rx="2.5" ry="2.5" style="stroke:#555555;stroke-width:0.5;" width="289" x="22.5" y="41"/><rect fill="#808080" height="32" rx="2.5" ry="2.5" style="stroke:#808080;stroke-width:0.5;" width="289" x="22.5" y="41"/><rect fill="#808080" height="2.5" style="stroke:#808080;stroke-width:0.5;" width="289" x="22.5" y="70.5"/><rect codeLine="8" fill="none" height="439.125" id="Actor" rx="2.5" ry="2.5" style="stroke:#555555;stroke-width:0.5;" width="289" x="22.5" y="41"/><ellipse cx="144.75" cy="57" fill="#ADD1B2" rx="11" ry="11" style="stroke:#181818;stroke-width:1.0;"/><path d="M147.7188,62.6406 Q147.1406,62.9375 146.5,63.0781 Q145.8594,63.2344 145.1563,63.2344 Q142.6563,63.2344 141.3281,61.5938 Q140.0156,59.9375 140.0156,56.8125 Q140.0156,53.6875 141.3281,52.0313 Q142.6563,50.375 145.1563,50.375 Q145.8594,50.375 146.5,50.5313 Q147.1563,50.6875 147.7188,50.9844 L147.7188,53.7031 Q147.0938,53.125 146.5,52.8594 Q145.9063,52.5781 145.2813,52.5781 Q143.9375,52.5781 143.25,53.6563 Q142.5625,54.7188 142.5625,56.8125 Q142.5625,58.9063 143.25,59.9844 Q143.9375,61.0469 145.2813,61.0469 Q145.9063,61.0469 146.5,60.7813 Q147.0938,60.5 147.7188,59.9219 L147.7188,62.6406 Z " fill="#000000"/><text fill="#000000" font-family="sans-serif" font-size="14" lengthAdjust="spacing" textLength="36" x="165.25" y="61.8467">Actor</text><line style="stroke:#555555;stroke-width:0.5;" x1="23.5" x2="310.5" y1="73" y2="73"/><rect fill="none" height="6" style="stroke:#C82930;stroke-width:1.0;" width="6" x="30.5" y="83.6484"/><text fill="#000000" font-family="sans-serif" font-size="14" lengthAdjust="spacing" textLength="233" x="42.5" y="89.9951">Self-To-Caller Enqueuer : LV Class</text><rect fill="none" height="6" style="stroke:#C82930;stroke-width:1.0;" width="6" x="30.5" y="99.9453"/><text fill="#000000" font-family="sans-serif" font-size="14" lengthAdjust="spacing" textLength="231" x="42.5" y="106.292">Send-To-Self Enqueuer : LV Class</text><rect fill="none" height="6" style="stroke:#C82930;stroke-width:1.0;" width="6" x="30.5" y="116.2422"/><text fill="#000000" font-family="sans-serif" font-size="14" lengthAdjust="spacing" textLength="223" x="42.5" y="122.5889">Nested Actors : Array of LV Class</text><line style="stroke:#555555;stroke-width:0.5;" x1="23.5" x2="310.5" y1="129.8906" y2="129.8906"/><rect fill="#F24D5C" height="6" style="stroke:#C82930;stroke-width:1.0;" width="6" x="30.5" y="140.5391"/><text fill="#000000" font-family="sans-serif" font-size="14" lengthAdjust="spacing" text-decoration="underline" textLength="46" x="42.5" y="146.8857">Actor()</text><rect fill="#F24D5C" height="6" style="stroke:#C82930;stroke-width:1.0;" width="6" x="30.5" y="156.8359"/><text fill="#000000" font-family="sans-serif" font-size="14" lengthAdjust="spacing" text-decoration="underline" textLength="154" x="42.5" y="163.1826">Record Nested Actor()</text><rect fill="#F24D5C" height="6" style="stroke:#C82930;stroke-width:1.0;" width="6" x="30.5" y="173.1328"/><text fill="#000000" font-family="sans-serif" font-size="14" lengthAdjust="spacing" text-decoration="underline" textLength="42" x="42.5" y="179.4795">Stop()</text><rect fill="#F24D5C" height="6" style="stroke:#C82930;stroke-width:1.0;" width="6" x="30.5" y="189.4297"/><text fill="#000000" font-family="sans-serif" font-size="14" lengthAdjust="spacing" text-decoration="underline" textLength="100" x="42.5" y="195.7764">Count Actors()</text><rect fill="#F24D5C" height="6" style="stroke:#C82930;stroke-width:1.0;" width="6" x="30.5" y="205.7266"/><text fill="#000000" font-family="sans-serif" font-size="14" lengthAdjust="spacing" text-decoration="underline" textLength="137" x="42.5" y="212.0732">Launch Actor Core()</text><polygon fill="#FFFF44" points="33.5,220.0234,37.5,224.0234,33.5,228.0234,29.5,224.0234" style="stroke:#B38D22;stroke-width:1.0;"/><text fill="#000000" font-family="sans-serif" font-size="14" lengthAdjust="spacing" text-decoration="underline" textLength="227" x="42.5" y="228.3701">Send Launch Nested Actor Msg()</text><polygon fill="#FFFF44" points="33.5,236.3203,37.5,240.3203,33.5,244.3203,29.5,240.3203" style="stroke:#B38D22;stroke-width:1.0;"/><text fill="#000000" font-family="sans-serif" font-size="14" lengthAdjust="spacing" text-decoration="underline" textLength="154" x="42.5" y="244.667">Launch Nested Actor()</text><polygon fill="#4177AF" points="33.5,253.6172,29.5,259.6172,37.5,259.6172" style="stroke:#1963A0;stroke-width:1.0;"/><text fill="#000000" font-family="sans-serif" font-size="14" lengthAdjust="spacing" text-decoration="underline" textLength="119" x="42.5" y="260.9639">Handle Last Ack()</text><polygon fill="#4177AF" points="33.5,269.9141,29.5,275.9141,37.5,275.9141" style="stroke:#1963A0;stroke-width:1.0;"/><text fill="#000000" font-family="sans-serif" font-size="14" lengthAdjust="spacing" text-decoration="underline" textLength="78" x="42.5" y="277.2607">Init Check()</text><polygon fill="#4177AF" points="33.5,286.2109,29.5,292.2109,37.5,292.2109" style="stroke:#1963A0;stroke-width:1.0;"/><text fill="#000000" font-family="sans-serif" font-size="14" lengthAdjust="spacing" text-decoration="underline" textLength="89" x="42.5" y="293.5576">Init Queues()</text><polygon fill="#4177AF" points="33.5,302.5078,29.5,308.5078,37.5,308.5078" style="stroke:#1963A0;stroke-width:1.0;"/><text fill="#000000" font-family="sans-serif" font-size="14" lengthAdjust="spacing" text-decoration="underline" textLength="263" x="42.5" y="309.8545">Launch Nested Actor Friend Wrapper()</text><ellipse cx="33.5" cy="322.8047" fill="#84BE84" rx="3" ry="3" style="stroke:#038048;stroke-width:1.0;"/><text fill="#000000" font-family="sans-serif" font-size="14" lengthAdjust="spacing" text-decoration="underline" textLength="100" x="42.5" y="326.1514">Launch Actor()</text><ellipse cx="33.5" cy="339.1016" fill="#84BE84" rx="3" ry="3" style="stroke:#038048;stroke-width:1.0;"/><text fill="#000000" font-family="sans-serif" font-size="14" lengthAdjust="spacing" text-decoration="underline" textLength="137" x="42.5" y="342.4482">Launch Root Actor()</text><polygon fill="#FFFF44" points="33.5,350.3984,37.5,354.3984,33.5,358.3984,29.5,354.3984" style="stroke:#B38D22;stroke-width:1.0;"/><text fill="#000000" font-family="sans-serif" font-size="14" lengthAdjust="spacing" textLength="83" x="42.5" y="358.7451">Actor Core()</text><polygon fill="#FFFF44" points="33.5,366.6953,37.5,370.6953,33.5,374.6953,29.5,370.6953" style="stroke:#B38D22;stroke-width:1.0;"/><text fill="#000000" font-family="sans-serif" font-size="14" lengthAdjust="spacing" textLength="79" x="42.5" y="375.042">Stop Core()</text><polygon fill="#FFFF44" points="33.5,382.9922,37.5,386.9922,33.5,390.9922,29.5,386.9922" style="stroke:#B38D22;stroke-width:1.0;"/><text fill="#000000" font-family="sans-serif" font-size="14" lengthAdjust="spacing" textLength="156" x="42.5" y="391.3389">Handle Last Ack Core()</text><polygon fill="#FFFF44" points="33.5,399.2891,37.5,403.2891,33.5,407.2891,29.5,403.2891" style="stroke:#B38D22;stroke-width:1.0;"/><text fill="#000000" font-family="sans-serif" font-size="14" lengthAdjust="spacing" textLength="132" x="42.5" y="407.6357">Receive Message()</text><polygon fill="#FFFF44" points="33.5,415.5859,37.5,419.5859,33.5,423.5859,29.5,419.5859" style="stroke:#B38D22;stroke-width:1.0;"/><text fill="#000000" font-family="sans-serif" font-size="14" lengthAdjust="spacing" textLength="95" x="42.5" y="423.9326">Handle Error()</text><polygon fill="#FFFF44" points="33.5,431.8828,37.5,435.8828,33.5,439.8828,29.5,435.8828" style="stroke:#B38D22;stroke-width:1.0;"/><text fill="#000000" font-family="sans-serif" font-size="14" lengthAdjust="spacing" textLength="111" x="42.5" y="440.2295">Pre Launch Init()</text><polygon fill="#FFFF44" points="33.5,448.1797,37.5,452.1797,33.5,456.1797,29.5,452.1797" style="stroke:#B38D22;stroke-width:1.0;"/><text fill="#000000" font-family="sans-serif" font-size="14" lengthAdjust="spacing" textLength="49" x="42.5" y="456.5264">Uninit()</text><polygon fill="#FFFF44" points="33.5,464.4766,37.5,468.4766,33.5,472.4766,29.5,468.4766" style="stroke:#B38D22;stroke-width:1.0;"/><text fill="#000000" font-family="sans-serif" font-size="14" lengthAdjust="spacing" textLength="121" x="42.5" y="472.8232">Substitute Actor()</text></g><!--class Message Enqueuer--><g id="elem_Message Enqueuer"><rect fill="#FFFFFF" height="48" id="Message Enqueuer" rx="2.5" ry="2.5" style="stroke:#555555;stroke-width:0.5;" width="167" x="21.5" y="540.12"/><rect fill="#808080" height="32" rx="2.5" ry="2.5" style="stroke:#808080;stroke-width:0.5;" width="167" x="21.5" y="540.12"/><rect fill="#808080" height="2.5" style="stroke:#808080;stroke-width:0.5;" width="167" x="21.5" y="569.62"/><rect fill="none" height="48" id="Message Enqueuer" rx="2.5" ry="2.5" style="stroke:#555555;stroke-width:0.5;" width="167" x="21.5" y="540.12"/><ellipse cx="36.5" cy="556.12" fill="#ADD1B2" rx="11" ry="11" style="stroke:#181818;stroke-width:1.0;"/><path d="M39.4688,561.7606 Q38.8906,562.0575 38.25,562.1981 Q37.6094,562.3544 36.9063,562.3544 Q34.4063,562.3544 33.0781,560.7138 Q31.7656,559.0575 31.7656,555.9325 Q31.7656,552.8075 33.0781,551.1513 Q34.4063,549.495 36.9063,549.495 Q37.6094,549.495 38.25,549.6513 Q38.9063,549.8075 39.4688,550.1044 L39.4688,552.8231 Q38.8438,552.245 38.25,551.9794 Q37.6563,551.6981 37.0313,551.6981 Q35.6875,551.6981 35,552.7763 Q34.3125,553.8388 34.3125,555.9325 Q34.3125,558.0263 35,559.1044 Q35.6875,560.1669 37.0313,560.1669 Q37.6563,560.1669 38.25,559.9013 Q38.8438,559.62 39.4688,559.0419 L39.4688,561.7606 Z " fill="#000000"/><text fill="#000000" font-family="sans-serif" font-size="14" lengthAdjust="spacing" textLength="135" x="50.5" y="560.9667">Message Enqueuer</text><line style="stroke:#555555;stroke-width:0.5;" x1="22.5" x2="187.5" y1="572.12" y2="572.12"/><line style="stroke:#555555;stroke-width:0.5;" x1="22.5" x2="187.5" y1="580.12" y2="580.12"/></g><!--class Message Priority Queue--><g id="elem_Message Priority Queue"><rect fill="#FFFFFF" height="48" id="Message Priority Queue" rx="2.5" ry="2.5" style="stroke:#555555;stroke-width:0.5;" width="196" x="223" y="540.12"/><rect fill="#808080" height="32" rx="2.5" ry="2.5" style="stroke:#808080;stroke-width:0.5;" width="196" x="223" y="540.12"/><rect fill="#808080" height="2.5" style="stroke:#808080;stroke-width:0.5;" width="196" x="223" y="569.62"/><rect fill="none" height="48" id="Message Priority Queue" rx="2.5" ry="2.5" style="stroke:#555555;stroke-width:0.5;" width="196" x="223" y="540.12"/><ellipse cx="238" cy="556.12" fill="#ADD1B2" rx="11" ry="11" style="stroke:#181818;stroke-width:1.0;"/><path d="M240.9688,561.7606 Q240.3906,562.0575 239.75,562.1981 Q239.1094,562.3544 238.4063,562.3544 Q235.9063,562.3544 234.5781,560.7138 Q233.2656,559.0575 233.2656,555.9325 Q233.2656,552.8075 234.5781,551.1513 Q235.9063,549.495 238.4063,549.495 Q239.1094,549.495 239.75,549.6513 Q240.4063,549.8075 240.9688,550.1044 L240.9688,552.8231 Q240.3438,552.245 239.75,551.9794 Q239.1563,551.6981 238.5313,551.6981 Q237.1875,551.6981 236.5,552.7763 Q235.8125,553.8388 235.8125,555.9325 Q235.8125,558.0263 236.5,559.1044 Q237.1875,560.1669 238.5313,560.1669 Q239.1563,560.1669 239.75,559.9013 Q240.3438,559.62 240.9688,559.0419 L240.9688,561.7606 Z " fill="#000000"/><text fill="#000000" font-family="sans-serif" font-size="14" lengthAdjust="spacing" textLength="164" x="252" y="560.9667">Message Priority Queue</text><line style="stroke:#555555;stroke-width:0.5;" x1="224" x2="418" y1="572.12" y2="572.12"/><line style="stroke:#555555;stroke-width:0.5;" x1="224" x2="418" y1="580.12" y2="580.12"/></g><!--reverse link Actor to Message Enqueuer--><g id="link_Actor_Message Enqueuer"><path codeLine="35" d="M108.524,492.1562 C104.574,515.8162 103.7,524.82 102.59,539.68 " fill="none" id="Actor-backto-Message Enqueuer" style="stroke:#181818;stroke-width:1.0;"/><polygon fill="#181818" points="110.5,480.32,105.5666,485.5794,108.524,492.1562,113.4574,486.8968,110.5,480.32" style="stroke:#181818;stroke-width:1.0;"/></g><!--reverse link Actor to Message Enqueuer--><g id="link_Actor_Message Enqueuer"><path codeLine="38" d="M131.349,491.9715 C125.519,515.6315 122.59,524.82 117.48,539.68 " fill="none" id="Actor-backto-Message Enqueuer-1" style="stroke:#181818;stroke-width:1.0;"/><polygon fill="none" points="134.22,480.32,128.9007,485.1887,131.349,491.9715,136.6683,487.1028,134.22,480.32" style="stroke:#181818;stroke-width:1.0;"/></g><!--reverse link Actor to Message Priority Queue--><g id="link_Actor_Message Priority Queue"><path codeLine="36" d="M284.1767,491.0076 C296.2567,514.6676 301.44,524.82 309.03,539.68 " fill="none" id="Actor-backto-Message Priority Queue" style="stroke:#181818;stroke-width:1.0;"/><polygon fill="#181818" points="278.72,480.32,277.8858,487.4827,284.1767,491.0076,285.0109,483.8449,278.72,480.32" style="stroke:#181818;stroke-width:1.0;"/></g><!--SRC=[fPFDJkim48NtUOfHsG1NGMoGK7SGKO4422W_QpUPjbPTJnXFGAWgpuwTXZQalhswmb6anFFD-ConxL30gZcwKkKun5An4cBe9swcRVYRGsQKS-SgdqsOAbjaP3omDwZ75aPS83V8IJswo82iDC1nFRh09IfVOsl1q-Fm92rQgFGlZ4Y4vb1enbmqsIGFLQ1tbeTE1fx4T-BPaNapUjIlPtkmI1PZZQPOGZf4CquVASsKCSXmOLyhhFn77wwVLuhQh2q26t9saxVe10kebtEUE6DM7q3Z5kf4YSwNi9YZJ2aarVJ-GIpqWBdt5jfbu-3GsnAFPDvDQHJ5YMjLsNowGY0ZnYYs5ro0XcqBWXitYMT4u2ZuUQbiOT0NTq7fB0vTMIsGJN5d_3xiJRpFpvZs0UlGrWkhiiIukZzjVtOI3qIomTOs_3HsusSuoLkp7Iks0NyaKByXtA1pQX9Dlc3kIBXZ_DwwODEFs9FLtQbXDNAYfH9SjvCiazrtwp1D_tRx6gdhgzFxVQaxriHQFbORtal-KP7-Hrpo1G00]--></g></svg>