<?xml version="1.0" encoding="us-ascii" standalone="no"?><svg xmlns="http://www.w3.org/2000/svg" xmlns:xlink="http://www.w3.org/1999/xlink" contentStyleType="text/css" height="309px" preserveAspectRatio="none" style="width:275px;height:309px;background:#FFFFFF;" version="1.1" viewBox="0 0 275 309" width="275px" zoomAndPan="magnify"><defs/><g><!--cluster Actor Framework.lvlib--><g id="cluster_Actor Framework.lvlib"><path d="M8.5,6 L182.5,6 A3.75,3.75 0 0 1 185,8.5 L192,28.2969 L265.5,28.2969 A2.5,2.5 0 0 1 268,30.7969 L268,299.69 A2.5,2.5 0 0 1 265.5,302.19 L8.5,302.19 A2.5,2.5 0 0 1 6,299.69 L6,8.5 A2.5,2.5 0 0 1 8.5,6 " fill="none" style="stroke:#000000;stroke-width:1.5;"/><line style="stroke:#000000;stroke-width:1.5;" x1="6" x2="192" y1="28.2969" y2="28.2969"/><text fill="#000000" font-family="sans-serif" font-size="14" font-weight="bold" lengthAdjust="spacing" textLength="173" x="10" y="20.9951">Actor Framework.lvlib</text></g><!--cluster AF Debug.lvlib--><g id="cluster_AF Debug.lvlib"><path d="M32.5,114 L145.5,114 A3.75,3.75 0 0 1 148,116.5 L155,136.2969 L241.5,136.2969 A2.5,2.5 0 0 1 244,138.7969 L244,275.69 A2.5,2.5 0 0 1 241.5,278.19 L32.5,278.19 A2.5,2.5 0 0 1 30,275.69 L30,116.5 A2.5,2.5 0 0 1 32.5,114 " fill="none" style="stroke:#000000;stroke-width:1.5;"/><line style="stroke:#000000;stroke-width:1.5;" x1="30" x2="155" y1="136.2969" y2="136.2969"/><text fill="#000000" font-family="sans-serif" font-size="14" font-weight="bold" lengthAdjust="spacing" textLength="112" x="34" y="128.9951">AF Debug.lvlib</text></g><!--class Message--><g id="elem_Message"><rect fill="#FFFFFF" height="48" id="Message" rx="2.5" ry="2.5" style="stroke:#555555;stroke-width:0.5;" width="95" x="89.5" y="41"/><rect fill="#808080" height="32" rx="2.5" ry="2.5" style="stroke:#808080;stroke-width:0.5;" width="95" x="89.5" y="41"/><rect fill="#808080" height="2.5" style="stroke:#808080;stroke-width:0.5;" width="95" x="89.5" y="70.5"/><rect fill="none" height="48" id="Message" rx="2.5" ry="2.5" style="stroke:#555555;stroke-width:0.5;" width="95" x="89.5" y="41"/><ellipse cx="104.5" cy="57" fill="#ADD1B2" rx="11" ry="11" style="stroke:#181818;stroke-width:1.0;"/><path d="M107.4688,62.6406 Q106.8906,62.9375 106.25,63.0781 Q105.6094,63.2344 104.9063,63.2344 Q102.4063,63.2344 101.0781,61.5938 Q99.7656,59.9375 99.7656,56.8125 Q99.7656,53.6875 101.0781,52.0313 Q102.4063,50.375 104.9063,50.375 Q105.6094,50.375 106.25,50.5313 Q106.9063,50.6875 107.4688,50.9844 L107.4688,53.7031 Q106.8438,53.125 106.25,52.8594 Q105.6563,52.5781 105.0313,52.5781 Q103.6875,52.5781 103,53.6563 Q102.3125,54.7188 102.3125,56.8125 Q102.3125,58.9063 103,59.9844 Q103.6875,61.0469 105.0313,61.0469 Q105.6563,61.0469 106.25,60.7813 Q106.8438,60.5 107.4688,59.9219 L107.4688,62.6406 Z " fill="#000000"/><text fill="#000000" font-family="sans-serif" font-size="14" lengthAdjust="spacing" textLength="63" x="118.5" y="61.8467">Message</text><line style="stroke:#555555;stroke-width:0.5;" x1="90.5" x2="183.5" y1="73" y2="73"/><line style="stroke:#555555;stroke-width:0.5;" x1="90.5" x2="183.5" y1="81" y2="81"/></g><!--class Ping Msg--><g id="elem_Ping Msg"><rect codeLine="8" fill="#FFFFFF" height="113.1875" id="Ping Msg" rx="2.5" ry="2.5" style="stroke:#555555;stroke-width:0.5;" width="181" x="46.5" y="149"/><rect fill="#808080" height="32" rx="2.5" ry="2.5" style="stroke:#808080;stroke-width:0.5;" width="181" x="46.5" y="149"/><rect fill="#808080" height="2.5" style="stroke:#808080;stroke-width:0.5;" width="181" x="46.5" y="178.5"/><rect codeLine="8" fill="none" height="113.1875" id="Ping Msg" rx="2.5" ry="2.5" style="stroke:#555555;stroke-width:0.5;" width="181" x="46.5" y="149"/><ellipse cx="101.25" cy="165" fill="#ADD1B2" rx="11" ry="11" style="stroke:#181818;stroke-width:1.0;"/><path d="M104.2188,170.6406 Q103.6406,170.9375 103,171.0781 Q102.3594,171.2344 101.6563,171.2344 Q99.1563,171.2344 97.8281,169.5938 Q96.5156,167.9375 96.5156,164.8125 Q96.5156,161.6875 97.8281,160.0313 Q99.1563,158.375 101.6563,158.375 Q102.3594,158.375 103,158.5313 Q103.6563,158.6875 104.2188,158.9844 L104.2188,161.7031 Q103.5938,161.125 103,160.8594 Q102.4063,160.5781 101.7813,160.5781 Q100.4375,160.5781 99.75,161.6563 Q99.0625,162.7188 99.0625,164.8125 Q99.0625,166.9063 99.75,167.9844 Q100.4375,169.0469 101.7813,169.0469 Q102.4063,169.0469 103,168.7813 Q103.5938,168.5 104.2188,167.9219 L104.2188,170.6406 Z " fill="#000000"/><text fill="#000000" font-family="sans-serif" font-size="14" lengthAdjust="spacing" textLength="63" x="121.75" y="169.8467">Ping Msg</text><line style="stroke:#555555;stroke-width:0.5;" x1="47.5" x2="226.5" y1="181" y2="181"/><rect fill="none" height="6" style="stroke:#C82930;stroke-width:1.0;" width="6" x="54.5" y="191.6484"/><text fill="#000000" font-family="sans-serif" font-size="14" lengthAdjust="spacing" textLength="155" x="66.5" y="197.9951">Reply Queue : NoType</text><line style="stroke:#555555;stroke-width:0.5;" x1="47.5" x2="226.5" y1="205.2969" y2="205.2969"/><ellipse cx="57.5" cy="218.9453" fill="#84BE84" rx="3" ry="3" style="stroke:#038048;stroke-width:1.0;"/><text fill="#000000" font-family="sans-serif" font-size="14" lengthAdjust="spacing" text-decoration="underline" textLength="80" x="66.5" y="222.292">Send Ping()</text><ellipse cx="57.5" cy="235.2422" fill="#84BE84" rx="3" ry="3" style="stroke:#038048;stroke-width:1.0;"/><text fill="#000000" font-family="sans-serif" font-size="14" lengthAdjust="spacing" textLength="30" x="66.5" y="238.5889">Do()</text><polygon fill="#FFFF44" points="57.5,246.5391,61.5,250.5391,57.5,254.5391,53.5,250.5391" style="stroke:#B38D22;stroke-width:1.0;"/><text fill="#000000" font-family="sans-serif" font-size="14" lengthAdjust="spacing" textLength="148" x="66.5" y="254.8857">Drop Message Core()</text></g><!--reverse link Message to Ping Msg--><g id="link_Message_Ping Msg"><path codeLine="15" d="M137,107.2 C137,123.46 137,127.92 137,148.7 " fill="none" id="Message-backto-Ping Msg" style="stroke:#181818;stroke-width:1.0;"/><polygon fill="none" points="137,89.2,131,107.2,143,107.2,137,89.2" style="stroke:#181818;stroke-width:1.0;"/></g><!--SRC=[bO_1QiCm38RlUWgHNZP6HY-34NRf4i8kBTkw5t0SrJDnh60x7INBkyy9WPMM7VOR7NxhuvVaAQ0LBVbEIDfJ9vm8x303tsWxkHPp8xn_5h9HZdjRvsmYi2fdNM7iQd8ByZ3h4YdPXWLOpxe4NaZ4ZAk1Z-lfmHaTk8k55OV0BTRQaGoQBSWf1PEDd2uf8qbVx9fxSpIwoZOb5bJrQh6lsYhSUfNW0CD1awb7JD-fCoTywwadp7377wUEOF1112r775eAdnovkptP6gU4crlu_ItutAuA5zVSalT24URiA7PXX3_MMy04dxxJzByt0C0F]--></g></svg>