<?xml version="1.0" encoding="us-ascii" standalone="no"?><svg xmlns="http://www.w3.org/2000/svg" xmlns:xlink="http://www.w3.org/1999/xlink" contentStyleType="text/css" height="301px" preserveAspectRatio="none" style="width:305px;height:301px;background:#FFFFFF;" version="1.1" viewBox="0 0 305 301" width="305px" zoomAndPan="magnify"><defs/><g><!--cluster Actor Framework.lvlib--><g id="cluster_Actor Framework.lvlib"><path d="M8.5,6 L182.5,6 A3.75,3.75 0 0 1 185,8.5 L192,28.2969 L295.5,28.2969 A2.5,2.5 0 0 1 298,30.7969 L298,291.98 A2.5,2.5 0 0 1 295.5,294.48 L8.5,294.48 A2.5,2.5 0 0 1 6,291.98 L6,8.5 A2.5,2.5 0 0 1 8.5,6 " fill="none" style="stroke:#000000;stroke-width:1.5;"/><line style="stroke:#000000;stroke-width:1.5;" x1="6" x2="192" y1="28.2969" y2="28.2969"/><text fill="#000000" font-family="sans-serif" font-size="14" font-weight="bold" lengthAdjust="spacing" textLength="173" x="10" y="20.9951">Actor Framework.lvlib</text></g><!--class Stop Msg--><g id="elem_Stop Msg"><rect codeLine="8" fill="#FFFFFF" height="129.4844" id="Stop Msg" rx="2.5" ry="2.5" style="stroke:#555555;stroke-width:0.5;" width="260" x="22" y="149"/><rect fill="#808080" height="32" rx="2.5" ry="2.5" style="stroke:#808080;stroke-width:0.5;" width="260" x="22" y="149"/><rect fill="#808080" height="2.5" style="stroke:#808080;stroke-width:0.5;" width="260" x="22" y="178.5"/><rect codeLine="8" fill="none" height="129.4844" id="Stop Msg" rx="2.5" ry="2.5" style="stroke:#555555;stroke-width:0.5;" width="260" x="22" y="149"/><ellipse cx="115.25" cy="165" fill="#ADD1B2" rx="11" ry="11" style="stroke:#181818;stroke-width:1.0;"/><path d="M118.2188,170.6406 Q117.6406,170.9375 117,171.0781 Q116.3594,171.2344 115.6563,171.2344 Q113.1563,171.2344 111.8281,169.5938 Q110.5156,167.9375 110.5156,164.8125 Q110.5156,161.6875 111.8281,160.0313 Q113.1563,158.375 115.6563,158.375 Q116.3594,158.375 117,158.5313 Q117.6563,158.6875 118.2188,158.9844 L118.2188,161.7031 Q117.5938,161.125 117,160.8594 Q116.4063,160.5781 115.7813,160.5781 Q114.4375,160.5781 113.75,161.6563 Q113.0625,162.7188 113.0625,164.8125 Q113.0625,166.9063 113.75,167.9844 Q114.4375,169.0469 115.7813,169.0469 Q116.4063,169.0469 117,168.7813 Q117.5938,168.5 118.2188,167.9219 L118.2188,170.6406 Z " fill="#000000"/><text fill="#000000" font-family="sans-serif" font-size="14" lengthAdjust="spacing" textLength="65" x="135.75" y="169.8467">Stop Msg</text><line style="stroke:#555555;stroke-width:0.5;" x1="23" x2="281" y1="181" y2="181"/><rect fill="none" height="6" style="stroke:#C82930;stroke-width:1.0;" width="6" x="30" y="191.6484"/><text fill="#000000" font-family="sans-serif" font-size="14" lengthAdjust="spacing" textLength="170" x="42" y="197.9951">is emergency? : Boolean</text><line style="stroke:#555555;stroke-width:0.5;" x1="23" x2="281" y1="205.2969" y2="205.2969"/><ellipse cx="33" cy="218.9453" fill="#84BE84" rx="3" ry="3" style="stroke:#038048;stroke-width:1.0;"/><text fill="#000000" font-family="sans-serif" font-size="14" lengthAdjust="spacing" text-decoration="underline" textLength="134" x="42" y="222.292">Send Normal Stop()</text><ellipse cx="33" cy="235.2422" fill="#84BE84" rx="3" ry="3" style="stroke:#038048;stroke-width:1.0;"/><text fill="#000000" font-family="sans-serif" font-size="14" lengthAdjust="spacing" text-decoration="underline" textLength="164" x="42" y="238.5889">Send Emergency Stop()</text><ellipse cx="33" cy="251.5391" fill="#84BE84" rx="3" ry="3" style="stroke:#038048;stroke-width:1.0;"/><text fill="#000000" font-family="sans-serif" font-size="14" lengthAdjust="spacing" text-decoration="underline" textLength="234" x="42" y="254.8857">Send Normal or Emergency Stop()</text><ellipse cx="33" cy="267.8359" fill="#84BE84" rx="3" ry="3" style="stroke:#038048;stroke-width:1.0;"/><text fill="#000000" font-family="sans-serif" font-size="14" lengthAdjust="spacing" textLength="30" x="42" y="271.1826">Do()</text></g><!--class Message--><g id="elem_Message"><rect fill="#FFFFFF" height="48" id="Message" rx="2.5" ry="2.5" style="stroke:#555555;stroke-width:0.5;" width="95" x="104.5" y="41"/><rect fill="#808080" height="32" rx="2.5" ry="2.5" style="stroke:#808080;stroke-width:0.5;" width="95" x="104.5" y="41"/><rect fill="#808080" height="2.5" style="stroke:#808080;stroke-width:0.5;" width="95" x="104.5" y="70.5"/><rect fill="none" height="48" id="Message" rx="2.5" ry="2.5" style="stroke:#555555;stroke-width:0.5;" width="95" x="104.5" y="41"/><ellipse cx="119.5" cy="57" fill="#ADD1B2" rx="11" ry="11" style="stroke:#181818;stroke-width:1.0;"/><path d="M122.4688,62.6406 Q121.8906,62.9375 121.25,63.0781 Q120.6094,63.2344 119.9063,63.2344 Q117.4063,63.2344 116.0781,61.5938 Q114.7656,59.9375 114.7656,56.8125 Q114.7656,53.6875 116.0781,52.0313 Q117.4063,50.375 119.9063,50.375 Q120.6094,50.375 121.25,50.5313 Q121.9063,50.6875 122.4688,50.9844 L122.4688,53.7031 Q121.8438,53.125 121.25,52.8594 Q120.6563,52.5781 120.0313,52.5781 Q118.6875,52.5781 118,53.6563 Q117.3125,54.7188 117.3125,56.8125 Q117.3125,58.9063 118,59.9844 Q118.6875,61.0469 120.0313,61.0469 Q120.6563,61.0469 121.25,60.7813 Q121.8438,60.5 122.4688,59.9219 L122.4688,62.6406 Z " fill="#000000"/><text fill="#000000" font-family="sans-serif" font-size="14" lengthAdjust="spacing" textLength="63" x="133.5" y="61.8467">Message</text><line style="stroke:#555555;stroke-width:0.5;" x1="105.5" x2="198.5" y1="73" y2="73"/><line style="stroke:#555555;stroke-width:0.5;" x1="105.5" x2="198.5" y1="81" y2="81"/></g><!--reverse link Message to Stop Msg--><g id="link_Message_Stop Msg"><path codeLine="16" d="M152,107.25 C152,123.33 152,127.57 152,148.74 " fill="none" id="Message-backto-Stop Msg" style="stroke:#181818;stroke-width:1.0;"/><polygon fill="none" points="152,89.25,146,107.25,158,107.25,152,89.25" style="stroke:#181818;stroke-width:1.0;"/></g><!--SRC=[XS_1IiGm40RWUvvYw5uKwR8NGOeWxchnibxw1BF9s0rDCYM9YjI-kqcf8bkMdP33m3T_Ce4YEBGKUfJKK8yU8tkeHEYqovs5dS4GjYYxrlExKpis2QpggHQClI8_azkfJadDBivWCzKfU25C6Oi7xpRvY7ywSfyk73X6jg2q9narEo5p2XIFCczI9qcVxBkr-J3wK3LvQX_Q0WOnl6aoQeHI1o1BlYKdlnwWWYsp8NHY216ZbYCCbkAH4xrfo2buPM_HGCwwkZwhddyZBy4vBlrsEV8ddpYrOXHdzjfJ2DXI0VVVPNbnUI743m00]--></g></svg>