<?xml version="1.0" encoding="us-ascii" standalone="no"?><svg xmlns="http://www.w3.org/2000/svg" xmlns:xlink="http://www.w3.org/1999/xlink" contentStyleType="text/css" height="301px" preserveAspectRatio="none" style="width:349px;height:301px;background:#FFFFFF;" version="1.1" viewBox="0 0 349 301" width="349px" zoomAndPan="magnify"><defs/><g><!--cluster Actor Framework.lvlib--><g id="cluster_Actor Framework.lvlib"><path d="M8.5,6 L182.5,6 A3.75,3.75 0 0 1 185,8.5 L192,28.2969 L339.5,28.2969 A2.5,2.5 0 0 1 342,30.7969 L342,291.98 A2.5,2.5 0 0 1 339.5,294.48 L8.5,294.48 A2.5,2.5 0 0 1 6,291.98 L6,8.5 A2.5,2.5 0 0 1 8.5,6 " fill="none" style="stroke:#000000;stroke-width:1.5;"/><line style="stroke:#000000;stroke-width:1.5;" x1="6" x2="192" y1="28.2969" y2="28.2969"/><text fill="#000000" font-family="sans-serif" font-size="14" font-weight="bold" lengthAdjust="spacing" textLength="173" x="10" y="20.9951">Actor Framework.lvlib</text></g><!--class Reply Msg--><g id="elem_Reply Msg"><rect codeLine="8" fill="#FFFFFF" height="129.4844" id="Reply Msg" rx="2.5" ry="2.5" style="stroke:#555555;stroke-width:0.5;" width="304" x="22" y="149"/><rect fill="#808080" height="32" rx="2.5" ry="2.5" style="stroke:#808080;stroke-width:0.5;" width="304" x="22" y="149"/><rect fill="#808080" height="2.5" style="stroke:#808080;stroke-width:0.5;" width="304" x="22" y="178.5"/><rect codeLine="8" fill="none" height="129.4844" id="Reply Msg" rx="2.5" ry="2.5" style="stroke:#555555;stroke-width:0.5;" width="304" x="22" y="149"/><ellipse cx="134.25" cy="165" fill="#ADD1B2" rx="11" ry="11" style="stroke:#181818;stroke-width:1.0;"/><path d="M137.2188,170.6406 Q136.6406,170.9375 136,171.0781 Q135.3594,171.2344 134.6563,171.2344 Q132.1563,171.2344 130.8281,169.5938 Q129.5156,167.9375 129.5156,164.8125 Q129.5156,161.6875 130.8281,160.0313 Q132.1563,158.375 134.6563,158.375 Q135.3594,158.375 136,158.5313 Q136.6563,158.6875 137.2188,158.9844 L137.2188,161.7031 Q136.5938,161.125 136,160.8594 Q135.4063,160.5781 134.7813,160.5781 Q133.4375,160.5781 132.75,161.6563 Q132.0625,162.7188 132.0625,164.8125 Q132.0625,166.9063 132.75,167.9844 Q133.4375,169.0469 134.7813,169.0469 Q135.4063,169.0469 136,168.7813 Q136.5938,168.5 137.2188,167.9219 L137.2188,170.6406 Z " fill="#000000"/><text fill="#000000" font-family="sans-serif" font-size="14" lengthAdjust="spacing" textLength="71" x="154.75" y="169.8467">Reply Msg</text><line style="stroke:#555555;stroke-width:0.5;" x1="23" x2="325" y1="181" y2="181"/><rect fill="none" height="6" style="stroke:#C82930;stroke-width:1.0;" width="6" x="30" y="191.6484"/><text fill="#000000" font-family="sans-serif" font-size="14" lengthAdjust="spacing" textLength="155" x="42" y="197.9951">Reply Queue : NoType</text><line style="stroke:#555555;stroke-width:0.5;" x1="23" x2="325" y1="205.2969" y2="205.2969"/><ellipse cx="33" cy="218.9453" fill="#84BE84" rx="3" ry="3" style="stroke:#038048;stroke-width:1.0;"/><text fill="#000000" font-family="sans-serif" font-size="14" lengthAdjust="spacing" text-decoration="underline" textLength="278" x="42" y="222.292">Send Message And Wait For Response()</text><polygon fill="#FFFF44" points="33,230.2422,37,234.2422,33,238.2422,29,234.2422" style="stroke:#B38D22;stroke-width:1.0;"/><text fill="#000000" font-family="sans-serif" font-size="14" lengthAdjust="spacing" textLength="67" x="42" y="238.5889">Do Core()</text><polygon fill="#FFFF44" points="33,246.5391,37,250.5391,33,254.5391,29,250.5391" style="stroke:#B38D22;stroke-width:1.0;"/><text fill="#000000" font-family="sans-serif" font-size="14" lengthAdjust="spacing" textLength="148" x="42" y="254.8857">Drop Message Core()</text><ellipse cx="33" cy="267.8359" fill="#84BE84" rx="3" ry="3" style="stroke:#038048;stroke-width:1.0;"/><text fill="#000000" font-family="sans-serif" font-size="14" lengthAdjust="spacing" textLength="30" x="42" y="271.1826">Do()</text></g><!--class Message--><g id="elem_Message"><rect fill="#FFFFFF" height="48" id="Message" rx="2.5" ry="2.5" style="stroke:#555555;stroke-width:0.5;" width="95" x="126.5" y="41"/><rect fill="#808080" height="32" rx="2.5" ry="2.5" style="stroke:#808080;stroke-width:0.5;" width="95" x="126.5" y="41"/><rect fill="#808080" height="2.5" style="stroke:#808080;stroke-width:0.5;" width="95" x="126.5" y="70.5"/><rect fill="none" height="48" id="Message" rx="2.5" ry="2.5" style="stroke:#555555;stroke-width:0.5;" width="95" x="126.5" y="41"/><ellipse cx="141.5" cy="57" fill="#ADD1B2" rx="11" ry="11" style="stroke:#181818;stroke-width:1.0;"/><path d="M144.4688,62.6406 Q143.8906,62.9375 143.25,63.0781 Q142.6094,63.2344 141.9063,63.2344 Q139.4063,63.2344 138.0781,61.5938 Q136.7656,59.9375 136.7656,56.8125 Q136.7656,53.6875 138.0781,52.0313 Q139.4063,50.375 141.9063,50.375 Q142.6094,50.375 143.25,50.5313 Q143.9063,50.6875 144.4688,50.9844 L144.4688,53.7031 Q143.8438,53.125 143.25,52.8594 Q142.6563,52.5781 142.0313,52.5781 Q140.6875,52.5781 140,53.6563 Q139.3125,54.7188 139.3125,56.8125 Q139.3125,58.9063 140,59.9844 Q140.6875,61.0469 142.0313,61.0469 Q142.6563,61.0469 143.25,60.7813 Q143.8438,60.5 144.4688,59.9219 L144.4688,62.6406 Z " fill="#000000"/><text fill="#000000" font-family="sans-serif" font-size="14" lengthAdjust="spacing" textLength="63" x="155.5" y="61.8467">Message</text><line style="stroke:#555555;stroke-width:0.5;" x1="127.5" x2="220.5" y1="73" y2="73"/><line style="stroke:#555555;stroke-width:0.5;" x1="127.5" x2="220.5" y1="81" y2="81"/></g><!--reverse link Message to Reply Msg--><g id="link_Message_Reply Msg"><path codeLine="16" d="M174,107.25 C174,123.33 174,127.57 174,148.74 " fill="none" id="Message-backto-Reply Msg" style="stroke:#181818;stroke-width:1.0;"/><polygon fill="none" points="174,89.25,168,107.25,180,107.25,174,89.25" style="stroke:#181818;stroke-width:1.0;"/></g><!--SRC=[XP1HIyCm4CVVxrCSsuioAdiHfFWoEuel4zm4dxFqhA5fhYHNPTH-TzDQHJh4VmZaBh_yxow119sgAJHAqu4QvPMmnnH2PTmGrPXP5SATqbNfkNL5nZO2otpK6SQ-83yXrwFcICvE9c0zQWxSaueUPmLlriE2NxHm4pSUMOHhB8mdBOOTwC455nizJ997ajxPLrVspPfZkgV6dd0NoWLsqBqOiaMFoLVsiQMMCCK7VZer15qG9KRtsDKahnovrO5SWJiAGPM4ctX-LaOmZtNsyGlP1RguX1zykMNCsCzoFhRzRJ6_NMqvXj337zrFxnPu-v4a_uy809y0]--></g></svg>