<?xml version="1.0" encoding="us-ascii" standalone="no"?><svg xmlns="http://www.w3.org/2000/svg" xmlns:xlink="http://www.w3.org/1999/xlink" contentStyleType="text/css" height="301px" preserveAspectRatio="none" style="width:646px;height:301px;background:#FFFFFF;" version="1.1" viewBox="0 0 646 301" width="646px" zoomAndPan="magnify"><defs/><g><!--cluster Actor Framework.lvlib--><g id="cluster_Actor Framework.lvlib"><path d="M8.5,6 L182.5,6 A3.75,3.75 0 0 1 185,8.5 L192,28.2969 L636.5,28.2969 A2.5,2.5 0 0 1 639,30.7969 L639,291.98 A2.5,2.5 0 0 1 636.5,294.48 L8.5,294.48 A2.5,2.5 0 0 1 6,291.98 L6,8.5 A2.5,2.5 0 0 1 8.5,6 " fill="none" style="stroke:#000000;stroke-width:1.5;"/><line style="stroke:#000000;stroke-width:1.5;" x1="6" x2="192" y1="28.2969" y2="28.2969"/><text fill="#000000" font-family="sans-serif" font-size="14" font-weight="bold" lengthAdjust="spacing" textLength="173" x="10" y="20.9951">Actor Framework.lvlib</text></g><!--class Message Queue--><g id="elem_Message Queue"><rect codeLine="8" fill="#FFFFFF" height="129.4844" id="Message Queue" rx="2.5" ry="2.5" style="stroke:#555555;stroke-width:0.5;" width="260" x="178" y="41"/><rect fill="#808080" height="32" rx="2.5" ry="2.5" style="stroke:#808080;stroke-width:0.5;" width="260" x="178" y="41"/><rect fill="#808080" height="2.5" style="stroke:#808080;stroke-width:0.5;" width="260" x="178" y="70.5"/><rect codeLine="8" fill="none" height="129.4844" id="Message Queue" rx="2.5" ry="2.5" style="stroke:#555555;stroke-width:0.5;" width="260" x="178" y="41"/><ellipse cx="246.75" cy="57" fill="#ADD1B2" rx="11" ry="11" style="stroke:#181818;stroke-width:1.0;"/><path d="M249.7188,62.6406 Q249.1406,62.9375 248.5,63.0781 Q247.8594,63.2344 247.1563,63.2344 Q244.6563,63.2344 243.3281,61.5938 Q242.0156,59.9375 242.0156,56.8125 Q242.0156,53.6875 243.3281,52.0313 Q244.6563,50.375 247.1563,50.375 Q247.8594,50.375 248.5,50.5313 Q249.1563,50.6875 249.7188,50.9844 L249.7188,53.7031 Q249.0938,53.125 248.5,52.8594 Q247.9063,52.5781 247.2813,52.5781 Q245.9375,52.5781 245.25,53.6563 Q244.5625,54.7188 244.5625,56.8125 Q244.5625,58.9063 245.25,59.9844 Q245.9375,61.0469 247.2813,61.0469 Q247.9063,61.0469 248.5,60.7813 Q249.0938,60.5 249.7188,59.9219 L249.7188,62.6406 Z " fill="#000000"/><text fill="#000000" font-family="sans-serif" font-size="14" lengthAdjust="spacing" textLength="114" x="267.25" y="61.8467">Message Queue</text><line style="stroke:#555555;stroke-width:0.5;" x1="179" x2="437" y1="73" y2="73"/><rect fill="none" height="6" style="stroke:#C82930;stroke-width:1.0;" width="6" x="186" y="83.6484"/><text fill="#000000" font-family="sans-serif" font-size="14" lengthAdjust="spacing" textLength="205" x="198" y="89.9951">Message Enqueuer : LV Class</text><rect fill="none" height="6" style="stroke:#C82930;stroke-width:1.0;" width="6" x="186" y="99.9453"/><text fill="#000000" font-family="sans-serif" font-size="14" lengthAdjust="spacing" textLength="207" x="198" y="106.292">Message Dequeuer : LV Class</text><rect fill="none" height="6" style="stroke:#C82930;stroke-width:1.0;" width="6" x="186" y="116.2422"/><text fill="#000000" font-family="sans-serif" font-size="14" lengthAdjust="spacing" textLength="234" x="198" y="122.5889">Message Priority Queue : LV Class</text><line style="stroke:#555555;stroke-width:0.5;" x1="179" x2="437" y1="129.8906" y2="129.8906"/><ellipse cx="189" cy="143.5391" fill="#84BE84" rx="3" ry="3" style="stroke:#038048;stroke-width:1.0;"/><text fill="#000000" font-family="sans-serif" font-size="14" lengthAdjust="spacing" text-decoration="underline" textLength="173" x="198" y="146.8857">Obtain Message Queue()</text><ellipse cx="189" cy="159.8359" fill="#84BE84" rx="3" ry="3" style="stroke:#038048;stroke-width:1.0;"/><text fill="#000000" font-family="sans-serif" font-size="14" lengthAdjust="spacing" text-decoration="underline" textLength="184" x="198" y="163.1826">Release Message Queue()</text></g><!--class Message Enqueuer--><g id="elem_Message Enqueuer"><rect fill="#FFFFFF" height="48" id="Message Enqueuer" rx="2.5" ry="2.5" style="stroke:#555555;stroke-width:0.5;" width="167" x="21.5" y="230.48"/><rect fill="#808080" height="32" rx="2.5" ry="2.5" style="stroke:#808080;stroke-width:0.5;" width="167" x="21.5" y="230.48"/><rect fill="#808080" height="2.5" style="stroke:#808080;stroke-width:0.5;" width="167" x="21.5" y="259.98"/><rect fill="none" height="48" id="Message Enqueuer" rx="2.5" ry="2.5" style="stroke:#555555;stroke-width:0.5;" width="167" x="21.5" y="230.48"/><ellipse cx="36.5" cy="246.48" fill="#ADD1B2" rx="11" ry="11" style="stroke:#181818;stroke-width:1.0;"/><path d="M39.4688,252.1206 Q38.8906,252.4175 38.25,252.5581 Q37.6094,252.7144 36.9063,252.7144 Q34.4063,252.7144 33.0781,251.0738 Q31.7656,249.4175 31.7656,246.2925 Q31.7656,243.1675 33.0781,241.5113 Q34.4063,239.855 36.9063,239.855 Q37.6094,239.855 38.25,240.0113 Q38.9063,240.1675 39.4688,240.4644 L39.4688,243.1831 Q38.8438,242.605 38.25,242.3394 Q37.6563,242.0581 37.0313,242.0581 Q35.6875,242.0581 35,243.1363 Q34.3125,244.1988 34.3125,246.2925 Q34.3125,248.3863 35,249.4644 Q35.6875,250.5269 37.0313,250.5269 Q37.6563,250.5269 38.25,250.2613 Q38.8438,249.98 39.4688,249.4019 L39.4688,252.1206 Z " fill="#000000"/><text fill="#000000" font-family="sans-serif" font-size="14" lengthAdjust="spacing" textLength="135" x="50.5" y="251.3267">Message Enqueuer</text><line style="stroke:#555555;stroke-width:0.5;" x1="22.5" x2="187.5" y1="262.48" y2="262.48"/><line style="stroke:#555555;stroke-width:0.5;" x1="22.5" x2="187.5" y1="270.48" y2="270.48"/></g><!--class Message Dequeuer--><g id="elem_Message Dequeuer"><rect fill="#FFFFFF" height="48" id="Message Dequeuer" rx="2.5" ry="2.5" style="stroke:#555555;stroke-width:0.5;" width="169" x="223.5" y="230.48"/><rect fill="#808080" height="32" rx="2.5" ry="2.5" style="stroke:#808080;stroke-width:0.5;" width="169" x="223.5" y="230.48"/><rect fill="#808080" height="2.5" style="stroke:#808080;stroke-width:0.5;" width="169" x="223.5" y="259.98"/><rect fill="none" height="48" id="Message Dequeuer" rx="2.5" ry="2.5" style="stroke:#555555;stroke-width:0.5;" width="169" x="223.5" y="230.48"/><ellipse cx="238.5" cy="246.48" fill="#ADD1B2" rx="11" ry="11" style="stroke:#181818;stroke-width:1.0;"/><path d="M241.4688,252.1206 Q240.8906,252.4175 240.25,252.5581 Q239.6094,252.7144 238.9063,252.7144 Q236.4063,252.7144 235.0781,251.0738 Q233.7656,249.4175 233.7656,246.2925 Q233.7656,243.1675 235.0781,241.5113 Q236.4063,239.855 238.9063,239.855 Q239.6094,239.855 240.25,240.0113 Q240.9063,240.1675 241.4688,240.4644 L241.4688,243.1831 Q240.8438,242.605 240.25,242.3394 Q239.6563,242.0581 239.0313,242.0581 Q237.6875,242.0581 237,243.1363 Q236.3125,244.1988 236.3125,246.2925 Q236.3125,248.3863 237,249.4644 Q237.6875,250.5269 239.0313,250.5269 Q239.6563,250.5269 240.25,250.2613 Q240.8438,249.98 241.4688,249.4019 L241.4688,252.1206 Z " fill="#000000"/><text fill="#000000" font-family="sans-serif" font-size="14" lengthAdjust="spacing" textLength="137" x="252.5" y="251.3267">Message Dequeuer</text><line style="stroke:#555555;stroke-width:0.5;" x1="224.5" x2="391.5" y1="262.48" y2="262.48"/><line style="stroke:#555555;stroke-width:0.5;" x1="224.5" x2="391.5" y1="270.48" y2="270.48"/></g><!--class Message Priority Queue--><g id="elem_Message Priority Queue"><rect fill="#FFFFFF" height="48" id="Message Priority Queue" rx="2.5" ry="2.5" style="stroke:#555555;stroke-width:0.5;" width="196" x="427" y="230.48"/><rect fill="#808080" height="32" rx="2.5" ry="2.5" style="stroke:#808080;stroke-width:0.5;" width="196" x="427" y="230.48"/><rect fill="#808080" height="2.5" style="stroke:#808080;stroke-width:0.5;" width="196" x="427" y="259.98"/><rect fill="none" height="48" id="Message Priority Queue" rx="2.5" ry="2.5" style="stroke:#555555;stroke-width:0.5;" width="196" x="427" y="230.48"/><ellipse cx="442" cy="246.48" fill="#ADD1B2" rx="11" ry="11" style="stroke:#181818;stroke-width:1.0;"/><path d="M444.9688,252.1206 Q444.3906,252.4175 443.75,252.5581 Q443.1094,252.7144 442.4063,252.7144 Q439.9063,252.7144 438.5781,251.0738 Q437.2656,249.4175 437.2656,246.2925 Q437.2656,243.1675 438.5781,241.5113 Q439.9063,239.855 442.4063,239.855 Q443.1094,239.855 443.75,240.0113 Q444.4063,240.1675 444.9688,240.4644 L444.9688,243.1831 Q444.3438,242.605 443.75,242.3394 Q443.1563,242.0581 442.5313,242.0581 Q441.1875,242.0581 440.5,243.1363 Q439.8125,244.1988 439.8125,246.2925 Q439.8125,248.3863 440.5,249.4644 Q441.1875,250.5269 442.5313,250.5269 Q443.1563,250.5269 443.75,250.2613 Q444.3438,249.98 444.9688,249.4019 L444.9688,252.1206 Z " fill="#000000"/><text fill="#000000" font-family="sans-serif" font-size="14" lengthAdjust="spacing" textLength="164" x="456" y="251.3267">Message Priority Queue</text><line style="stroke:#555555;stroke-width:0.5;" x1="428" x2="622" y1="262.48" y2="262.48"/><line style="stroke:#555555;stroke-width:0.5;" x1="428" x2="622" y1="270.48" y2="270.48"/></g><!--reverse link Message Queue to Message Enqueuer--><g id="link_Message Queue_Message Enqueuer"><path codeLine="16" d="M209.5338,177.9186 C180.2938,199.0486 159.36,214.19 137.16,230.23 " fill="none" id="Message Queue-backto-Message Enqueuer" style="stroke:#181818;stroke-width:1.0;"/><polygon fill="#181818" points="219.26,170.89,212.054,171.1622,209.5338,177.9186,216.7397,177.6464,219.26,170.89" style="stroke:#181818;stroke-width:1.0;"/></g><!--reverse link Message Queue to Message Dequeuer--><g id="link_Message Queue_Message Dequeuer"><path codeLine="17" d="M308,182.67 C308,203.84 308,214.06 308,230.15 " fill="none" id="Message Queue-backto-Message Dequeuer" style="stroke:#181818;stroke-width:1.0;"/><polygon fill="#181818" points="308,170.67,304,176.67,308,182.67,312,176.67,308,170.67" style="stroke:#181818;stroke-width:1.0;"/></g><!--reverse link Message Queue to Message Priority Queue--><g id="link_Message Queue_Message Priority Queue"><path codeLine="18" d="M412.8017,177.6104 C443.9417,198.6604 466.65,214.03 490.36,230.05 " fill="none" id="Message Queue-backto-Message Priority Queue" style="stroke:#181818;stroke-width:1.0;"/><polygon fill="#181818" points="402.86,170.89,405.5907,177.5641,412.8017,177.6104,410.071,170.9363,402.86,170.89" style="stroke:#181818;stroke-width:1.0;"/></g><!--SRC=[hP1DJyCm38Rl-HLMkV2XebsGq6umg3Y0-9AukwaPKTEu92u8JVtlfDqgqHLfE-oDSeZyvBNz1X9mM56eKTChrUXHsCDSXTAuxbN1mc88rwZBfUV65Gks4JZAUaqmzWNv3NBHQnl9sCa6cFNQ1ku8eyUauUMiE-eFBLp72pcBS0M5yQJ5i5EwSu7aIdURP96aR_RbkVso9fy_K0Yu97XkgA44LchrRiWMBQH3vTPzThKO0jo_hKUQGZUq1_Ja3NiZF-jc8pG8Yj4jh2gI3uwVpXvpGUDWDD_noN_a2rd2G1DKjMg_fK_JT5SyGmZ9uIo7o0veEGuuKKhz0W00]--></g></svg>