<?xml version="1.0" encoding="us-ascii" standalone="no"?><svg xmlns="http://www.w3.org/2000/svg" xmlns:xlink="http://www.w3.org/1999/xlink" contentStyleType="text/css" height="301px" preserveAspectRatio="none" style="width:245px;height:301px;background:#FFFFFF;" version="1.1" viewBox="0 0 245 301" width="245px" zoomAndPan="magnify"><defs/><g><!--cluster Actor Framework.lvlib--><g id="cluster_Actor Framework.lvlib"><path d="M8.5,6 L182.5,6 A3.75,3.75 0 0 1 185,8.5 L192,28.2969 L235.5,28.2969 A2.5,2.5 0 0 1 238,30.7969 L238,291.98 A2.5,2.5 0 0 1 235.5,294.48 L8.5,294.48 A2.5,2.5 0 0 1 6,291.98 L6,8.5 A2.5,2.5 0 0 1 8.5,6 " fill="none" style="stroke:#000000;stroke-width:1.5;"/><line style="stroke:#000000;stroke-width:1.5;" x1="6" x2="192" y1="28.2969" y2="28.2969"/><text fill="#000000" font-family="sans-serif" font-size="14" font-weight="bold" lengthAdjust="spacing" textLength="173" x="10" y="20.9951">Actor Framework.lvlib</text></g><!--class Message Enqueuer--><g id="elem_Message Enqueuer"><rect codeLine="8" fill="#FFFFFF" height="129.4844" id="Message Enqueuer" rx="2.5" ry="2.5" style="stroke:#555555;stroke-width:0.5;" width="199" x="22.5" y="41"/><rect fill="#808080" height="32" rx="2.5" ry="2.5" style="stroke:#808080;stroke-width:0.5;" width="199" x="22.5" y="41"/><rect fill="#808080" height="2.5" style="stroke:#808080;stroke-width:0.5;" width="199" x="22.5" y="70.5"/><rect codeLine="8" fill="none" height="129.4844" id="Message Enqueuer" rx="2.5" ry="2.5" style="stroke:#555555;stroke-width:0.5;" width="199" x="22.5" y="41"/><ellipse cx="51.9" cy="57" fill="#ADD1B2" rx="11" ry="11" style="stroke:#181818;stroke-width:1.0;"/><path d="M54.8688,62.6406 Q54.2906,62.9375 53.65,63.0781 Q53.0094,63.2344 52.3063,63.2344 Q49.8063,63.2344 48.4781,61.5938 Q47.1656,59.9375 47.1656,56.8125 Q47.1656,53.6875 48.4781,52.0313 Q49.8063,50.375 52.3063,50.375 Q53.0094,50.375 53.65,50.5313 Q54.3063,50.6875 54.8688,50.9844 L54.8688,53.7031 Q54.2438,53.125 53.65,52.8594 Q53.0563,52.5781 52.4313,52.5781 Q51.0875,52.5781 50.4,53.6563 Q49.7125,54.7188 49.7125,56.8125 Q49.7125,58.9063 50.4,59.9844 Q51.0875,61.0469 52.4313,61.0469 Q53.0563,61.0469 53.65,60.7813 Q54.2438,60.5 54.8688,59.9219 L54.8688,62.6406 Z " fill="#000000"/><text fill="#000000" font-family="sans-serif" font-size="14" lengthAdjust="spacing" textLength="135" x="69.1" y="61.8467">Message Enqueuer</text><line style="stroke:#555555;stroke-width:0.5;" x1="23.5" x2="220.5" y1="73" y2="73"/><rect fill="none" height="6" style="stroke:#C82930;stroke-width:1.0;" width="6" x="30.5" y="83.6484"/><text fill="#000000" font-family="sans-serif" font-size="14" lengthAdjust="spacing" textLength="167" x="42.5" y="89.9951">Priority Queue : LV Class</text><line style="stroke:#555555;stroke-width:0.5;" x1="23.5" x2="220.5" y1="97.2969" y2="97.2969"/><polygon fill="#4177AF" points="33.5,106.9453,29.5,112.9453,37.5,112.9453" style="stroke:#1963A0;stroke-width:1.0;"/><text fill="#000000" font-family="sans-serif" font-size="14" lengthAdjust="spacing" text-decoration="underline" textLength="173" x="42.5" y="114.292">Init from Existing Queue()</text><polygon fill="#4177AF" points="33.5,123.2422,29.5,129.2422,37.5,129.2422" style="stroke:#1963A0;stroke-width:1.0;"/><text fill="#000000" font-family="sans-serif" font-size="14" lengthAdjust="spacing" text-decoration="underline" textLength="122" x="42.5" y="130.5889">Enqueue Critical()</text><ellipse cx="33.5" cy="143.5391" fill="#84BE84" rx="3" ry="3" style="stroke:#038048;stroke-width:1.0;"/><text fill="#000000" font-family="sans-serif" font-size="14" lengthAdjust="spacing" text-decoration="underline" textLength="73" x="42.5" y="146.8857">Enqueue()</text><ellipse cx="33.5" cy="159.8359" fill="#84BE84" rx="3" ry="3" style="stroke:#038048;stroke-width:1.0;"/><text fill="#000000" font-family="sans-serif" font-size="14" lengthAdjust="spacing" text-decoration="underline" textLength="155" x="42.5" y="163.1826">Equals Not A Refnum()</text></g><!--class Message Priority Queue--><g id="elem_Message Priority Queue"><rect fill="#FFFFFF" height="48" id="Message Priority Queue" rx="2.5" ry="2.5" style="stroke:#555555;stroke-width:0.5;" width="196" x="24" y="230.48"/><rect fill="#808080" height="32" rx="2.5" ry="2.5" style="stroke:#808080;stroke-width:0.5;" width="196" x="24" y="230.48"/><rect fill="#808080" height="2.5" style="stroke:#808080;stroke-width:0.5;" width="196" x="24" y="259.98"/><rect fill="none" height="48" id="Message Priority Queue" rx="2.5" ry="2.5" style="stroke:#555555;stroke-width:0.5;" width="196" x="24" y="230.48"/><ellipse cx="39" cy="246.48" fill="#ADD1B2" rx="11" ry="11" style="stroke:#181818;stroke-width:1.0;"/><path d="M41.9688,252.1206 Q41.3906,252.4175 40.75,252.5581 Q40.1094,252.7144 39.4063,252.7144 Q36.9063,252.7144 35.5781,251.0738 Q34.2656,249.4175 34.2656,246.2925 Q34.2656,243.1675 35.5781,241.5113 Q36.9063,239.855 39.4063,239.855 Q40.1094,239.855 40.75,240.0113 Q41.4063,240.1675 41.9688,240.4644 L41.9688,243.1831 Q41.3438,242.605 40.75,242.3394 Q40.1563,242.0581 39.5313,242.0581 Q38.1875,242.0581 37.5,243.1363 Q36.8125,244.1988 36.8125,246.2925 Q36.8125,248.3863 37.5,249.4644 Q38.1875,250.5269 39.5313,250.5269 Q40.1563,250.5269 40.75,250.2613 Q41.3438,249.98 41.9688,249.4019 L41.9688,252.1206 Z " fill="#000000"/><text fill="#000000" font-family="sans-serif" font-size="14" lengthAdjust="spacing" textLength="164" x="53" y="251.3267">Message Priority Queue</text><line style="stroke:#555555;stroke-width:0.5;" x1="25" x2="219" y1="262.48" y2="262.48"/><line style="stroke:#555555;stroke-width:0.5;" x1="25" x2="219" y1="270.48" y2="270.48"/></g><!--reverse link Message Enqueuer to Message Priority Queue--><g id="link_Message Enqueuer_Message Priority Queue"><path codeLine="16" d="M122,182.67 C122,203.84 122,214.06 122,230.15 " fill="none" id="Message Enqueuer-backto-Message Priority Queue" style="stroke:#181818;stroke-width:1.0;"/><polygon fill="#181818" points="122,170.67,118,176.67,122,182.67,126,176.67,122,170.67" style="stroke:#181818;stroke-width:1.0;"/></g><!--SRC=[ZT1BJyCm303WUtw5LIuyLBGB4kfjJAj00iH3ufwbxh2QnbtYyb0rVZjfrmDx872KG-GlTfo00axN61fjy1aRxRMmXqo5Ybn_gc5cTGXNsbHBpwqhPcmZECg7s6Fi2_GZkHXYb-JiP0IJ8NR1DUfOOw_XvQHVweSMRkA61Ojm3GLvD4BibEchG38r_IHvbFZElZgtRvOMsHs6e9S8SxTgiKMVGAUwaj0MQqWVFB4d-OJ7FWSPtBvitgIw85h8hA6hKLuvugyRHmAbZwtd7nI4t79pxVZaa1xxmIpM9wFjGNKsgb-IgrRR0FSiC8KdB5rRHwZMwj-ZdgRfN_-o_GM9KkeR]--></g></svg>