<?xml version="1.0" encoding="us-ascii" standalone="no"?><svg xmlns="http://www.w3.org/2000/svg" xmlns:xlink="http://www.w3.org/1999/xlink" contentStyleType="text/css" height="425px" preserveAspectRatio="none" style="width:341px;height:425px;background:#FFFFFF;" version="1.1" viewBox="0 0 341 425" width="341px" zoomAndPan="magnify"><defs/><g><!--cluster Actor Framework.lvlib--><g id="cluster_Actor Framework.lvlib"><path d="M8.5,6 L182.5,6 A3.75,3.75 0 0 1 185,8.5 L192,28.2969 L331.5,28.2969 A2.5,2.5 0 0 1 334,30.7969 L334,416.28 A2.5,2.5 0 0 1 331.5,418.78 L8.5,418.78 A2.5,2.5 0 0 1 6,416.28 L6,8.5 A2.5,2.5 0 0 1 8.5,6 " fill="none" style="stroke:#000000;stroke-width:1.5;"/><line style="stroke:#000000;stroke-width:1.5;" x1="6" x2="192" y1="28.2969" y2="28.2969"/><text fill="#000000" font-family="sans-serif" font-size="14" font-weight="bold" lengthAdjust="spacing" textLength="173" x="10" y="20.9951">Actor Framework.lvlib</text></g><!--class Launch Nested Actor Msg--><g id="elem_Launch Nested Actor Msg"><rect codeLine="8" fill="#FFFFFF" height="145.7813" id="Launch Nested Actor Msg" rx="2.5" ry="2.5" style="stroke:#555555;stroke-width:0.5;" width="296" x="22" y="149"/><rect fill="#808080" height="32" rx="2.5" ry="2.5" style="stroke:#808080;stroke-width:0.5;" width="296" x="22" y="149"/><rect fill="#808080" height="2.5" style="stroke:#808080;stroke-width:0.5;" width="296" x="22" y="178.5"/><rect codeLine="8" fill="none" height="145.7813" id="Launch Nested Actor Msg" rx="2.5" ry="2.5" style="stroke:#555555;stroke-width:0.5;" width="296" x="22" y="149"/><ellipse cx="77.25" cy="165" fill="#ADD1B2" rx="11" ry="11" style="stroke:#181818;stroke-width:1.0;"/><path d="M80.2188,170.6406 Q79.6406,170.9375 79,171.0781 Q78.3594,171.2344 77.6563,171.2344 Q75.1563,171.2344 73.8281,169.5938 Q72.5156,167.9375 72.5156,164.8125 Q72.5156,161.6875 73.8281,160.0313 Q75.1563,158.375 77.6563,158.375 Q78.3594,158.375 79,158.5313 Q79.6563,158.6875 80.2188,158.9844 L80.2188,161.7031 Q79.5938,161.125 79,160.8594 Q78.4063,160.5781 77.7813,160.5781 Q76.4375,160.5781 75.75,161.6563 Q75.0625,162.7188 75.0625,164.8125 Q75.0625,166.9063 75.75,167.9844 Q76.4375,169.0469 77.7813,169.0469 Q78.4063,169.0469 79,168.7813 Q79.5938,168.5 80.2188,167.9219 L80.2188,170.6406 Z " fill="#000000"/><text fill="#000000" font-family="sans-serif" font-size="14" lengthAdjust="spacing" textLength="177" x="97.75" y="169.8467">Launch Nested Actor Msg</text><line style="stroke:#555555;stroke-width:0.5;" x1="23" x2="317" y1="181" y2="181"/><rect fill="none" height="6" style="stroke:#C82930;stroke-width:1.0;" width="6" x="30" y="191.6484"/><text fill="#000000" font-family="sans-serif" font-size="14" lengthAdjust="spacing" textLength="160" x="42" y="197.9951">Nested Actor : LV Class</text><rect fill="none" height="6" style="stroke:#C82930;stroke-width:1.0;" width="6" x="30" y="207.9453"/><text fill="#000000" font-family="sans-serif" font-size="14" lengthAdjust="spacing" textLength="270" x="42" y="214.292">Open Actor Core front panel? : Boolean</text><rect fill="none" height="6" style="stroke:#C82930;stroke-width:1.0;" width="6" x="30" y="224.2422"/><text fill="#000000" font-family="sans-serif" font-size="14" lengthAdjust="spacing" textLength="145" x="42" y="230.5889">Auto-stop? : Boolean</text><rect fill="none" height="6" style="stroke:#C82930;stroke-width:1.0;" width="6" x="30" y="240.5391"/><text fill="#000000" font-family="sans-serif" font-size="14" lengthAdjust="spacing" textLength="135" x="42" y="246.8857">Debug Alias : String</text><line style="stroke:#555555;stroke-width:0.5;" x1="23" x2="317" y1="254.1875" y2="254.1875"/><rect fill="#F24D5C" height="6" style="stroke:#C82930;stroke-width:1.0;" width="6" x="30" y="264.8359"/><text fill="#000000" font-family="sans-serif" font-size="14" lengthAdjust="spacing" text-decoration="underline" textLength="64" x="42" y="271.1826">Initialize()</text><rect fill="#F24D5C" height="6" style="stroke:#C82930;stroke-width:1.0;" width="6" x="30" y="281.1328"/><text fill="#000000" font-family="sans-serif" font-size="14" lengthAdjust="spacing" textLength="30" x="42" y="287.4795">Do()</text></g><!--class Message--><g id="elem_Message"><rect fill="#FFFFFF" height="48" id="Message" rx="2.5" ry="2.5" style="stroke:#555555;stroke-width:0.5;" width="95" x="122.5" y="41"/><rect fill="#808080" height="32" rx="2.5" ry="2.5" style="stroke:#808080;stroke-width:0.5;" width="95" x="122.5" y="41"/><rect fill="#808080" height="2.5" style="stroke:#808080;stroke-width:0.5;" width="95" x="122.5" y="70.5"/><rect fill="none" height="48" id="Message" rx="2.5" ry="2.5" style="stroke:#555555;stroke-width:0.5;" width="95" x="122.5" y="41"/><ellipse cx="137.5" cy="57" fill="#ADD1B2" rx="11" ry="11" style="stroke:#181818;stroke-width:1.0;"/><path d="M140.4688,62.6406 Q139.8906,62.9375 139.25,63.0781 Q138.6094,63.2344 137.9063,63.2344 Q135.4063,63.2344 134.0781,61.5938 Q132.7656,59.9375 132.7656,56.8125 Q132.7656,53.6875 134.0781,52.0313 Q135.4063,50.375 137.9063,50.375 Q138.6094,50.375 139.25,50.5313 Q139.9063,50.6875 140.4688,50.9844 L140.4688,53.7031 Q139.8438,53.125 139.25,52.8594 Q138.6563,52.5781 138.0313,52.5781 Q136.6875,52.5781 136,53.6563 Q135.3125,54.7188 135.3125,56.8125 Q135.3125,58.9063 136,59.9844 Q136.6875,61.0469 138.0313,61.0469 Q138.6563,61.0469 139.25,60.7813 Q139.8438,60.5 140.4688,59.9219 L140.4688,62.6406 Z " fill="#000000"/><text fill="#000000" font-family="sans-serif" font-size="14" lengthAdjust="spacing" textLength="63" x="151.5" y="61.8467">Message</text><line style="stroke:#555555;stroke-width:0.5;" x1="123.5" x2="216.5" y1="73" y2="73"/><line style="stroke:#555555;stroke-width:0.5;" x1="123.5" x2="216.5" y1="81" y2="81"/></g><!--class Actor--><g id="elem_Actor"><rect fill="#FFFFFF" height="48" id="Actor" rx="2.5" ry="2.5" style="stroke:#555555;stroke-width:0.5;" width="68" x="136" y="354.78"/><rect fill="#808080" height="32" rx="2.5" ry="2.5" style="stroke:#808080;stroke-width:0.5;" width="68" x="136" y="354.78"/><rect fill="#808080" height="2.5" style="stroke:#808080;stroke-width:0.5;" width="68" x="136" y="384.28"/><rect fill="none" height="48" id="Actor" rx="2.5" ry="2.5" style="stroke:#555555;stroke-width:0.5;" width="68" x="136" y="354.78"/><ellipse cx="151" cy="370.78" fill="#ADD1B2" rx="11" ry="11" style="stroke:#181818;stroke-width:1.0;"/><path d="M153.9688,376.4206 Q153.3906,376.7175 152.75,376.8581 Q152.1094,377.0144 151.4063,377.0144 Q148.9063,377.0144 147.5781,375.3738 Q146.2656,373.7175 146.2656,370.5925 Q146.2656,367.4675 147.5781,365.8113 Q148.9063,364.155 151.4063,364.155 Q152.1094,364.155 152.75,364.3113 Q153.4063,364.4675 153.9688,364.7644 L153.9688,367.4831 Q153.3438,366.905 152.75,366.6394 Q152.1563,366.3581 151.5313,366.3581 Q150.1875,366.3581 149.5,367.4363 Q148.8125,368.4988 148.8125,370.5925 Q148.8125,372.6863 149.5,373.7644 Q150.1875,374.8269 151.5313,374.8269 Q152.1563,374.8269 152.75,374.5613 Q153.3438,374.28 153.9688,373.7019 L153.9688,376.4206 Z " fill="#000000"/><text fill="#000000" font-family="sans-serif" font-size="14" lengthAdjust="spacing" textLength="36" x="165" y="375.6267">Actor</text><line style="stroke:#555555;stroke-width:0.5;" x1="137" x2="203" y1="386.78" y2="386.78"/><line style="stroke:#555555;stroke-width:0.5;" x1="137" x2="203" y1="394.78" y2="394.78"/></g><!--reverse link Message to Launch Nested Actor Msg--><g id="link_Message_Launch Nested Actor Msg"><path codeLine="17" d="M170,107.19 C170,123.14 170,127.26 170,148.82 " fill="none" id="Message-backto-Launch Nested Actor Msg" style="stroke:#181818;stroke-width:1.0;"/><polygon fill="none" points="170,89.19,164,107.19,176,107.19,170,89.19" style="stroke:#181818;stroke-width:1.0;"/></g><!--reverse link Launch Nested Actor Msg to Actor--><g id="link_Launch Nested Actor Msg_Actor"><path codeLine="18" d="M170,306.89 C170,328.38 170,338.43 170,354.38 " fill="none" id="Launch Nested Actor Msg-backto-Actor" style="stroke:#181818;stroke-width:1.0;"/><polygon fill="#181818" points="170,294.89,166,300.89,170,306.89,174,300.89,170,294.89" style="stroke:#181818;stroke-width:1.0;"/></g><!--SRC=[bP1DIyD048Rl-ok6U54XqeiWHP0sfIYqUYXudswcwTBDJjYTA1ZptzsaXMXh3vrb3pFlCv-111oM52hKjA8AFGfx6AkmCwxpIiWiXZ15lIiyroxFs4RWQjxR2SO-9tz0xdixHkRiv02CUZi6dWbZZPE63wFkgL-qS1K_h5c4IyYD9os6dT9T5KWckjja7adwPB-xin_MhCSBh9tUmYi5eHpsp38K2JIgsHYoUGlf7t4CY_VzO0FmLf4xo1bxWesFIq65ZknJJ9WoMq8ty9DQE0rntd_L6Qth0YRMO8ZoIhnnXMg2e1ZTGbEIRBdZNfmHWzPyqVMD6i8pZgvgrPc5bnG25fJ0utUQNdeLTUaLRy_twAE9Kke7]--></g></svg>