<?xml version="1.0" encoding="us-ascii" standalone="no"?><svg xmlns="http://www.w3.org/2000/svg" xmlns:xlink="http://www.w3.org/1999/xlink" contentStyleType="text/css" height="814px" preserveAspectRatio="none" style="width:345px;height:814px;background:#FFFFFF;" version="1.1" viewBox="0 0 345 814" width="345px" zoomAndPan="magnify"><defs/><g><!--cluster Engine.lvlib--><g id="cluster_Engine.lvlib"><path d="M34.5,129 L124.5,129 A3.75,3.75 0 0 1 127,131.5 L134,151.2969 L293.5,151.2969 A2.5,2.5 0 0 1 296,153.7969 L296,681.81 A2.5,2.5 0 0 1 293.5,684.31 L34.5,684.31 A2.5,2.5 0 0 1 32,681.81 L32,131.5 A2.5,2.5 0 0 1 34.5,129 " fill="none" style="stroke:#000000;stroke-width:1.5;"/><line style="stroke:#000000;stroke-width:1.5;" x1="32" x2="134" y1="151.2969" y2="151.2969"/><text fill="#000000" font-family="sans-serif" font-size="14" font-weight="bold" lengthAdjust="spacing" textLength="89" x="36" y="143.9951">Engine.lvlib</text></g><!--cluster Panel Manager.lvlibp--><g id="cluster_Panel Manager.lvlibp"><path d="M77.5,6 L240.5,6 A3.75,3.75 0 0 1 243,8.5 L250,28.2969 L250.5,28.2969 A2.5,2.5 0 0 1 253,30.7969 L253,102.5 A2.5,2.5 0 0 1 250.5,105 L77.5,105 A2.5,2.5 0 0 1 75,102.5 L75,8.5 A2.5,2.5 0 0 1 77.5,6 " fill="none" style="stroke:#000000;stroke-width:1.5;"/><line style="stroke:#000000;stroke-width:1.5;" x1="75" x2="250" y1="28.2969" y2="28.2969"/><text fill="#000000" font-family="sans-serif" font-size="14" font-weight="bold" lengthAdjust="spacing" textLength="162" x="79" y="20.9951">Panel Manager.lvlibp</text></g><!--cluster Actor Framework.lvlibp--><g id="cluster_Actor Framework.lvlibp"><path d="M8.5,708.31 L192.5,708.31 A3.75,3.75 0 0 1 195,710.81 L202,730.6069 L202.5,730.6069 A2.5,2.5 0 0 1 205,733.1069 L205,804.81 A2.5,2.5 0 0 1 202.5,807.31 L8.5,807.31 A2.5,2.5 0 0 1 6,804.81 L6,710.81 A2.5,2.5 0 0 1 8.5,708.31 " fill="none" style="stroke:#000000;stroke-width:1.5;"/><line style="stroke:#000000;stroke-width:1.5;" x1="6" x2="202" y1="730.6069" y2="730.6069"/><text fill="#000000" font-family="sans-serif" font-size="14" font-weight="bold" lengthAdjust="spacing" textLength="183" x="10" y="723.3051">Actor Framework.lvlibp</text></g><!--cluster QDMH.lvlibp--><g id="cluster_QDMH.lvlibp"><path d="M231.5,708.31 L325.5,708.31 A3.75,3.75 0 0 1 328,710.81 L335,730.6069 L335.5,730.6069 A2.5,2.5 0 0 1 338,733.1069 L338,804.81 A2.5,2.5 0 0 1 335.5,807.31 L231.5,807.31 A2.5,2.5 0 0 1 229,804.81 L229,710.81 A2.5,2.5 0 0 1 231.5,708.31 " fill="none" style="stroke:#000000;stroke-width:1.5;"/><line style="stroke:#000000;stroke-width:1.5;" x1="229" x2="335" y1="730.6069" y2="730.6069"/><text fill="#000000" font-family="sans-serif" font-size="14" font-weight="bold" lengthAdjust="spacing" textLength="93" x="233" y="723.3051">QDMH.lvlibp</text></g><!--class Engine--><g id="elem_Engine"><rect codeLine="8" fill="#FFFFFF" height="504.3125" id="Engine" rx="2.5" ry="2.5" style="stroke:#555555;stroke-width:0.5;" width="232" x="48" y="164"/><rect fill="#808080" height="32" rx="2.5" ry="2.5" style="stroke:#808080;stroke-width:0.5;" width="232" x="48" y="164"/><rect fill="#808080" height="2.5" style="stroke:#808080;stroke-width:0.5;" width="232" x="48" y="193.5"/><rect codeLine="8" fill="none" height="504.3125" id="Engine" rx="2.5" ry="2.5" style="stroke:#555555;stroke-width:0.5;" width="232" x="48" y="164"/><ellipse cx="135.75" cy="180" fill="#ADD1B2" rx="11" ry="11" style="stroke:#181818;stroke-width:1.0;"/><path d="M138.7188,185.6406 Q138.1406,185.9375 137.5,186.0781 Q136.8594,186.2344 136.1563,186.2344 Q133.6563,186.2344 132.3281,184.5938 Q131.0156,182.9375 131.0156,179.8125 Q131.0156,176.6875 132.3281,175.0313 Q133.6563,173.375 136.1563,173.375 Q136.8594,173.375 137.5,173.5313 Q138.1563,173.6875 138.7188,173.9844 L138.7188,176.7031 Q138.0938,176.125 137.5,175.8594 Q136.9063,175.5781 136.2813,175.5781 Q134.9375,175.5781 134.25,176.6563 Q133.5625,177.7188 133.5625,179.8125 Q133.5625,181.9063 134.25,182.9844 Q134.9375,184.0469 136.2813,184.0469 Q136.9063,184.0469 137.5,183.7813 Q138.0938,183.5 138.7188,182.9219 L138.7188,185.6406 Z " fill="#000000"/><text fill="#000000" font-family="sans-serif" font-size="14" lengthAdjust="spacing" textLength="48" x="156.25" y="184.8467">Engine</text><line style="stroke:#555555;stroke-width:0.5;" x1="49" x2="279" y1="196" y2="196"/><ellipse cx="59" cy="209.6484" fill="none" rx="3" ry="3" style="stroke:#038048;stroke-width:1.0;"/><text fill="#000000" font-family="sans-serif" font-size="14" lengthAdjust="spacing" textLength="154" x="68" y="212.9951">Application Path : Path</text><ellipse cx="59" cy="225.9453" fill="none" rx="3" ry="3" style="stroke:#038048;stroke-width:1.0;"/><text fill="#000000" font-family="sans-serif" font-size="14" lengthAdjust="spacing" textLength="114" x="68" y="229.292">IsRoot : Boolean</text><ellipse cx="59" cy="242.2422" fill="none" rx="3" ry="3" style="stroke:#038048;stroke-width:1.0;"/><text fill="#000000" font-family="sans-serif" font-size="14" lengthAdjust="spacing" textLength="111" x="68" y="245.5889">VI Ref : kLVObjVI</text><ellipse cx="59" cy="258.5391" fill="none" rx="3" ry="3" style="stroke:#038048;stroke-width:1.0;"/><text fill="#000000" font-family="sans-serif" font-size="14" lengthAdjust="spacing" textLength="109" x="68" y="261.8857">Events : Cluster</text><rect fill="none" height="6" style="stroke:#C82930;stroke-width:1.0;" width="6" x="56" y="271.8359"/><text fill="#000000" font-family="sans-serif" font-size="14" lengthAdjust="spacing" textLength="100" x="68" y="278.1826">DVRs : Cluster</text><ellipse cx="59" cy="291.1328" fill="none" rx="3" ry="3" style="stroke:#038048;stroke-width:1.0;"/><text fill="#000000" font-family="sans-serif" font-size="14" lengthAdjust="spacing" textLength="110" x="68" y="294.4795">Self Q : LV Class</text><ellipse cx="59" cy="307.4297" fill="none" rx="3" ry="3" style="stroke:#038048;stroke-width:1.0;"/><text fill="#000000" font-family="sans-serif" font-size="14" lengthAdjust="spacing" textLength="123" x="68" y="310.7764">Caller Q : LV Class</text><ellipse cx="59" cy="323.7266" fill="none" rx="3" ry="3" style="stroke:#038048;stroke-width:1.0;"/><text fill="#000000" font-family="sans-serif" font-size="14" lengthAdjust="spacing" textLength="132" x="68" y="327.0732">Report Q : LV Class</text><line style="stroke:#555555;stroke-width:0.5;" x1="49" x2="279" y1="334.375" y2="334.375"/><polygon fill="#FFFF44" points="59,343.0234,63,347.0234,59,351.0234,55,347.0234" style="stroke:#B38D22;stroke-width:1.0;"/><text fill="#000000" font-family="sans-serif" font-size="14" lengthAdjust="spacing" text-decoration="underline" textLength="125" x="68" y="351.3701">Check For Errors()</text><polygon fill="#FFFF44" points="59,359.3203,63,363.3203,59,367.3203,55,363.3203" style="stroke:#B38D22;stroke-width:1.0;"/><text fill="#000000" font-family="sans-serif" font-size="14" lengthAdjust="spacing" text-decoration="underline" textLength="119" x="68" y="367.667">Construct Class()</text><polygon fill="#FFFF44" points="59,375.6172,63,379.6172,59,383.6172,55,379.6172" style="stroke:#B38D22;stroke-width:1.0;"/><text fill="#000000" font-family="sans-serif" font-size="14" lengthAdjust="spacing" text-decoration="underline" textLength="154" x="68" y="383.9639">Post-Launch Initialize()</text><polygon fill="#FFFF44" points="59,391.9141,63,395.9141,59,399.9141,55,395.9141" style="stroke:#B38D22;stroke-width:1.0;"/><text fill="#000000" font-family="sans-serif" font-size="14" lengthAdjust="spacing" text-decoration="underline" textLength="174" x="68" y="400.2607">Send Abstract Message()</text><polygon fill="#FFFF44" points="59,408.2109,63,412.2109,59,416.2109,55,412.2109" style="stroke:#B38D22;stroke-width:1.0;"/><text fill="#000000" font-family="sans-serif" font-size="14" lengthAdjust="spacing" text-decoration="underline" textLength="143" x="68" y="416.5576">Send Launch Event()</text><polygon fill="#FFFF44" points="59,424.5078,63,428.5078,59,432.5078,55,428.5078" style="stroke:#B38D22;stroke-width:1.0;"/><text fill="#000000" font-family="sans-serif" font-size="14" lengthAdjust="spacing" text-decoration="underline" textLength="149" x="68" y="432.8545">Send System Status()</text><polygon fill="#FFFF44" points="59,440.8047,63,444.8047,59,448.8047,55,444.8047" style="stroke:#B38D22;stroke-width:1.0;"/><text fill="#000000" font-family="sans-serif" font-size="14" lengthAdjust="spacing" text-decoration="underline" textLength="190" x="68" y="449.1514">Toggle Instrument Display()</text><rect fill="#F24D5C" height="6" style="stroke:#C82930;stroke-width:1.0;" width="6" x="56" y="459.1016"/><text fill="#000000" font-family="sans-serif" font-size="14" lengthAdjust="spacing" text-decoration="underline" textLength="195" x="68" y="465.4482">Collect Control References()</text><rect fill="#F24D5C" height="6" style="stroke:#C82930;stroke-width:1.0;" width="6" x="56" y="475.3984"/><text fill="#000000" font-family="sans-serif" font-size="14" lengthAdjust="spacing" text-decoration="underline" textLength="98" x="68" y="481.7451">Create DVRs()</text><rect fill="#F24D5C" height="6" style="stroke:#C82930;stroke-width:1.0;" width="6" x="56" y="491.6953"/><text fill="#000000" font-family="sans-serif" font-size="14" lengthAdjust="spacing" text-decoration="underline" textLength="183" x="68" y="498.042">Create Event References()</text><rect fill="#F24D5C" height="6" style="stroke:#C82930;stroke-width:1.0;" width="6" x="56" y="507.9922"/><text fill="#000000" font-family="sans-serif" font-size="14" lengthAdjust="spacing" text-decoration="underline" textLength="140" x="68" y="514.3389">Create References()</text><rect fill="#F24D5C" height="6" style="stroke:#C82930;stroke-width:1.0;" width="6" x="56" y="524.2891"/><text fill="#000000" font-family="sans-serif" font-size="14" lengthAdjust="spacing" text-decoration="underline" textLength="177" x="68" y="530.6357">Map Control References()</text><rect fill="#F24D5C" height="6" style="stroke:#C82930;stroke-width:1.0;" width="6" x="56" y="540.5859"/><text fill="#000000" font-family="sans-serif" font-size="14" lengthAdjust="spacing" text-decoration="underline" textLength="206" x="68" y="546.9326">Recurse Control References()</text><ellipse cx="59" cy="559.8828" fill="#84BE84" rx="3" ry="3" style="stroke:#038048;stroke-width:1.0;"/><text fill="#000000" font-family="sans-serif" font-size="14" lengthAdjust="spacing" textLength="64" x="68" y="563.2295">Initialize()</text><ellipse cx="59" cy="576.1797" fill="#84BE84" rx="3" ry="3" style="stroke:#038048;stroke-width:1.0;"/><text fill="#000000" font-family="sans-serif" font-size="14" lengthAdjust="spacing" textLength="175" x="68" y="579.5264">Link Control References()</text><ellipse cx="59" cy="592.4766" fill="#84BE84" rx="3" ry="3" style="stroke:#038048;stroke-width:1.0;"/><text fill="#000000" font-family="sans-serif" font-size="14" lengthAdjust="spacing" textLength="104" x="68" y="595.8232">Post-Register()</text><polygon fill="#FFFF44" points="59,603.7734,63,607.7734,59,611.7734,55,607.7734" style="stroke:#B38D22;stroke-width:1.0;"/><text fill="#000000" font-family="sans-serif" font-size="14" lengthAdjust="spacing" textLength="111" x="68" y="612.1201">Pre Launch Init()</text><ellipse cx="59" cy="625.0703" fill="#84BE84" rx="3" ry="3" style="stroke:#038048;stroke-width:1.0;"/><text fill="#000000" font-family="sans-serif" font-size="14" lengthAdjust="spacing" textLength="74" x="68" y="628.417">Pre-Actor()</text><ellipse cx="59" cy="641.3672" fill="#84BE84" rx="3" ry="3" style="stroke:#038048;stroke-width:1.0;"/><text fill="#000000" font-family="sans-serif" font-size="14" lengthAdjust="spacing" textLength="80" x="68" y="644.7139">Shutdown()</text><polygon fill="#FFFF44" points="59,652.6641,63,656.6641,59,660.6641,55,656.6641" style="stroke:#B38D22;stroke-width:1.0;"/><text fill="#000000" font-family="sans-serif" font-size="14" lengthAdjust="spacing" textLength="79" x="68" y="661.0107">Stop Core()</text></g><!--class Panel Actor--><g id="elem_Panel Actor"><rect fill="#FFFFFF" height="48" id="Panel Actor" rx="2.5" ry="2.5" style="stroke:#555555;stroke-width:0.5;" width="110" x="109" y="41"/><rect fill="#808080" height="32" rx="2.5" ry="2.5" style="stroke:#808080;stroke-width:0.5;" width="110" x="109" y="41"/><rect fill="#808080" height="2.5" style="stroke:#808080;stroke-width:0.5;" width="110" x="109" y="70.5"/><rect fill="none" height="48" id="Panel Actor" rx="2.5" ry="2.5" style="stroke:#555555;stroke-width:0.5;" width="110" x="109" y="41"/><ellipse cx="124" cy="57" fill="#ADD1B2" rx="11" ry="11" style="stroke:#181818;stroke-width:1.0;"/><path d="M126.9688,62.6406 Q126.3906,62.9375 125.75,63.0781 Q125.1094,63.2344 124.4063,63.2344 Q121.9063,63.2344 120.5781,61.5938 Q119.2656,59.9375 119.2656,56.8125 Q119.2656,53.6875 120.5781,52.0313 Q121.9063,50.375 124.4063,50.375 Q125.1094,50.375 125.75,50.5313 Q126.4063,50.6875 126.9688,50.9844 L126.9688,53.7031 Q126.3438,53.125 125.75,52.8594 Q125.1563,52.5781 124.5313,52.5781 Q123.1875,52.5781 122.5,53.6563 Q121.8125,54.7188 121.8125,56.8125 Q121.8125,58.9063 122.5,59.9844 Q123.1875,61.0469 124.5313,61.0469 Q125.1563,61.0469 125.75,60.7813 Q126.3438,60.5 126.9688,59.9219 L126.9688,62.6406 Z " fill="#000000"/><text fill="#000000" font-family="sans-serif" font-size="14" lengthAdjust="spacing" textLength="78" x="138" y="61.8467">Panel Actor</text><line style="stroke:#555555;stroke-width:0.5;" x1="110" x2="218" y1="73" y2="73"/><line style="stroke:#555555;stroke-width:0.5;" x1="110" x2="218" y1="81" y2="81"/></g><!--class Message Enqueuer--><g id="elem_Message Enqueuer"><rect fill="#FFFFFF" height="48" id="Message Enqueuer" rx="2.5" ry="2.5" style="stroke:#555555;stroke-width:0.5;" width="167" x="22.5" y="743.31"/><rect fill="#808080" height="32" rx="2.5" ry="2.5" style="stroke:#808080;stroke-width:0.5;" width="167" x="22.5" y="743.31"/><rect fill="#808080" height="2.5" style="stroke:#808080;stroke-width:0.5;" width="167" x="22.5" y="772.81"/><rect fill="none" height="48" id="Message Enqueuer" rx="2.5" ry="2.5" style="stroke:#555555;stroke-width:0.5;" width="167" x="22.5" y="743.31"/><ellipse cx="37.5" cy="759.31" fill="#ADD1B2" rx="11" ry="11" style="stroke:#181818;stroke-width:1.0;"/><path d="M40.4688,764.9506 Q39.8906,765.2475 39.25,765.3881 Q38.6094,765.5444 37.9063,765.5444 Q35.4063,765.5444 34.0781,763.9038 Q32.7656,762.2475 32.7656,759.1225 Q32.7656,755.9975 34.0781,754.3413 Q35.4063,752.685 37.9063,752.685 Q38.6094,752.685 39.25,752.8413 Q39.9063,752.9975 40.4688,753.2944 L40.4688,756.0131 Q39.8438,755.435 39.25,755.1694 Q38.6563,754.8881 38.0313,754.8881 Q36.6875,754.8881 36,755.9663 Q35.3125,757.0288 35.3125,759.1225 Q35.3125,761.2163 36,762.2944 Q36.6875,763.3569 38.0313,763.3569 Q38.6563,763.3569 39.25,763.0913 Q39.8438,762.81 40.4688,762.2319 L40.4688,764.9506 Z " fill="#000000"/><text fill="#000000" font-family="sans-serif" font-size="14" lengthAdjust="spacing" textLength="135" x="51.5" y="764.1567">Message Enqueuer</text><line style="stroke:#555555;stroke-width:0.5;" x1="23.5" x2="188.5" y1="775.31" y2="775.31"/><line style="stroke:#555555;stroke-width:0.5;" x1="23.5" x2="188.5" y1="783.31" y2="783.31"/></g><!--class QDMH--><g id="elem_QDMH"><rect fill="#FFFFFF" height="48" id="QDMH" rx="2.5" ry="2.5" style="stroke:#555555;stroke-width:0.5;" width="76" x="245" y="743.31"/><rect fill="#808080" height="32" rx="2.5" ry="2.5" style="stroke:#808080;stroke-width:0.5;" width="76" x="245" y="743.31"/><rect fill="#808080" height="2.5" style="stroke:#808080;stroke-width:0.5;" width="76" x="245" y="772.81"/><rect fill="none" height="48" id="QDMH" rx="2.5" ry="2.5" style="stroke:#555555;stroke-width:0.5;" width="76" x="245" y="743.31"/><ellipse cx="260" cy="759.31" fill="#ADD1B2" rx="11" ry="11" style="stroke:#181818;stroke-width:1.0;"/><path d="M262.9688,764.9506 Q262.3906,765.2475 261.75,765.3881 Q261.1094,765.5444 260.4063,765.5444 Q257.9063,765.5444 256.5781,763.9038 Q255.2656,762.2475 255.2656,759.1225 Q255.2656,755.9975 256.5781,754.3413 Q257.9063,752.685 260.4063,752.685 Q261.1094,752.685 261.75,752.8413 Q262.4063,752.9975 262.9688,753.2944 L262.9688,756.0131 Q262.3438,755.435 261.75,755.1694 Q261.1563,754.8881 260.5313,754.8881 Q259.1875,754.8881 258.5,755.9663 Q257.8125,757.0288 257.8125,759.1225 Q257.8125,761.2163 258.5,762.2944 Q259.1875,763.3569 260.5313,763.3569 Q261.1563,763.3569 261.75,763.0913 Q262.3438,762.81 262.9688,762.2319 L262.9688,764.9506 Z " fill="#000000"/><text fill="#000000" font-family="sans-serif" font-size="14" lengthAdjust="spacing" textLength="44" x="274" y="764.1567">QDMH</text><line style="stroke:#555555;stroke-width:0.5;" x1="246" x2="320" y1="775.31" y2="775.31"/><line style="stroke:#555555;stroke-width:0.5;" x1="246" x2="320" y1="783.31" y2="783.31"/></g><!--reverse link Panel Actor to Engine--><g id="link_Panel Actor_Engine"><path codeLine="39" d="M164,107.45 C164,125.19 164,133.6 164,163.86 " fill="none" id="Panel Actor-backto-Engine" style="stroke:#181818;stroke-width:1.0;"/><polygon fill="none" points="164,89.45,158,107.45,170,107.45,164,89.45" style="stroke:#181818;stroke-width:1.0;"/></g><!--reverse link Engine to Message Enqueuer--><g id="link_Engine_Message Enqueuer"><path codeLine="40" d="M120.2642,680.4279 C115.2442,710.6579 112.83,725.21 109.89,742.92 " fill="none" id="Engine-backto-Message Enqueuer" style="stroke:#181818;stroke-width:1.0;"/><polygon fill="#181818" points="122.23,668.59,117.3011,673.8537,120.2642,680.4279,125.1931,675.1642,122.23,668.59" style="stroke:#181818;stroke-width:1.0;"/></g><!--reverse link Engine to QDMH--><g id="link_Engine_QDMH"><path codeLine="41" d="M253.5635,679.9476 C263.8735,710.1776 268.99,725.21 275.03,742.92 " fill="none" id="Engine-backto-QDMH" style="stroke:#181818;stroke-width:1.0;"/><polygon fill="#181818" points="249.69,668.59,247.8409,675.56,253.5635,679.9476,255.4126,672.9776,249.69,668.59" style="stroke:#181818;stroke-width:1.0;"/></g><!--SRC=[ZPHDZzem48Rl-HKZkBH5gVPIgKAzi06qIA2oISNT94DmutZIiREhBUM_rmwmV6nWrr6KPDvdtlXZR8CMj2ZHL2B512l1mX93Fp25rFwhX4W9O-v5MkHCjSuYKWxeZfls1YFEaFV8jwPT8cFITW_SDUqIU43XFDxyyFkTlu8JsbBbRbYIjLH29XbJAqa7gNU1paZdKkDNzQJaih_xwC0csAmagcmBlK5LAPaAdm9pOTVGRnv7O69Y8kl2zqGAXJugYmd4k79ACLtyNFvUJ8xIw0crDKwAL6qiygiI3XTnMxoNe5h1erEcYzq47AL8A8LyHOon8hONeh5kGEaMDYNQDJci6wqnBM3ifd34J6m-VMwbI1lBTMftHktGd8mDfwBMwHecMbefbFoBxMo2EeF1qfaAPpf3OqH-2ztRDjDt0qjUtEILa3YrljBBNvJd2bq7_O1APmT3QIebNbhnq9MNGZzkLvTCoYyiCkeKpHMUKLW4lvetWMOa7tLx3vk9wiCTZ36jsU0L_e3rpXVmDJoLkdWljQc367Ff2_bKwSuPuQH0phCOmq7gJfUpQBAkRKRF-imcyLix8lPT2xP1PouqAfW9xMg8Tpkwwk-2ZMC7VlmBm_Oj7xGV15yytoJ3s1qc-4nS79ptrGeZ_QV66lccn-Dmzd18zE-T80Z-0m00]--></g></svg>