<?xml version="1.0" encoding="us-ascii" standalone="no"?><svg xmlns="http://www.w3.org/2000/svg" xmlns:xlink="http://www.w3.org/1999/xlink" contentStyleType="text/css" height="481px" preserveAspectRatio="none" style="width:521px;height:481px;background:#FFFFFF;" version="1.1" viewBox="0 0 521 481" width="521px" zoomAndPan="magnify"><defs/><g><!--cluster Engine.lvlib--><g id="cluster_Engine.lvlib"><path d="M8.5,6 L98.5,6 A3.75,3.75 0 0 1 101,8.5 L108,28.2969 L511.5,28.2969 A2.5,2.5 0 0 1 514,30.7969 L514,348.58 A2.5,2.5 0 0 1 511.5,351.08 L8.5,351.08 A2.5,2.5 0 0 1 6,348.58 L6,8.5 A2.5,2.5 0 0 1 8.5,6 " fill="none" style="stroke:#000000;stroke-width:1.5;"/><line style="stroke:#000000;stroke-width:1.5;" x1="6" x2="108" y1="28.2969" y2="28.2969"/><text fill="#000000" font-family="sans-serif" font-size="14" font-weight="bold" lengthAdjust="spacing" textLength="89" x="10" y="20.9951">Engine.lvlib</text></g><!--cluster Managed Actor.lvlib--><g id="cluster_Managed Actor.lvlib"><path d="M32.5,114 L188.5,114 A3.75,3.75 0 0 1 191,116.5 L198,136.2969 L487.5,136.2969 A2.5,2.5 0 0 1 490,138.7969 L490,324.58 A2.5,2.5 0 0 1 487.5,327.08 L32.5,327.08 A2.5,2.5 0 0 1 30,324.58 L30,116.5 A2.5,2.5 0 0 1 32.5,114 " fill="none" style="stroke:#000000;stroke-width:1.5;"/><line style="stroke:#000000;stroke-width:1.5;" x1="30" x2="198" y1="136.2969" y2="136.2969"/><text fill="#000000" font-family="sans-serif" font-size="14" font-weight="bold" lengthAdjust="spacing" textLength="155" x="34" y="128.9951">Managed Actor.lvlib</text></g><!--cluster Actor Framework.lvlibp--><g id="cluster_Actor Framework.lvlibp"><path d="M163.5,375.08 L347.5,375.08 A3.75,3.75 0 0 1 350,377.58 L357,397.3769 L357.5,397.3769 A2.5,2.5 0 0 1 360,399.8769 L360,471.58 A2.5,2.5 0 0 1 357.5,474.08 L163.5,474.08 A2.5,2.5 0 0 1 161,471.58 L161,377.58 A2.5,2.5 0 0 1 163.5,375.08 " fill="none" style="stroke:#000000;stroke-width:1.5;"/><line style="stroke:#000000;stroke-width:1.5;" x1="161" x2="357" y1="397.3769" y2="397.3769"/><text fill="#000000" font-family="sans-serif" font-size="14" font-weight="bold" lengthAdjust="spacing" textLength="183" x="165" y="390.0751">Actor Framework.lvlibp</text></g><!--class Engine--><g id="elem_Engine"><rect fill="#FFFFFF" height="48" id="Engine" rx="2.5" ry="2.5" style="stroke:#555555;stroke-width:0.5;" width="80" x="220" y="41"/><rect fill="#808080" height="32" rx="2.5" ry="2.5" style="stroke:#808080;stroke-width:0.5;" width="80" x="220" y="41"/><rect fill="#808080" height="2.5" style="stroke:#808080;stroke-width:0.5;" width="80" x="220" y="70.5"/><rect fill="none" height="48" id="Engine" rx="2.5" ry="2.5" style="stroke:#555555;stroke-width:0.5;" width="80" x="220" y="41"/><ellipse cx="235" cy="57" fill="#ADD1B2" rx="11" ry="11" style="stroke:#181818;stroke-width:1.0;"/><path d="M237.9688,62.6406 Q237.3906,62.9375 236.75,63.0781 Q236.1094,63.2344 235.4063,63.2344 Q232.9063,63.2344 231.5781,61.5938 Q230.2656,59.9375 230.2656,56.8125 Q230.2656,53.6875 231.5781,52.0313 Q232.9063,50.375 235.4063,50.375 Q236.1094,50.375 236.75,50.5313 Q237.4063,50.6875 237.9688,50.9844 L237.9688,53.7031 Q237.3438,53.125 236.75,52.8594 Q236.1563,52.5781 235.5313,52.5781 Q234.1875,52.5781 233.5,53.6563 Q232.8125,54.7188 232.8125,56.8125 Q232.8125,58.9063 233.5,59.9844 Q234.1875,61.0469 235.5313,61.0469 Q236.1563,61.0469 236.75,60.7813 Q237.3438,60.5 237.9688,59.9219 L237.9688,62.6406 Z " fill="#000000"/><text fill="#000000" font-family="sans-serif" font-size="14" lengthAdjust="spacing" textLength="48" x="249" y="61.8467">Engine</text><line style="stroke:#555555;stroke-width:0.5;" x1="221" x2="299" y1="73" y2="73"/><line style="stroke:#555555;stroke-width:0.5;" x1="221" x2="299" y1="81" y2="81"/></g><!--class Managed Actor--><g id="elem_Managed Actor"><rect codeLine="8" fill="#FFFFFF" height="162.0781" id="Managed Actor" rx="2.5" ry="2.5" style="stroke:#555555;stroke-width:0.5;" width="428" x="46" y="149"/><rect fill="#808080" height="32" rx="2.5" ry="2.5" style="stroke:#808080;stroke-width:0.5;" width="428" x="46" y="149"/><rect fill="#808080" height="2.5" style="stroke:#808080;stroke-width:0.5;" width="428" x="46" y="178.5"/><rect codeLine="8" fill="none" height="162.0781" id="Managed Actor" rx="2.5" ry="2.5" style="stroke:#555555;stroke-width:0.5;" width="428" x="46" y="149"/><ellipse cx="203.75" cy="165" fill="#ADD1B2" rx="11" ry="11" style="stroke:#181818;stroke-width:1.0;"/><path d="M206.7188,170.6406 Q206.1406,170.9375 205.5,171.0781 Q204.8594,171.2344 204.1563,171.2344 Q201.6563,171.2344 200.3281,169.5938 Q199.0156,167.9375 199.0156,164.8125 Q199.0156,161.6875 200.3281,160.0313 Q201.6563,158.375 204.1563,158.375 Q204.8594,158.375 205.5,158.5313 Q206.1563,158.6875 206.7188,158.9844 L206.7188,161.7031 Q206.0938,161.125 205.5,160.8594 Q204.9063,160.5781 204.2813,160.5781 Q202.9375,160.5781 202.25,161.6563 Q201.5625,162.7188 201.5625,164.8125 Q201.5625,166.9063 202.25,167.9844 Q202.9375,169.0469 204.2813,169.0469 Q204.9063,169.0469 205.5,168.7813 Q206.0938,168.5 206.7188,167.9219 L206.7188,170.6406 Z " fill="#000000"/><text fill="#000000" font-family="sans-serif" font-size="14" lengthAdjust="spacing" textLength="104" x="224.25" y="169.8467">Managed Actor</text><line style="stroke:#555555;stroke-width:0.5;" x1="47" x2="473" y1="181" y2="181"/><rect fill="none" height="6" style="stroke:#C82930;stroke-width:1.0;" width="6" x="54" y="191.6484"/><text fill="#000000" font-family="sans-serif" font-size="14" lengthAdjust="spacing" textLength="402" x="66" y="197.9951">Subordinates : Map Collection (key: String - Value: Cluster)</text><line style="stroke:#555555;stroke-width:0.5;" x1="47" x2="473" y1="205.2969" y2="205.2969"/><ellipse cx="57" cy="218.9453" fill="#84BE84" rx="3" ry="3" style="stroke:#038048;stroke-width:1.0;"/><text fill="#000000" font-family="sans-serif" font-size="14" lengthAdjust="spacing" text-decoration="underline" textLength="127" x="66" y="222.292">Find Subordinate()</text><ellipse cx="57" cy="235.2422" fill="#84BE84" rx="3" ry="3" style="stroke:#038048;stroke-width:1.0;"/><text fill="#000000" font-family="sans-serif" font-size="14" lengthAdjust="spacing" text-decoration="underline" textLength="209" x="66" y="238.5889">Launch Subordinate and Add()</text><ellipse cx="57" cy="251.5391" fill="#84BE84" rx="3" ry="3" style="stroke:#038048;stroke-width:1.0;"/><text fill="#000000" font-family="sans-serif" font-size="14" lengthAdjust="spacing" text-decoration="underline" textLength="155" x="66" y="254.8857">Remove Subordinate()</text><rect fill="#F24D5C" height="6" style="stroke:#C82930;stroke-width:1.0;" width="6" x="54" y="264.8359"/><text fill="#000000" font-family="sans-serif" font-size="14" lengthAdjust="spacing" text-decoration="underline" textLength="125" x="66" y="271.1826">Add Subordinate()</text><rect fill="#F24D5C" height="6" style="stroke:#C82930;stroke-width:1.0;" width="6" x="54" y="281.1328"/><text fill="#000000" font-family="sans-serif" font-size="14" lengthAdjust="spacing" text-decoration="underline" textLength="148" x="66" y="287.4795">Launch Subordinate()</text><ellipse cx="57" cy="300.4297" fill="#84BE84" rx="3" ry="3" style="stroke:#038048;stroke-width:1.0;"/><text fill="#000000" font-family="sans-serif" font-size="14" lengthAdjust="spacing" textLength="80" x="66" y="303.7764">Shutdown()</text></g><!--class Message Enqueuer--><g id="elem_Message Enqueuer"><rect fill="#FFFFFF" height="48" id="Message Enqueuer" rx="2.5" ry="2.5" style="stroke:#555555;stroke-width:0.5;" width="167" x="176.5" y="410.08"/><rect fill="#808080" height="32" rx="2.5" ry="2.5" style="stroke:#808080;stroke-width:0.5;" width="167" x="176.5" y="410.08"/><rect fill="#808080" height="2.5" style="stroke:#808080;stroke-width:0.5;" width="167" x="176.5" y="439.58"/><rect fill="none" height="48" id="Message Enqueuer" rx="2.5" ry="2.5" style="stroke:#555555;stroke-width:0.5;" width="167" x="176.5" y="410.08"/><ellipse cx="191.5" cy="426.08" fill="#ADD1B2" rx="11" ry="11" style="stroke:#181818;stroke-width:1.0;"/><path d="M194.4688,431.7206 Q193.8906,432.0175 193.25,432.1581 Q192.6094,432.3144 191.9063,432.3144 Q189.4063,432.3144 188.0781,430.6738 Q186.7656,429.0175 186.7656,425.8925 Q186.7656,422.7675 188.0781,421.1113 Q189.4063,419.455 191.9063,419.455 Q192.6094,419.455 193.25,419.6113 Q193.9063,419.7675 194.4688,420.0644 L194.4688,422.7831 Q193.8438,422.205 193.25,421.9394 Q192.6563,421.6581 192.0313,421.6581 Q190.6875,421.6581 190,422.7363 Q189.3125,423.7988 189.3125,425.8925 Q189.3125,427.9863 190,429.0644 Q190.6875,430.1269 192.0313,430.1269 Q192.6563,430.1269 193.25,429.8613 Q193.8438,429.58 194.4688,429.0019 L194.4688,431.7206 Z " fill="#000000"/><text fill="#000000" font-family="sans-serif" font-size="14" lengthAdjust="spacing" textLength="135" x="205.5" y="430.9267">Message Enqueuer</text><line style="stroke:#555555;stroke-width:0.5;" x1="177.5" x2="342.5" y1="442.08" y2="442.08"/><line style="stroke:#555555;stroke-width:0.5;" x1="177.5" x2="342.5" y1="450.08" y2="450.08"/></g><!--reverse link Engine to Managed Actor--><g id="link_Engine_Managed Actor"><path codeLine="18" d="M260,107.36 C260,123.12 260,126.94 260,148.64 " fill="none" id="Engine-backto-Managed Actor" style="stroke:#181818;stroke-width:1.0;"/><polygon fill="none" points="260,89.36,254,107.36,266,107.36,260,89.36" style="stroke:#181818;stroke-width:1.0;"/></g><!--reverse link Managed Actor to Message Enqueuer--><g id="link_Managed Actor_Message Enqueuer"><path codeLine="19" d="M260,323.47 C260,358.91 260,385.87 260,409.91 " fill="none" id="Managed Actor-backto-Message Enqueuer" style="stroke:#181818;stroke-width:1.0;"/><polygon fill="#181818" points="260,311.47,256,317.47,260,323.47,264,317.47,260,311.47" style="stroke:#181818;stroke-width:1.0;"/></g><!--SRC=[bP9DImCn48Rl-HL3lLHbfHT15Y-rTF5WBovudoRZDcmsMVFH8cl_kxFR8hKjb4u8P8OdxtmaWI9OR2YqAAca5Zr6vo4NeTQszngO6GpX1MLTUPUicZd3m4qns0dcl2A_Hnu7EqOAP-CUc0ns3BmIiiP9mgT9lyG17LtB6vOkHjU0qfvarCuAsQl0Q6uhRUd1h8rUvWkqM962gUJspiL6q8dkKvDHMyZAjEH6jCL80N9OO0jSXTdfmxYcxnpAwBMj88CFD8bohZs5IFvMT25Yr78BNKDnvLZllj1MmO7e-2prXidArI47oFUcIftdtwbnQxgecx70PUWqUS_zvIfNAIgtiHmKM_5_jZjd1Cy_MNRrsCNLxtJNPndEKF0te8tpzOviymM5m2pCxLUYH2mln2y0]--></g></svg>